<svg xmlns="http://www.w3.org/2000/svg" xmlns:xlink="http://www.w3.org/1999/xlink" width="1080" zoomAndPan="magnify" viewBox="0 0 810 809.999993" height="1080" preserveAspectRatio="xMidYMid meet" version="1.0"><defs><clipPath id="451fd83f28"><path d="M 82 174.632812 L 729 174.632812 L 729 601 L 82 601 Z M 82 174.632812 " clip-rule="nonzero"/></clipPath></defs><g clip-path="url(#451fd83f28)"><path fill="#ffffff" d="M 206.4375 298.742188 C 206.578125 313.226562 209.199219 327.523438 208.273438 342.121094 C 207.710938 350.9375 208.308594 359.96875 208.300781 368.898438 C 208.289062 377.199219 210.3125 384.898438 213.996094 392.265625 C 214.46875 393.214844 215.238281 393.699219 215.988281 393.804688 C 223.992188 394.941406 229.449219 389.472656 228.820312 381.214844 C 228.238281 373.628906 227.890625 366.027344 227.320312 358.4375 C 226.988281 353.992188 226.613281 349.539062 226.285156 345.101562 C 225.609375 335.949219 223.839844 326.878906 223.917969 317.636719 C 223.933594 315.535156 222.546875 312.691406 223.480469 311.5 C 224.933594 309.636719 227.476562 311.984375 229.667969 312.074219 C 237.429688 312.390625 243.101562 308.726562 248.816406 303.980469 C 259.277344 295.289062 263.722656 283.511719 267.238281 271.09375 C 268.835938 265.453125 268.015625 259.789062 267.316406 254.09375 C 266.339844 246.125 264.773438 238.640625 260.230469 231.5625 C 254.980469 223.398438 242.496094 222.203125 235.082031 229.058594 C 229.453125 234.269531 225.664062 240.542969 223.0625 247.640625 C 220.625 254.296875 217.644531 260.777344 216.296875 267.875 C 216.207031 264.695312 214.800781 262.015625 213.582031 259.417969 C 212.300781 256.695312 207.066406 254.175781 204.957031 255.136719 C 202.621094 256.207031 203.023438 258.492188 203.285156 260.246094 C 205.191406 273.011719 206.3125 285.90625 206.4375 298.742188 Z M 228.605469 255.609375 C 231.515625 247.324219 235.074219 239.039062 242.820312 233.714844 C 247.722656 230.34375 250.714844 231.003906 253.226562 236.277344 C 256.082031 242.265625 256.484375 248.671875 256.042969 255.226562 C 255.304688 266.210938 249.398438 274.882812 244.234375 284.101562 C 239.371094 292.792969 231.078125 295.792969 223.382812 300.398438 C 221.832031 284.660156 223.601562 269.84375 228.605469 255.609375 Z M 523.941406 351.476562 C 521.15625 355.230469 517.304688 358.285156 514.15625 361.910156 C 512.117188 364.261719 504.382812 362.636719 502.476562 359.964844 C 498.023438 353.722656 498.246094 350.390625 502.230469 343.78125 C 505.394531 338.53125 507.730469 332.78125 510.65625 327.375 C 512.46875 324.019531 515.335938 321.386719 516.570312 317.519531 C 517.417969 314.875 517.792969 311.867188 519.761719 309.535156 C 515.773438 310.667969 511.976562 310.773438 508.257812 310.960938 C 504.125 311.167969 501.308594 308.253906 499.449219 305.132812 C 496.382812 299.980469 494.992188 294.335938 494.992188 288.105469 C 494.992188 280.859375 493.777344 273.605469 493.035156 266.363281 C 492.746094 263.550781 491.859375 260.71875 492.066406 257.960938 C 492.242188 255.621094 492.96875 252.507812 496.179688 252.539062 C 499.441406 252.566406 503.371094 253.128906 504.347656 256.808594 C 506.78125 265.980469 509.230469 275.183594 509.96875 284.730469 C 510.125 286.742188 511.148438 288.691406 512.082031 291.652344 C 516.398438 285.4375 520.070312 279.757812 524.152344 274.390625 C 528.203125 269.070312 531.058594 262.953125 535.765625 258.023438 C 537.847656 255.835938 539.429688 255.296875 542.113281 255.976562 C 550.949219 258.203125 552.457031 259.042969 552.417969 268.066406 C 552.363281 281.308594 548.726562 293.574219 544.675781 305.984375 C 542.636719 312.238281 540.277344 318.421875 537.582031 324.253906 C 533.328125 333.449219 530.011719 343.273438 523.941406 351.476562 Z M 284.457031 347.6875 C 283.925781 342.6875 285.222656 337.941406 286.226562 333.109375 C 288 324.589844 289.890625 316.09375 292.542969 307.824219 C 295.167969 299.632812 296.257812 291.113281 298.539062 282.867188 C 301.695312 271.460938 304.0625 259.71875 312.15625 250.375 C 315.097656 246.976562 319.480469 246.835938 323.511719 248.546875 C 333.167969 252.65625 334.324219 261.914062 337.632812 270.011719 C 341.171875 278.683594 342.195312 288.015625 344.226562 296.984375 C 346.066406 305.109375 347.0625 313.75 347.5 322.253906 C 347.84375 328.988281 349.746094 335.496094 350.164062 342.179688 C 350.53125 348 346.863281 351.144531 341.238281 351.730469 C 332.4375 352.648438 328.222656 349.558594 326.902344 339.421875 C 326.386719 335.460938 326.792969 330.539062 324.578125 327.929688 C 322.988281 326.0625 317.816406 328.4375 314.074219 327.402344 C 308.496094 325.859375 305.003906 318.371094 308.121094 313.601562 C 309.253906 311.871094 310.796875 310.542969 312.792969 311.628906 C 315.621094 313.164062 318.910156 313.042969 321.726562 315.113281 C 324.363281 317.054688 325.136719 314.496094 324.867188 312.058594 C 323.867188 302.949219 323.433594 293.792969 321.734375 284.742188 C 320.789062 279.695312 319.929688 274.660156 318.625 269.035156 C 311.886719 282.292969 309.824219 296.195312 305.597656 309.394531 C 302.242188 319.871094 298.796875 330.378906 296.777344 341.273438 C 296.335938 343.652344 298.921875 345.730469 296.28125 348.484375 C 293.914062 350.953125 291.171875 351.84375 288.445312 352.355469 C 285.683594 352.878906 284.71875 350.195312 284.457031 347.6875 Z M 508.066406 425.253906 C 510.519531 434.578125 509.828125 443.789062 507.886719 453.195312 C 506.292969 460.9375 502.664062 467.722656 499.734375 474.851562 C 498.382812 478.144531 492.992188 480.507812 489.59375 479.722656 C 487.601562 479.261719 484.933594 472.042969 485.699219 468.648438 C 487.984375 458.515625 490.386719 448.40625 492.695312 438.277344 C 492.878906 437.476562 492.71875 436.601562 492.71875 435.179688 C 486.007812 442.117188 481.027344 449.71875 475.015625 456.433594 C 467.382812 464.957031 464.414062 465.507812 454.183594 463.542969 C 452.019531 463.128906 452.675781 461.332031 451.925781 460.261719 C 446.640625 452.71875 449.578125 444.996094 451.867188 437.65625 C 452.992188 434.039062 453.722656 430.539062 454.316406 425.519531 C 447.023438 435.6875 440.25 444.6875 435.089844 454.792969 C 431.699219 461.4375 428.304688 468.105469 423.355469 473.78125 C 422.449219 474.820312 422.488281 475.941406 422.25 477.078125 C 421.480469 480.742188 417.195312 483.363281 413.453125 482.433594 C 410.019531 481.582031 409.066406 478.386719 410.496094 474.054688 C 412.277344 468.671875 416.265625 464.65625 419.0625 459.921875 C 421.035156 456.582031 422.378906 452.949219 424.613281 449.660156 C 429.140625 443 432.679688 435.632812 436.550781 428.539062 C 440.753906 420.839844 446.304688 414.632812 452.472656 408.707031 C 454.851562 406.417969 457.179688 405.113281 460.671875 406.5 C 465.167969 408.28125 469.820312 410.082031 470.070312 415.597656 C 470.324219 421.097656 470.472656 426.589844 471.398438 432.15625 C 476.195312 431.007812 478.332031 426.742188 481.574219 423.882812 C 490.871094 415.699219 496.199219 416.125 504.511719 420.675781 C 506.644531 421.84375 507.542969 423.273438 508.066406 425.253906 Z M 365.207031 282.191406 C 364.945312 282.847656 364.582031 283.867188 364.875 284.285156 C 367.929688 288.574219 365.855469 293.425781 366.355469 297.972656 C 366.734375 301.460938 368.339844 305.058594 367.019531 308.550781 C 365.011719 313.867188 365.355469 319.234375 365.855469 324.695312 C 366.464844 331.402344 364.941406 338.335938 369.726562 344.464844 C 371.402344 346.613281 372.964844 347.703125 374.925781 346.882812 C 376.921875 346.050781 378.855469 345.691406 380.914062 345.464844 C 383.535156 345.171875 385.140625 344.136719 383.242188 340.617188 C 385.222656 341.773438 386.914062 344.476562 387.351562 340.335938 C 387.5 338.917969 388.082031 337.730469 387.628906 336.101562 C 385.476562 328.363281 386.289062 320.328125 385.253906 311.824219 C 393.714844 320.40625 404.429688 324.972656 412.472656 333.078125 C 415.464844 336.089844 419.398438 334.566406 422.21875 332.914062 C 425.148438 331.199219 426.125 328.097656 424.484375 324.28125 C 421.242188 316.730469 414.6875 312.582031 408.363281 308.539062 C 404.734375 306.21875 404.691406 304.605469 406.367188 301.417969 C 409.417969 295.605469 412.746094 289.929688 412.277344 282.867188 C 411.59375 272.566406 409.960938 262.753906 404.445312 253.617188 C 400.941406 247.808594 395.8125 245.550781 390.054688 245.539062 C 384.429688 245.527344 380.132812 249.511719 378.644531 254.976562 C 377.226562 260.183594 374.71875 259.4375 371.167969 257.714844 C 368.496094 256.417969 365.503906 256.277344 364.550781 259.640625 C 363.84375 262.125 364.105469 265.054688 364.566406 267.675781 C 365.414062 272.507812 367.171875 277.234375 365.207031 282.191406 Z M 385.6875 281.945312 C 385.78125 277.007812 387.066406 272.429688 387.871094 267.691406 C 388.59375 263.453125 390.703125 259.886719 392.320312 255.136719 C 397.734375 263.175781 398.863281 271.292969 398.058594 279.46875 C 397.308594 287.113281 393.382812 293.625 387.59375 298.765625 C 386.277344 299.933594 384.480469 300.328125 384.5 297.363281 C 384.535156 292.1875 385.585938 287.066406 385.6875 281.945312 Z M 291.738281 463.78125 C 292.546875 466.984375 293.785156 470.175781 294.84375 473.316406 C 296.777344 479.027344 300.625 484.234375 300.199219 490.660156 C 299.679688 492.9375 300.292969 495.164062 300.871094 497.25 C 301.976562 501.226562 305.34375 501.515625 308.785156 501.394531 C 312.199219 501.277344 315.21875 499.859375 315.796875 496.519531 C 316.46875 492.652344 317.621094 488.714844 317.625 484.882812 C 317.632812 466.839844 320.949219 449 320.546875 430.941406 C 320.421875 425.222656 319.980469 418.714844 328.496094 418.03125 C 328.71875 418.015625 328.871094 417.519531 329.125 417.421875 C 336.09375 414.765625 342.859375 411.636719 349.929688 409.210938 C 355.511719 407.292969 361.285156 405.777344 366.507812 402.886719 C 368.90625 401.558594 370.070312 399.296875 368.816406 396.960938 C 365.320312 390.429688 359.261719 387.070312 352.195312 386.996094 C 341.691406 386.882812 332.421875 391.894531 323.46875 396.621094 C 318.746094 399.109375 314.070312 401.863281 309.253906 404.207031 C 304.035156 406.75 299.6875 410.613281 294.042969 412.679688 C 288.742188 414.621094 284.578125 419.222656 279.507812 422.097656 C 274.582031 424.890625 273.929688 429.949219 277.511719 434.546875 C 284.324219 443.289062 289.023438 453.011719 291.738281 463.78125 Z M 283.667969 431.636719 C 290.28125 430.097656 296.921875 428.644531 303.453125 426.808594 C 306.980469 425.820312 307.207031 427.375 306.949219 430.085938 C 306.035156 439.753906 303.066406 449.121094 303.484375 459.050781 C 303.675781 463.726562 301.597656 468.496094 300.523438 473.351562 C 296.859375 464.988281 293.585938 456.648438 289.570312 448.683594 C 287.257812 444.097656 284.667969 439.632812 282.335938 435.03125 C 281.304688 432.992188 281.417969 432.160156 283.667969 431.636719 Z M 481.746094 578.558594 C 480.355469 579.007812 479.136719 579.839844 477.703125 580.328125 C 459.566406 586.542969 440.582031 589.34375 422.113281 594.210938 C 417.324219 595.472656 412.285156 595.128906 407.410156 593.355469 C 404.097656 592.152344 402.714844 590.671875 404.535156 587.175781 C 406.117188 584.140625 407.808594 581.203125 410.230469 578.796875 C 414.101562 574.945312 418.105469 571.230469 422.058594 567.457031 C 423.445312 566.132812 425.675781 564.652344 423.757812 562.726562 C 422.390625 561.351562 420.191406 562.613281 418.59375 563.613281 C 402.167969 573.886719 385.851562 584.460938 367.402344 590.792969 C 356.988281 594.367188 346.332031 598.0625 335.023438 593.644531 C 330.8125 592 328.570312 588.546875 329.519531 584.277344 C 331.21875 576.644531 335.398438 571.8125 343.136719 569.066406 C 351.277344 566.175781 358.394531 560.921875 365.058594 555.34375 C 366.742188 553.933594 369.203125 551.78125 367.957031 549.496094 C 366.53125 546.878906 363.269531 546.949219 360.425781 547.3125 C 359.695312 547.402344 358.960938 547.609375 358.265625 547.859375 C 348.414062 551.414062 340.722656 557.925781 334.191406 565.863281 C 332.472656 567.960938 330.722656 569.640625 328.207031 570.664062 C 318.730469 574.515625 308.910156 577.214844 299.015625 579.738281 C 291.941406 581.539062 284.933594 582.75 277.875 579.984375 C 272.742188 577.976562 267 577.210938 263.511719 572 C 259.746094 566.375 260.703125 562.070312 266.90625 559.765625 C 274.867188 556.8125 282.589844 553.429688 289.894531 549.054688 C 295.300781 545.8125 300.242188 541.984375 303.523438 536.664062 C 305.429688 533.578125 308.152344 530.300781 306.710938 525.988281 C 304.867188 520.453125 297.113281 517.699219 290.992188 520.597656 C 277.878906 526.808594 267.699219 536.046875 261.917969 549.589844 C 259.738281 554.691406 257.519531 559.292969 251.058594 560.175781 C 246.277344 560.832031 241.65625 562.660156 236.875 563.390625 C 226.003906 565.058594 215.050781 565.933594 204.484375 561.832031 C 194.355469 557.894531 189.664062 551.6875 192.390625 540.144531 C 195.453125 527.199219 201.160156 515.613281 209.644531 505.398438 C 211.039062 503.71875 212.382812 501.285156 214.652344 501.460938 C 216.371094 501.597656 217.570312 501.777344 218.296875 500.167969 C 218.941406 498.746094 217.707031 497.910156 216.800781 497.230469 C 215.445312 496.214844 213.949219 496.359375 212.710938 497.53125 C 210.660156 499.476562 208.515625 501.363281 206.691406 503.507812 C 196.84375 515.085938 190.796875 528.476562 187.789062 543.335938 C 186.5625 549.394531 189.460938 557.300781 194.507812 561.117188 C 202.027344 566.804688 210.621094 569.03125 219.878906 569.253906 C 231.566406 569.53125 242.933594 567.644531 254 563.992188 C 256.03125 563.324219 256.535156 562.957031 256.761719 565.71875 C 257.046875 569.25 257.964844 572.710938 260.460938 575.855469 C 264.386719 580.808594 269.96875 582.347656 275.289062 584.359375 C 285.097656 588.0625 294.902344 585.816406 304.53125 583.222656 C 312.050781 581.195312 319.457031 578.730469 327.046875 576.421875 C 327.089844 578.203125 326.132812 579.382812 325.570312 580.710938 C 322.652344 587.609375 324.757812 593.402344 331.195312 597.234375 C 336.164062 600.195312 341.484375 601.058594 347.058594 600.421875 C 359.070312 599.046875 370.40625 595.3125 381.46875 590.507812 C 388.976562 587.242188 395.796875 582.707031 404.101562 578.5625 C 402.496094 581.273438 401.179688 583.007812 400.375 584.957031 C 398.054688 590.566406 396.480469 593.066406 403.792969 597.273438 C 409.953125 600.820312 416.449219 600.472656 422.8125 599.082031 C 438.550781 595.640625 454.21875 591.851562 469.839844 587.914062 C 474.710938 586.683594 479.640625 585.308594 484.121094 582.894531 C 485.4375 582.1875 487.804688 581.800781 486.652344 579.261719 C 485.410156 576.542969 483.4375 578.011719 481.746094 578.558594 Z M 359.269531 551.890625 C 359.683594 551.671875 360.53125 551.808594 360.882812 552.117188 C 361.117188 552.320312 361.007812 553.457031 360.726562 553.613281 C 355.238281 556.773438 350.59375 561.527344 343.164062 563.222656 C 347.699219 557.054688 353.742188 554.832031 359.269531 551.890625 Z M 264.777344 553.195312 C 270.847656 540.546875 279.582031 530.5 292.714844 524.804688 C 297.089844 522.90625 302.511719 525.011719 302.414062 528.914062 C 301.105469 532.710938 298.796875 536.34375 295.589844 539.175781 C 287.144531 546.625 277.203125 551.4375 266.554688 554.890625 C 265.871094 555.113281 265.128906 555.757812 264.621094 554.882812 C 264.382812 554.480469 264.542969 553.6875 264.777344 553.195312 Z M 589.074219 409.988281 C 588.042969 411.175781 588.5 412.957031 586.660156 413.984375 C 580.464844 417.453125 574.441406 421.203125 567.738281 423.675781 C 562.800781 425.496094 557.683594 424.5625 552.644531 424.679688 C 550.5625 424.730469 549.53125 425.039062 549.152344 427.363281 C 548.964844 428.5 548.839844 429.667969 548.675781 430.820312 C 547.855469 436.628906 550.417969 438.605469 556.117188 436.691406 C 558.871094 435.769531 561.773438 435.125 564.652344 435.65625 C 565.644531 435.839844 567.183594 435.355469 567.835938 437.386719 C 568.410156 439.175781 567.492188 439.710938 566.714844 440.613281 C 561.832031 446.257812 555.003906 446.699219 548.320312 447.113281 C 546.574219 447.21875 545.210938 447.613281 545.203125 449.015625 C 545.171875 454.210938 542.398438 459.023438 543.335938 464.664062 C 552.445312 463.617188 561.015625 465.253906 569.292969 468.34375 C 571.523438 469.175781 574.621094 470.5 573.792969 473.75 C 573.039062 476.707031 570.433594 477.945312 567.316406 477.953125 C 559.496094 477.976562 551.683594 477.71875 543.878906 478.75 C 540.492188 479.195312 537.429688 480.695312 533.910156 480.796875 C 530.484375 480.898438 527.605469 479.664062 524.566406 478.710938 C 523.382812 478.339844 522.191406 471.941406 522.761719 470.722656 C 525.035156 465.863281 526.667969 460.765625 528.4375 455.707031 C 529.660156 452.203125 530.171875 448.363281 532.699219 445.296875 C 535.378906 442.046875 535.195312 437.71875 536.117188 433.882812 C 537.09375 429.835938 538.625 425.992188 539.828125 422.046875 C 540.125 421.070312 541.292969 418.136719 543.9375 420.34375 C 545.835938 421.925781 546.535156 419.242188 546.71875 418.683594 C 547.890625 415.136719 548.449219 414.445312 551.492188 415.21875 C 556.574219 416.519531 561.066406 414.617188 565.605469 412.914062 C 570.078125 411.238281 574.371094 408.878906 579.199219 408.5 C 582.183594 408.265625 585.238281 409.046875 588.242188 408.910156 C 589.710938 408.835938 589.40625 409.609375 589.074219 409.988281 Z M 434.171875 272.292969 C 433.226562 269.832031 431 267.578125 433.199219 264.375 C 437.570312 258.007812 444.410156 254.910156 450.269531 250.480469 C 454.945312 246.945312 459.757812 244.417969 465.761719 244.242188 C 468.617188 244.164062 470.945312 245.476562 473.347656 246.40625 C 476.136719 247.480469 475.667969 251.261719 472.382812 253.21875 C 467.476562 256.144531 463.203125 259.996094 458.28125 262.796875 C 455.894531 264.152344 455.671875 265.644531 455.773438 267.785156 C 456.242188 277.5625 457.992188 287.203125 457.265625 297.148438 C 456.96875 301.167969 458.445312 305.851562 458.640625 310.257812 C 458.992188 318.164062 460.992188 326.046875 459.34375 333.988281 C 458.378906 338.621094 454.585938 340.125 450.53125 340.78125 C 444.824219 341.699219 440.984375 337.867188 440.457031 330.96875 C 440.316406 329.183594 440.433594 327.375 440.433594 325.554688 C 439.890625 315.179688 440.796875 304.945312 442.574219 294.648438 C 443.667969 288.300781 442.582031 281.582031 442.46875 275.027344 C 442.417969 272.09375 440.300781 273.113281 438.945312 273.429688 C 437.042969 273.882812 435.015625 274.488281 434.171875 272.292969 Z M 395.824219 410.769531 C 393.867188 418.425781 394.421875 426.398438 392.191406 434.109375 C 390.1875 441.046875 390.050781 448.515625 389.023438 455.738281 C 387.925781 463.445312 386.628906 471.109375 384.875 478.710938 C 384.050781 482.296875 384.839844 486.261719 380.761719 488.507812 C 377.996094 490.03125 372.601562 488.671875 371.25 485.84375 C 370.25 483.753906 369.269531 478.09375 369.292969 473.113281 C 372.082031 461.21875 371.496094 447.402344 375.75 434.207031 C 378.132812 426.804688 380.933594 419.464844 382.5625 411.84375 C 383.335938 408.226562 386.589844 407.410156 388.511719 405.15625 C 389.421875 404.089844 396.234375 409.167969 395.824219 410.769531 Z M 658.070312 277.832031 C 651.09375 290.214844 644.984375 302.960938 640.800781 316.550781 C 640.148438 318.671875 638.351562 318.628906 637.324219 319.828125 C 636.277344 318.804688 635.21875 317.960938 635.222656 316.144531 C 635.234375 311.972656 636.46875 307.949219 636.269531 303.726562 C 636.007812 298.234375 635.417969 292.816406 634.425781 287.417969 C 634.175781 286.066406 634.097656 284.445312 632.703125 284.167969 C 631.273438 283.882812 630.367188 285.503906 629.695312 286.523438 C 626.015625 292.117188 622.609375 297.894531 619.984375 304.058594 C 614.203125 317.625 607.792969 330.945312 603.390625 345.074219 C 602.761719 347.09375 601.613281 348.414062 599.160156 348.070312 C 596.417969 347.683594 596.816406 345.238281 596.605469 343.734375 C 595.742188 337.601562 595.238281 331.414062 594.726562 325.234375 C 594.589844 323.597656 594.496094 321.539062 593.039062 321.15625 C 591.570312 320.769531 590.761719 322.6875 590.164062 324.066406 C 586.253906 333.113281 582.429688 342.191406 578.410156 351.183594 C 575.855469 356.90625 573.027344 362.507812 570.300781 368.152344 C 569.613281 369.578125 568.382812 370.113281 566.949219 369.523438 C 565.460938 368.910156 566.039062 367.625 566.203125 366.449219 C 566.511719 364.21875 568.023438 362.585938 569.019531 360.738281 C 575.414062 348.859375 579.824219 336.089844 585.683594 323.984375 C 587.464844 320.300781 588.828125 314.941406 594.414062 316.6875 C 598.902344 318.085938 598.511719 323.160156 599.191406 327.082031 C 599.671875 329.859375 600.082031 332.644531 600.6875 336.433594 C 605.601562 325.332031 609.851562 315.140625 614.605469 305.191406 C 618.410156 297.234375 621.691406 288.882812 628.183594 282.503906 C 632.046875 278.707031 636.394531 279.65625 637.894531 284.914062 C 638.96875 288.6875 639.808594 292.578125 639.808594 296.578125 C 639.808594 297.800781 639.488281 299.148438 640.492188 300.566406 C 644.886719 291.890625 649.253906 283.664062 653.230469 275.257812 C 655.460938 270.53125 658.339844 266.15625 661.035156 261.78125 C 665.070312 255.234375 667.980469 248.101562 672.179688 241.660156 C 673.191406 240.109375 674.261719 239.351562 675.710938 239.9375 C 677.617188 240.703125 676.828125 242.179688 676.171875 243.617188 C 670.800781 255.375 664.402344 266.59375 658.070312 277.832031 Z M 169.9375 345.046875 C 170.859375 346.660156 173.207031 348.574219 170.511719 350.304688 C 167.945312 351.953125 166.507812 349.203125 165.648438 347.699219 C 160.480469 338.617188 155.992188 329.183594 151.730469 319.636719 C 146.386719 307.664062 140.828125 295.785156 134.894531 282.84375 C 134.460938 289.027344 134.09375 294.105469 133.757812 299.1875 C 133.699219 300.085938 134.074219 301.179688 133.683594 301.855469 C 132.609375 303.710938 134.019531 307.191406 130.488281 307.398438 C 127.269531 307.589844 127.421875 304.464844 126.886719 302.636719 C 123.773438 292.03125 119.050781 281.953125 116.515625 271.160156 C 116.304688 270.246094 115.632812 269.4375 115.175781 268.585938 C 113.839844 277.8125 112.542969 286.960938 111.175781 296.097656 C 110.855469 298.21875 109.832031 300.382812 107.839844 300.984375 C 105.414062 301.71875 104.25 299.308594 103.117188 297.640625 C 94.476562 284.898438 89.519531 270.546875 85.089844 255.988281 C 83.953125 252.25 81.894531 248.683594 82.351562 244.566406 C 82.503906 243.179688 81.058594 240.726562 83.871094 240.847656 C 86.023438 240.941406 88.34375 243.089844 87.546875 244.925781 C 85.785156 248.976562 87.882812 252.347656 88.980469 255.492188 C 92.777344 266.382812 96.128906 277.511719 102.164062 287.503906 C 103.273438 289.339844 104.300781 291.226562 105.367188 293.09375 C 105.777344 293.074219 106.183594 293.050781 106.59375 293.03125 C 107.527344 287.203125 108.542969 281.386719 109.371094 275.546875 C 110.089844 270.488281 110.722656 265.40625 111.125 260.316406 C 111.304688 258.070312 112.082031 256.421875 114.234375 256.125 C 116.648438 255.792969 117.046875 258.238281 117.40625 259.71875 C 120.171875 271.132812 124.515625 282.015625 128.34375 293.070312 C 128.535156 293.621094 128.824219 293.710938 129.832031 294.0625 C 130.515625 290.175781 130.03125 286.242188 130.898438 282.46875 C 131.359375 280.445312 131.570312 278.269531 133.554688 277.878906 C 135.464844 277.5 137.300781 278.476562 138.363281 280.75 C 144.242188 293.355469 150.453125 305.804688 156.234375 318.453125 C 160.390625 327.539062 164.980469 336.378906 169.9375 345.046875 Z M 726.238281 333.324219 C 717.984375 337.601562 709.839844 342.105469 701.476562 346.160156 C 683.636719 354.804688 666.886719 365.394531 649.46875 374.792969 C 648.371094 375.382812 647.269531 376.402344 646.53125 376.191406 C 644.980469 375.839844 643.714844 376.375 643.574219 375.105469 C 643.417969 373.652344 644.367188 372.917969 645.691406 372.175781 C 653.371094 367.84375 660.84375 363.132812 668.589844 358.929688 C 680.554688 352.4375 692.175781 345.316406 704.550781 339.582031 C 711.09375 336.550781 717.539062 333.292969 723.933594 329.953125 C 725.449219 329.160156 726.84375 328.609375 727.859375 330.027344 C 729.050781 331.691406 727.636719 332.597656 726.238281 333.324219 Z M 151.128906 179.761719 C 150.6875 177.847656 150.675781 175.945312 152.652344 174.789062 C 154.578125 175.804688 155.964844 176.859375 156.328125 179.042969 C 158.835938 194.242188 163.121094 209.019531 167.183594 223.847656 C 168.289062 227.890625 169.359375 232 171.078125 235.789062 C 171.992188 237.800781 170.867188 239.003906 170.054688 239.488281 C 168.394531 240.480469 167.59375 239.023438 166.9375 237.484375 C 163.074219 228.480469 160.621094 219.03125 158.167969 209.601562 C 155.589844 199.710938 153.417969 189.71875 151.128906 179.761719 Z M 395.660156 382.257812 C 394.300781 382.730469 392.949219 383.871094 391.515625 383.085938 C 390.085938 382.300781 390.054688 380.859375 390.667969 379.765625 C 390.082031 375.613281 392.5625 372.8125 394.066406 369.738281 C 394.773438 368.289062 396.484375 368.453125 397.644531 369.058594 C 399.570312 370.0625 401.757812 371.621094 401.5 373.835938 C 401.191406 376.464844 401.492188 380.175781 397.300781 380.507812 C 395.988281 380.613281 396.511719 381.957031 395.660156 382.257812 Z M 395.660156 382.257812 " fill-opacity="1" fill-rule="nonzero"/><path fill="#ffffff" d="M 206.4375 298.742188 C 206.578125 313.226562 209.199219 327.523438 208.273438 342.121094 C 207.710938 350.9375 208.308594 359.96875 208.300781 368.898438 C 208.289062 377.199219 210.3125 384.898438 213.996094 392.265625 C 214.46875 393.214844 215.238281 393.699219 215.988281 393.804688 C 223.992188 394.941406 229.449219 389.472656 228.820312 381.214844 C 228.238281 373.628906 227.890625 366.027344 227.320312 358.4375 C 226.988281 353.992188 226.613281 349.539062 226.285156 345.101562 C 225.609375 335.949219 223.839844 326.878906 223.917969 317.636719 C 223.933594 315.535156 222.546875 312.691406 223.480469 311.5 C 224.933594 309.636719 227.476562 311.984375 229.667969 312.074219 C 237.429688 312.390625 243.101562 308.726562 248.816406 303.980469 C 259.277344 295.289062 263.722656 283.511719 267.238281 271.09375 C 268.835938 265.453125 268.015625 259.789062 267.316406 254.09375 C 266.339844 246.125 264.773438 238.640625 260.230469 231.5625 C 254.980469 223.398438 242.496094 222.203125 235.082031 229.058594 C 229.453125 234.269531 225.664062 240.542969 223.0625 247.640625 C 220.625 254.296875 217.644531 260.777344 216.296875 267.875 C 216.207031 264.695312 214.800781 262.015625 213.582031 259.417969 C 212.300781 256.695312 207.066406 254.175781 204.957031 255.136719 C 202.621094 256.207031 203.023438 258.492188 203.285156 260.246094 C 205.191406 273.011719 206.3125 285.90625 206.4375 298.742188 Z M 228.605469 255.609375 C 231.515625 247.324219 235.074219 239.039062 242.820312 233.714844 C 247.722656 230.34375 250.714844 231.003906 253.226562 236.277344 C 256.082031 242.265625 256.484375 248.671875 256.042969 255.226562 C 255.304688 266.210938 249.398438 274.882812 244.234375 284.101562 C 239.371094 292.792969 231.078125 295.792969 223.382812 300.398438 C 221.832031 284.660156 223.601562 269.84375 228.605469 255.609375 Z M 523.941406 351.476562 C 521.15625 355.230469 517.304688 358.285156 514.15625 361.910156 C 512.117188 364.261719 504.382812 362.636719 502.476562 359.964844 C 498.023438 353.722656 498.246094 350.390625 502.230469 343.78125 C 505.394531 338.53125 507.730469 332.78125 510.65625 327.375 C 512.46875 324.019531 515.335938 321.386719 516.570312 317.519531 C 517.417969 314.875 517.792969 311.867188 519.761719 309.535156 C 515.773438 310.667969 511.976562 310.773438 508.257812 310.960938 C 504.125 311.167969 501.308594 308.253906 499.449219 305.132812 C 496.382812 299.980469 494.992188 294.335938 494.992188 288.105469 C 494.992188 280.859375 493.777344 273.605469 493.035156 266.363281 C 492.746094 263.550781 491.859375 260.71875 492.066406 257.960938 C 492.242188 255.621094 492.96875 252.507812 496.179688 252.539062 C 499.441406 252.566406 503.371094 253.128906 504.347656 256.808594 C 506.78125 265.980469 509.230469 275.183594 509.96875 284.730469 C 510.125 286.742188 511.148438 288.691406 512.082031 291.652344 C 516.398438 285.4375 520.070312 279.757812 524.152344 274.390625 C 528.203125 269.070312 531.058594 262.953125 535.765625 258.023438 C 537.847656 255.835938 539.429688 255.296875 542.113281 255.976562 C 550.949219 258.203125 552.457031 259.042969 552.417969 268.066406 C 552.363281 281.308594 548.726562 293.574219 544.675781 305.984375 C 542.636719 312.238281 540.277344 318.421875 537.582031 324.253906 C 533.328125 333.449219 530.011719 343.273438 523.941406 351.476562 Z M 284.457031 347.6875 C 283.925781 342.6875 285.222656 337.941406 286.226562 333.109375 C 288 324.589844 289.890625 316.09375 292.542969 307.824219 C 295.167969 299.632812 296.257812 291.113281 298.539062 282.867188 C 301.695312 271.460938 304.0625 259.71875 312.15625 250.375 C 315.097656 246.976562 319.480469 246.835938 323.511719 248.546875 C 333.167969 252.65625 334.324219 261.914062 337.632812 270.011719 C 341.171875 278.683594 342.195312 288.015625 344.226562 296.984375 C 346.066406 305.109375 347.0625 313.75 347.5 322.253906 C 347.84375 328.988281 349.746094 335.496094 350.164062 342.179688 C 350.53125 348 346.863281 351.144531 341.238281 351.730469 C 332.4375 352.648438 328.222656 349.558594 326.902344 339.421875 C 326.386719 335.460938 326.792969 330.539062 324.578125 327.929688 C 322.988281 326.0625 317.816406 328.4375 314.074219 327.402344 C 308.496094 325.859375 305.003906 318.371094 308.121094 313.601562 C 309.253906 311.871094 310.796875 310.542969 312.792969 311.628906 C 315.621094 313.164062 318.910156 313.042969 321.726562 315.113281 C 324.363281 317.054688 325.136719 314.496094 324.867188 312.058594 C 323.867188 302.949219 323.433594 293.792969 321.734375 284.742188 C 320.789062 279.695312 319.929688 274.660156 318.625 269.035156 C 311.886719 282.292969 309.824219 296.195312 305.597656 309.394531 C 302.242188 319.871094 298.796875 330.378906 296.777344 341.273438 C 296.335938 343.652344 298.921875 345.730469 296.28125 348.484375 C 293.914062 350.953125 291.171875 351.84375 288.445312 352.355469 C 285.683594 352.878906 284.71875 350.195312 284.457031 347.6875 Z M 508.066406 425.253906 C 510.519531 434.578125 509.828125 443.789062 507.886719 453.195312 C 506.292969 460.9375 502.664062 467.722656 499.734375 474.851562 C 498.382812 478.144531 492.992188 480.507812 489.59375 479.722656 C 487.601562 479.261719 484.933594 472.042969 485.699219 468.648438 C 487.984375 458.515625 490.386719 448.40625 492.695312 438.277344 C 492.878906 437.476562 492.71875 436.601562 492.71875 435.179688 C 486.007812 442.117188 481.027344 449.71875 475.015625 456.433594 C 467.382812 464.957031 464.414062 465.507812 454.183594 463.542969 C 452.019531 463.128906 452.675781 461.332031 451.925781 460.261719 C 446.640625 452.71875 449.578125 444.996094 451.867188 437.65625 C 452.992188 434.039062 453.722656 430.539062 454.316406 425.519531 C 447.023438 435.6875 440.25 444.6875 435.089844 454.792969 C 431.699219 461.4375 428.304688 468.105469 423.355469 473.78125 C 422.449219 474.820312 422.488281 475.941406 422.25 477.078125 C 421.480469 480.742188 417.195312 483.363281 413.453125 482.433594 C 410.019531 481.582031 409.066406 478.386719 410.496094 474.054688 C 412.277344 468.671875 416.265625 464.65625 419.0625 459.921875 C 421.035156 456.582031 422.378906 452.949219 424.613281 449.660156 C 429.140625 443 432.679688 435.632812 436.550781 428.539062 C 440.753906 420.839844 446.304688 414.632812 452.472656 408.707031 C 454.851562 406.417969 457.179688 405.113281 460.671875 406.5 C 465.167969 408.28125 469.820312 410.082031 470.070312 415.597656 C 470.324219 421.097656 470.472656 426.589844 471.398438 432.15625 C 476.195312 431.007812 478.332031 426.742188 481.574219 423.882812 C 490.871094 415.699219 496.199219 416.125 504.511719 420.675781 C 506.644531 421.84375 507.542969 423.273438 508.066406 425.253906 Z M 365.207031 282.191406 C 364.945312 282.847656 364.582031 283.867188 364.875 284.285156 C 367.929688 288.574219 365.855469 293.425781 366.355469 297.972656 C 366.734375 301.460938 368.339844 305.058594 367.019531 308.550781 C 365.011719 313.867188 365.355469 319.234375 365.855469 324.695312 C 366.464844 331.402344 364.941406 338.335938 369.726562 344.464844 C 371.402344 346.613281 372.964844 347.703125 374.925781 346.882812 C 376.921875 346.050781 378.855469 345.691406 380.914062 345.464844 C 383.535156 345.171875 385.140625 344.136719 383.242188 340.617188 C 385.222656 341.773438 386.914062 344.476562 387.351562 340.335938 C 387.5 338.917969 388.082031 337.730469 387.628906 336.101562 C 385.476562 328.363281 386.289062 320.328125 385.253906 311.824219 C 393.714844 320.40625 404.429688 324.972656 412.472656 333.078125 C 415.464844 336.089844 419.398438 334.566406 422.21875 332.914062 C 425.148438 331.199219 426.125 328.097656 424.484375 324.28125 C 421.242188 316.730469 414.6875 312.582031 408.363281 308.539062 C 404.734375 306.21875 404.691406 304.605469 406.367188 301.417969 C 409.417969 295.605469 412.746094 289.929688 412.277344 282.867188 C 411.59375 272.566406 409.960938 262.753906 404.445312 253.617188 C 400.941406 247.808594 395.8125 245.550781 390.054688 245.539062 C 384.429688 245.527344 380.132812 249.511719 378.644531 254.976562 C 377.226562 260.183594 374.71875 259.4375 371.167969 257.714844 C 368.496094 256.417969 365.503906 256.277344 364.550781 259.640625 C 363.84375 262.125 364.105469 265.054688 364.566406 267.675781 C 365.414062 272.507812 367.171875 277.234375 365.207031 282.191406 Z M 385.6875 281.945312 C 385.78125 277.007812 387.066406 272.429688 387.871094 267.691406 C 388.59375 263.453125 390.703125 259.886719 392.320312 255.136719 C 397.734375 263.175781 398.863281 271.292969 398.058594 279.46875 C 397.308594 287.113281 393.382812 293.625 387.59375 298.765625 C 386.277344 299.933594 384.480469 300.328125 384.5 297.363281 C 384.535156 292.1875 385.585938 287.066406 385.6875 281.945312 Z M 291.738281 463.78125 C 292.546875 466.984375 293.785156 470.175781 294.84375 473.316406 C 296.777344 479.027344 300.625 484.234375 300.199219 490.660156 C 299.679688 492.9375 300.292969 495.164062 300.871094 497.25 C 301.976562 501.226562 305.34375 501.515625 308.785156 501.394531 C 312.199219 501.277344 315.21875 499.859375 315.796875 496.519531 C 316.46875 492.652344 317.621094 488.714844 317.625 484.882812 C 317.632812 466.839844 320.949219 449 320.546875 430.941406 C 320.421875 425.222656 319.980469 418.714844 328.496094 418.03125 C 328.71875 418.015625 328.871094 417.519531 329.125 417.421875 C 336.09375 414.765625 342.859375 411.636719 349.929688 409.210938 C 355.511719 407.292969 361.285156 405.777344 366.507812 402.886719 C 368.90625 401.558594 370.070312 399.296875 368.816406 396.960938 C 365.320312 390.429688 359.261719 387.070312 352.195312 386.996094 C 341.691406 386.882812 332.421875 391.894531 323.46875 396.621094 C 318.746094 399.109375 314.070312 401.863281 309.253906 404.207031 C 304.035156 406.75 299.6875 410.613281 294.042969 412.679688 C 288.742188 414.621094 284.578125 419.222656 279.507812 422.097656 C 274.582031 424.890625 273.929688 429.949219 277.511719 434.546875 C 284.324219 443.289062 289.023438 453.011719 291.738281 463.78125 Z M 283.667969 431.636719 C 290.28125 430.097656 296.921875 428.644531 303.453125 426.808594 C 306.980469 425.820312 307.207031 427.375 306.949219 430.085938 C 306.035156 439.753906 303.066406 449.121094 303.484375 459.050781 C 303.675781 463.726562 301.597656 468.496094 300.523438 473.351562 C 296.859375 464.988281 293.585938 456.648438 289.570312 448.683594 C 287.257812 444.097656 284.667969 439.632812 282.335938 435.03125 C 281.304688 432.992188 281.417969 432.160156 283.667969 431.636719 Z M 481.746094 578.558594 C 480.355469 579.007812 479.136719 579.839844 477.703125 580.328125 C 459.566406 586.542969 440.582031 589.34375 422.113281 594.210938 C 417.324219 595.472656 412.285156 595.128906 407.410156 593.355469 C 404.097656 592.152344 402.714844 590.671875 404.535156 587.175781 C 406.117188 584.140625 407.808594 581.203125 410.230469 578.796875 C 414.101562 574.945312 418.105469 571.230469 422.058594 567.457031 C 423.445312 566.132812 425.675781 564.652344 423.757812 562.726562 C 422.390625 561.351562 420.191406 562.613281 418.59375 563.613281 C 402.167969 573.886719 385.851562 584.460938 367.402344 590.792969 C 356.988281 594.367188 346.332031 598.0625 335.023438 593.644531 C 330.8125 592 328.570312 588.546875 329.519531 584.277344 C 331.21875 576.644531 335.398438 571.8125 343.136719 569.066406 C 351.277344 566.175781 358.394531 560.921875 365.058594 555.34375 C 366.742188 553.933594 369.203125 551.78125 367.957031 549.496094 C 366.53125 546.878906 363.269531 546.949219 360.425781 547.3125 C 359.695312 547.402344 358.960938 547.609375 358.265625 547.859375 C 348.414062 551.414062 340.722656 557.925781 334.191406 565.863281 C 332.472656 567.960938 330.722656 569.640625 328.207031 570.664062 C 318.730469 574.515625 308.910156 577.214844 299.015625 579.738281 C 291.941406 581.539062 284.933594 582.75 277.875 579.984375 C 272.742188 577.976562 267 577.210938 263.511719 572 C 259.746094 566.375 260.703125 562.070312 266.90625 559.765625 C 274.867188 556.8125 282.589844 553.429688 289.894531 549.054688 C 295.300781 545.8125 300.242188 541.984375 303.523438 536.664062 C 305.429688 533.578125 308.152344 530.300781 306.710938 525.988281 C 304.867188 520.453125 297.113281 517.699219 290.992188 520.597656 C 277.878906 526.808594 267.699219 536.046875 261.917969 549.589844 C 259.738281 554.691406 257.519531 559.292969 251.058594 560.175781 C 246.277344 560.832031 241.65625 562.660156 236.875 563.390625 C 226.003906 565.058594 215.050781 565.933594 204.484375 561.832031 C 194.355469 557.894531 189.664062 551.6875 192.390625 540.144531 C 195.453125 527.199219 201.160156 515.613281 209.644531 505.398438 C 211.039062 503.71875 212.382812 501.285156 214.652344 501.460938 C 216.371094 501.597656 217.570312 501.777344 218.296875 500.167969 C 218.941406 498.746094 217.707031 497.910156 216.800781 497.230469 C 215.445312 496.214844 213.949219 496.359375 212.710938 497.53125 C 210.660156 499.476562 208.515625 501.363281 206.691406 503.507812 C 196.84375 515.085938 190.796875 528.476562 187.789062 543.335938 C 186.5625 549.394531 189.460938 557.300781 194.507812 561.117188 C 202.027344 566.804688 210.621094 569.03125 219.878906 569.253906 C 231.566406 569.53125 242.933594 567.644531 254 563.992188 C 256.03125 563.324219 256.535156 562.957031 256.761719 565.71875 C 257.046875 569.25 257.964844 572.710938 260.460938 575.855469 C 264.386719 580.808594 269.96875 582.347656 275.289062 584.359375 C 285.097656 588.0625 294.902344 585.816406 304.53125 583.222656 C 312.050781 581.195312 319.457031 578.730469 327.046875 576.421875 C 327.089844 578.203125 326.132812 579.382812 325.570312 580.710938 C 322.652344 587.609375 324.757812 593.402344 331.195312 597.234375 C 336.164062 600.195312 341.484375 601.058594 347.058594 600.421875 C 359.070312 599.046875 370.40625 595.3125 381.46875 590.507812 C 388.976562 587.242188 395.796875 582.707031 404.101562 578.5625 C 402.496094 581.273438 401.179688 583.007812 400.375 584.957031 C 398.054688 590.566406 396.480469 593.066406 403.792969 597.273438 C 409.953125 600.820312 416.449219 600.472656 422.8125 599.082031 C 438.550781 595.640625 454.21875 591.851562 469.839844 587.914062 C 474.710938 586.683594 479.640625 585.308594 484.121094 582.894531 C 485.4375 582.1875 487.804688 581.800781 486.652344 579.261719 C 485.410156 576.542969 483.4375 578.011719 481.746094 578.558594 Z M 359.269531 551.890625 C 359.683594 551.671875 360.53125 551.808594 360.882812 552.117188 C 361.117188 552.320312 361.007812 553.457031 360.726562 553.613281 C 355.238281 556.773438 350.59375 561.527344 343.164062 563.222656 C 347.699219 557.054688 353.742188 554.832031 359.269531 551.890625 Z M 264.777344 553.195312 C 270.847656 540.546875 279.582031 530.5 292.714844 524.804688 C 297.089844 522.90625 302.511719 525.011719 302.414062 528.914062 C 301.105469 532.710938 298.796875 536.34375 295.589844 539.175781 C 287.144531 546.625 277.203125 551.4375 266.554688 554.890625 C 265.871094 555.113281 265.128906 555.757812 264.621094 554.882812 C 264.382812 554.480469 264.542969 553.6875 264.777344 553.195312 Z M 589.074219 409.988281 C 588.042969 411.175781 588.5 412.957031 586.660156 413.984375 C 580.464844 417.453125 574.441406 421.203125 567.738281 423.675781 C 562.800781 425.496094 557.683594 424.5625 552.644531 424.679688 C 550.5625 424.730469 549.53125 425.039062 549.152344 427.363281 C 548.964844 428.5 548.839844 429.667969 548.675781 430.820312 C 547.855469 436.628906 550.417969 438.605469 556.117188 436.691406 C 558.871094 435.769531 561.773438 435.125 564.652344 435.65625 C 565.644531 435.839844 567.183594 435.355469 567.835938 437.386719 C 568.410156 439.175781 567.492188 439.710938 566.714844 440.613281 C 561.832031 446.257812 555.003906 446.699219 548.320312 447.113281 C 546.574219 447.21875 545.210938 447.613281 545.203125 449.015625 C 545.171875 454.210938 542.398438 459.023438 543.335938 464.664062 C 552.445312 463.617188 561.015625 465.253906 569.292969 468.34375 C 571.523438 469.175781 574.621094 470.5 573.792969 473.75 C 573.039062 476.707031 570.433594 477.945312 567.316406 477.953125 C 559.496094 477.976562 551.683594 477.71875 543.878906 478.75 C 540.492188 479.195312 537.429688 480.695312 533.910156 480.796875 C 530.484375 480.898438 527.605469 479.664062 524.566406 478.710938 C 523.382812 478.339844 522.191406 471.941406 522.761719 470.722656 C 525.035156 465.863281 526.667969 460.765625 528.4375 455.707031 C 529.660156 452.203125 530.171875 448.363281 532.699219 445.296875 C 535.378906 442.046875 535.195312 437.71875 536.117188 433.882812 C 537.09375 429.835938 538.625 425.992188 539.828125 422.046875 C 540.125 421.070312 541.292969 418.136719 543.9375 420.34375 C 545.835938 421.925781 546.535156 419.242188 546.71875 418.683594 C 547.890625 415.136719 548.449219 414.445312 551.492188 415.21875 C 556.574219 416.519531 561.066406 414.617188 565.605469 412.914062 C 570.078125 411.238281 574.371094 408.878906 579.199219 408.5 C 582.183594 408.265625 585.238281 409.046875 588.242188 408.910156 C 589.710938 408.835938 589.40625 409.609375 589.074219 409.988281 Z M 434.171875 272.292969 C 433.226562 269.832031 431 267.578125 433.199219 264.375 C 437.570312 258.007812 444.410156 254.910156 450.269531 250.480469 C 454.945312 246.945312 459.757812 244.417969 465.761719 244.242188 C 468.617188 244.164062 470.945312 245.476562 473.347656 246.40625 C 476.136719 247.480469 475.667969 251.261719 472.382812 253.21875 C 467.476562 256.144531 463.203125 259.996094 458.28125 262.796875 C 455.894531 264.152344 455.671875 265.644531 455.773438 267.785156 C 456.242188 277.5625 457.992188 287.203125 457.265625 297.148438 C 456.96875 301.167969 458.445312 305.851562 458.640625 310.257812 C 458.992188 318.164062 460.992188 326.046875 459.34375 333.988281 C 458.378906 338.621094 454.585938 340.125 450.53125 340.78125 C 444.824219 341.699219 440.984375 337.867188 440.457031 330.96875 C 440.316406 329.183594 440.433594 327.375 440.433594 325.554688 C 439.890625 315.179688 440.796875 304.945312 442.574219 294.648438 C 443.667969 288.300781 442.582031 281.582031 442.46875 275.027344 C 442.417969 272.09375 440.300781 273.113281 438.945312 273.429688 C 437.042969 273.882812 435.015625 274.488281 434.171875 272.292969 Z M 395.824219 410.769531 C 393.867188 418.425781 394.421875 426.398438 392.191406 434.109375 C 390.1875 441.046875 390.050781 448.515625 389.023438 455.738281 C 387.925781 463.445312 386.628906 471.109375 384.875 478.710938 C 384.050781 482.296875 384.839844 486.261719 380.761719 488.507812 C 377.996094 490.03125 372.601562 488.671875 371.25 485.84375 C 370.25 483.753906 369.269531 478.09375 369.292969 473.113281 C 372.082031 461.21875 371.496094 447.402344 375.75 434.207031 C 378.132812 426.804688 380.933594 419.464844 382.5625 411.84375 C 383.335938 408.226562 386.589844 407.410156 388.511719 405.15625 C 389.421875 404.089844 396.234375 409.167969 395.824219 410.769531 Z M 658.070312 277.832031 C 651.09375 290.214844 644.984375 302.960938 640.800781 316.550781 C 640.148438 318.671875 638.351562 318.628906 637.324219 319.828125 C 636.277344 318.804688 635.21875 317.960938 635.222656 316.144531 C 635.234375 311.972656 636.46875 307.949219 636.269531 303.726562 C 636.007812 298.234375 635.417969 292.816406 634.425781 287.417969 C 634.175781 286.066406 634.097656 284.445312 632.703125 284.167969 C 631.273438 283.882812 630.367188 285.503906 629.695312 286.523438 C 626.015625 292.117188 622.609375 297.894531 619.984375 304.058594 C 614.203125 317.625 607.792969 330.945312 603.390625 345.074219 C 602.761719 347.09375 601.613281 348.414062 599.160156 348.070312 C 596.417969 347.683594 596.816406 345.238281 596.605469 343.734375 C 595.742188 337.601562 595.238281 331.414062 594.726562 325.234375 C 594.589844 323.597656 594.496094 321.539062 593.039062 321.15625 C 591.570312 320.769531 590.761719 322.6875 590.164062 324.066406 C 586.253906 333.113281 582.429688 342.191406 578.410156 351.183594 C 575.855469 356.90625 573.027344 362.507812 570.300781 368.152344 C 569.613281 369.578125 568.382812 370.113281 566.949219 369.523438 C 565.460938 368.910156 566.039062 367.625 566.203125 366.449219 C 566.511719 364.21875 568.023438 362.585938 569.019531 360.738281 C 575.414062 348.859375 579.824219 336.089844 585.683594 323.984375 C 587.464844 320.300781 588.828125 314.941406 594.414062 316.6875 C 598.902344 318.085938 598.511719 323.160156 599.191406 327.082031 C 599.671875 329.859375 600.082031 332.644531 600.6875 336.433594 C 605.601562 325.332031 609.851562 315.140625 614.605469 305.191406 C 618.410156 297.234375 621.691406 288.882812 628.183594 282.503906 C 632.046875 278.707031 636.394531 279.65625 637.894531 284.914062 C 638.96875 288.6875 639.808594 292.578125 639.808594 296.578125 C 639.808594 297.800781 639.488281 299.148438 640.492188 300.566406 C 644.886719 291.890625 649.253906 283.664062 653.230469 275.257812 C 655.460938 270.53125 658.339844 266.15625 661.035156 261.78125 C 665.070312 255.234375 667.980469 248.101562 672.179688 241.660156 C 673.191406 240.109375 674.261719 239.351562 675.710938 239.9375 C 677.617188 240.703125 676.828125 242.179688 676.171875 243.617188 C 670.800781 255.375 664.402344 266.59375 658.070312 277.832031 Z M 169.9375 345.046875 C 170.859375 346.660156 173.207031 348.574219 170.511719 350.304688 C 167.945312 351.953125 166.507812 349.203125 165.648438 347.699219 C 160.480469 338.617188 155.992188 329.183594 151.730469 319.636719 C 146.386719 307.664062 140.828125 295.785156 134.894531 282.84375 C 134.460938 289.027344 134.09375 294.105469 133.757812 299.1875 C 133.699219 300.085938 134.074219 301.179688 133.683594 301.855469 C 132.609375 303.710938 134.019531 307.191406 130.488281 307.398438 C 127.269531 307.589844 127.421875 304.464844 126.886719 302.636719 C 123.773438 292.03125 119.050781 281.953125 116.515625 271.160156 C 116.304688 270.246094 115.632812 269.4375 115.175781 268.585938 C 113.839844 277.8125 112.542969 286.960938 111.175781 296.097656 C 110.855469 298.21875 109.832031 300.382812 107.839844 300.984375 C 105.414062 301.71875 104.25 299.308594 103.117188 297.640625 C 94.476562 284.898438 89.519531 270.546875 85.089844 255.988281 C 83.953125 252.25 81.894531 248.683594 82.351562 244.566406 C 82.503906 243.179688 81.058594 240.726562 83.871094 240.847656 C 86.023438 240.941406 88.34375 243.089844 87.546875 244.925781 C 85.785156 248.976562 87.882812 252.347656 88.980469 255.492188 C 92.777344 266.382812 96.128906 277.511719 102.164062 287.503906 C 103.273438 289.339844 104.300781 291.226562 105.367188 293.09375 C 105.777344 293.074219 106.183594 293.050781 106.59375 293.03125 C 107.527344 287.203125 108.542969 281.386719 109.371094 275.546875 C 110.089844 270.488281 110.722656 265.40625 111.125 260.316406 C 111.304688 258.070312 112.082031 256.421875 114.234375 256.125 C 116.648438 255.792969 117.046875 258.238281 117.40625 259.71875 C 120.171875 271.132812 124.515625 282.015625 128.34375 293.070312 C 128.535156 293.621094 128.824219 293.710938 129.832031 294.0625 C 130.515625 290.175781 130.03125 286.242188 130.898438 282.46875 C 131.359375 280.445312 131.570312 278.269531 133.554688 277.878906 C 135.464844 277.5 137.300781 278.476562 138.363281 280.75 C 144.242188 293.355469 150.453125 305.804688 156.234375 318.453125 C 160.390625 327.539062 164.980469 336.378906 169.9375 345.046875 Z M 727.859375 330.027344 C 729.050781 331.691406 727.636719 332.597656 726.238281 333.320312 C 717.984375 337.601562 709.839844 342.105469 701.476562 346.160156 C 683.636719 354.804688 666.886719 365.394531 649.46875 374.789062 C 648.371094 375.382812 647.269531 376.402344 646.53125 376.191406 C 644.980469 375.835938 643.714844 376.375 643.574219 375.105469 C 643.417969 373.652344 644.367188 372.917969 645.691406 372.171875 C 653.371094 367.84375 660.84375 363.132812 668.589844 358.925781 C 680.554688 352.4375 692.175781 345.3125 704.550781 339.582031 C 711.09375 336.550781 717.539062 333.292969 723.933594 329.953125 C 725.449219 329.164062 726.839844 328.613281 727.859375 330.027344 Z M 151.128906 179.761719 C 150.6875 177.847656 150.675781 175.945312 152.652344 174.789062 C 154.578125 175.804688 155.964844 176.859375 156.328125 179.042969 C 158.835938 194.242188 163.121094 209.019531 167.183594 223.847656 C 168.289062 227.890625 169.359375 232 171.078125 235.789062 C 171.992188 237.800781 170.867188 239.003906 170.054688 239.488281 C 168.394531 240.480469 167.59375 239.023438 166.9375 237.484375 C 163.074219 228.480469 160.621094 219.03125 158.167969 209.601562 C 155.589844 199.710938 153.417969 189.71875 151.128906 179.761719 Z M 395.660156 382.257812 C 394.300781 382.730469 392.949219 383.871094 391.515625 383.085938 C 390.085938 382.300781 390.054688 380.859375 390.667969 379.765625 C 390.082031 375.613281 392.5625 372.8125 394.066406 369.738281 C 394.773438 368.289062 396.484375 368.453125 397.644531 369.058594 C 399.570312 370.0625 401.757812 371.621094 401.5 373.835938 C 401.191406 376.464844 401.492188 380.175781 397.300781 380.507812 C 395.988281 380.613281 396.511719 381.957031 395.660156 382.257812 Z M 395.660156 382.257812 " fill-opacity="1" fill-rule="nonzero"/></g></svg>