<svg xmlns="http://www.w3.org/2000/svg" xmlns:xlink="http://www.w3.org/1999/xlink" width="1080" zoomAndPan="magnify" viewBox="0 0 810 809.999993" height="1080" preserveAspectRatio="xMidYMid meet" version="1.0"><defs><clipPath id="34ee3e580c"><path d="M 171 77 L 638.867188 77 L 638.867188 733 L 171 733 Z M 171 77 " clip-rule="nonzero"/></clipPath></defs><g clip-path="url(#34ee3e580c)"><path fill="#ffffff" d="M 529.386719 416.839844 C 534.347656 425.652344 539.082031 434.246094 543.492188 443.0625 C 550.761719 457.496094 557.925781 471.929688 565.085938 486.363281 C 567.289062 490.769531 569.050781 495.394531 570.375 500.132812 C 571.695312 504.652344 572.796875 509.167969 574.121094 513.574219 C 576.324219 520.738281 576.105469 528.007812 575.441406 535.28125 C 575.113281 540.019531 574.5625 544.757812 573.570312 549.382812 C 573.238281 550.816406 573.789062 551.476562 575.113281 551.808594 C 583.375 554.230469 590.976562 557.976562 598.46875 562.164062 C 607.285156 567.011719 615.65625 572.519531 623.371094 579.132812 C 626.566406 581.886719 629.320312 584.859375 631.742188 588.277344 C 637.363281 595.988281 639.125 604.582031 637.804688 613.835938 C 636.589844 623.3125 633.066406 632.015625 628.21875 640.28125 C 619.402344 655.59375 609.15625 669.917969 597.808594 683.46875 C 585.027344 698.675781 570.59375 712.007812 554.730469 723.90625 C 551.09375 726.550781 547.347656 729.085938 543.492188 731.289062 C 542.277344 732.058594 540.957031 732.832031 539.304688 732.941406 C 538.972656 732.167969 539.523438 731.730469 539.855469 731.289062 C 542.5 727.761719 545.472656 724.457031 548.890625 721.59375 C 554.066406 717.074219 559.355469 712.667969 564.644531 708.261719 C 578.195312 697.023438 590.207031 684.242188 600.894531 670.25 C 606.511719 662.867188 612.242188 655.375 617.53125 647.664062 C 622.820312 639.949219 627.558594 631.90625 630.3125 622.871094 C 631.742188 618.023438 632.734375 613.175781 632.84375 608.109375 C 633.066406 602.378906 631.523438 597.199219 628.328125 592.351562 C 626.234375 589.269531 623.8125 586.511719 621.167969 583.871094 C 613.675781 576.816406 605.410156 570.976562 596.375 566.019531 C 591.308594 563.265625 586.128906 560.621094 580.953125 557.976562 C 578.75 556.875 576.433594 555.996094 574.011719 555.554688 C 572.246094 555.222656 572.136719 555.222656 571.808594 557.097656 C 570.707031 562.054688 569.601562 566.902344 568.0625 571.640625 C 563.875 585.632812 559.136719 599.515625 552.964844 612.734375 C 552.636719 613.398438 552.414062 614.058594 552.195312 614.71875 C 552.195312 614.828125 552.195312 615.050781 552.195312 615.378906 C 553.847656 615.601562 555.5 615.378906 557.152344 615.820312 C 558.144531 616.152344 559.136719 616.480469 559.90625 617.363281 C 560.570312 618.136719 560.238281 618.90625 559.355469 619.125 C 558.585938 619.238281 557.8125 618.90625 557.042969 618.796875 C 550.871094 617.582031 550.761719 617.582031 548.339844 623.3125 C 543.160156 635.210938 538.203125 647.113281 532.914062 658.902344 C 525.53125 675.207031 517.929688 691.402344 510.4375 707.597656 C 508.011719 712.667969 505.371094 717.734375 502.285156 722.363281 C 501.84375 722.914062 501.511719 723.574219 501.074219 724.125 C 500.523438 724.789062 499.859375 725.226562 498.980469 724.675781 C 498.207031 724.238281 497.988281 723.464844 498.207031 722.582031 C 498.316406 722.03125 498.539062 721.59375 498.757812 721.152344 C 501.625 714.761719 504.378906 708.371094 507.242188 702.089844 C 518.039062 678.734375 528.835938 655.375 539.636719 632.128906 C 546.574219 617.144531 553.515625 602.269531 559.027344 586.734375 C 562.222656 577.808594 564.976562 568.886719 568.171875 559.960938 C 569.714844 555.554688 570.042969 550.816406 570.816406 546.1875 C 571.695312 540.347656 572.246094 534.507812 572.136719 528.558594 C 571.917969 521.066406 570.707031 513.796875 568.28125 506.523438 C 561.339844 485.371094 551.535156 465.425781 541.289062 445.707031 C 536.769531 437 532.253906 428.1875 527.734375 419.375 C 526.742188 417.5 526.742188 417.5 524.761719 418.160156 C 521.566406 419.261719 518.261719 420.363281 515.175781 421.90625 C 512.75 423.121094 510.4375 424.660156 508.675781 426.867188 C 507.351562 428.519531 506.691406 430.390625 506.910156 432.484375 C 507.242188 434.796875 507.460938 437.222656 508.453125 439.425781 C 510.328125 443.832031 510.769531 448.570312 511.648438 453.308594 C 512.53125 458.15625 509.335938 461.902344 505.480469 463.996094 C 502.175781 465.757812 498.429688 466.75 494.570312 466.96875 C 490.164062 467.191406 487.191406 465.316406 485.425781 461.128906 C 483.445312 456.503906 481.128906 452.097656 480.25 447.027344 C 480.027344 445.59375 479.257812 444.164062 478.707031 442.839844 C 477.714844 440.636719 477.714844 440.636719 475.402344 440.96875 C 469.5625 441.738281 463.832031 443.171875 457.992188 444.273438 C 455.347656 444.714844 452.8125 445.15625 450.171875 445.59375 C 449.066406 445.816406 447.964844 446.035156 446.976562 446.585938 C 446.753906 447.359375 447.304688 447.800781 447.636719 448.238281 C 451.382812 454.300781 454.136719 460.800781 457.332031 466.96875 C 464.164062 479.972656 472.316406 492.089844 480.6875 504.101562 C 483.554688 508.285156 486.640625 512.363281 489.171875 516.992188 C 491.046875 516.332031 492.589844 514.789062 494.683594 514.347656 C 494.683594 515.558594 493.800781 516.109375 493.25 516.660156 C 489.171875 521.289062 484.214844 525.035156 479.585938 529.109375 C 472.316406 535.390625 465.042969 541.5625 458.101562 548.28125 C 452.042969 554.230469 445.542969 559.851562 439.261719 565.691406 C 429.347656 575.054688 418.988281 584.089844 410.175781 594.558594 C 406.539062 598.742188 402.351562 602.488281 398.386719 606.347656 C 382.960938 621.550781 368.75 637.96875 354.867188 654.605469 C 342.085938 669.917969 329.855469 685.785156 317.625 701.648438 C 313.769531 706.609375 310.242188 711.675781 306.386719 716.746094 C 305.726562 717.625 305.175781 719.390625 303.632812 718.507812 C 302.421875 717.734375 303.414062 716.195312 303.742188 715.089844 C 304.402344 713.21875 305.285156 711.566406 306.386719 709.914062 C 308.480469 706.71875 310.464844 703.523438 312.777344 700.546875 C 319.058594 692.066406 325.449219 683.582031 331.839844 675.207031 C 338.339844 666.722656 345.5 658.902344 352.441406 650.746094 C 360.59375 641.050781 368.527344 631.136719 377.121094 621.769531 C 389.570312 608.328125 402.792969 595.546875 416.125 582.988281 C 422.183594 577.257812 427.804688 571.308594 433.753906 565.46875 C 434.085938 565.140625 434.523438 564.808594 434.636719 564.039062 C 430.007812 561.0625 426.152344 557.097656 422.625 552.6875 C 421.632812 553.789062 420.753906 554.5625 420.089844 555.445312 C 419.320312 556.433594 418.4375 556.433594 417.558594 555.882812 C 416.34375 555.003906 415.132812 554.230469 413.921875 553.238281 C 401.910156 543.765625 390.675781 533.519531 379.324219 523.269531 C 366.984375 512.144531 354.976562 500.796875 342.195312 490.21875 C 335.695312 484.707031 329.636719 478.648438 323.355469 472.808594 C 315.640625 465.648438 308.148438 458.375 300.4375 451.324219 C 295.257812 446.585938 290.523438 441.296875 285.453125 436.449219 C 280.386719 431.601562 274.765625 427.636719 268.925781 423.78125 C 264.1875 420.695312 258.570312 419.8125 253.0625 419.152344 C 246.449219 418.382812 239.730469 417.71875 233.117188 417.058594 C 225.515625 416.398438 219.125 412.984375 213.726562 407.804688 C 205.242188 399.652344 198.523438 390.285156 193.34375 379.707031 C 190.589844 374.089844 187.0625 368.910156 183.316406 363.953125 C 181.226562 361.199219 179.132812 358.554688 177.039062 355.800781 C 175.714844 354.039062 174.394531 352.273438 172.410156 351.171875 C 171.199219 350.402344 170.867188 349.300781 171.089844 347.976562 C 171.308594 346.65625 171.859375 345.445312 172.410156 344.230469 C 173.953125 340.816406 175.9375 337.730469 178.25 334.867188 C 182.878906 329.027344 187.726562 323.519531 193.234375 318.449219 C 194.667969 317.128906 196.210938 316.136719 198.082031 315.363281 C 199.292969 314.925781 200.285156 314.925781 201.277344 315.585938 C 202.046875 316.136719 202.929688 316.6875 203.703125 317.238281 C 207.558594 320.324219 211.414062 323.40625 215.378906 326.382812 C 217.253906 327.703125 218.796875 329.46875 220.449219 331.011719 C 221.109375 331.671875 221.660156 332.550781 222.761719 332.992188 C 223.3125 330.347656 223.203125 327.703125 222.871094 325.171875 C 221.441406 315.363281 220.558594 305.558594 218.683594 295.863281 C 217.804688 291.015625 218.023438 286.277344 219.566406 281.539062 C 222.320312 272.617188 226.507812 264.351562 230.914062 256.308594 C 237.746094 243.859375 245.898438 232.179688 254.933594 221.273438 C 259.230469 216.09375 263.527344 210.914062 267.824219 205.847656 C 271.128906 201.992188 274.875 198.6875 279.722656 196.921875 C 283.25 195.710938 286.445312 195.601562 289.308594 198.246094 C 290.191406 199.125 291.402344 199.566406 292.394531 200.230469 C 297.023438 203.203125 298.675781 207.058594 297.351562 212.457031 C 297.023438 213.78125 296.582031 215.210938 296.03125 216.425781 C 292.613281 224.6875 291.292969 233.390625 290.191406 242.097656 C 288.867188 252.785156 288.539062 263.582031 289.089844 274.269531 C 289.640625 283.742188 289.972656 293.328125 291.074219 302.695312 C 292.0625 311.507812 293.828125 320.324219 297.464844 328.476562 C 300.65625 335.636719 305.066406 342.136719 310.132812 348.199219 C 319.828125 359.65625 330.738281 369.574219 343.078125 378.167969 C 356.960938 387.863281 370.621094 398.109375 385.496094 406.371094 C 396.625 412.652344 407.53125 419.261719 419.320312 424.332031 C 421.746094 425.433594 424.277344 426.535156 426.921875 427.195312 C 427.253906 426.316406 426.921875 425.652344 426.703125 424.992188 C 422.296875 408.796875 418 392.488281 414.253906 376.074219 C 411.167969 362.410156 407.863281 348.859375 404.667969 335.195312 C 402.902344 327.816406 402.023438 320.324219 400.699219 312.832031 C 398.277344 298.726562 395.523438 284.734375 392.328125 270.851562 C 391.226562 266.003906 390.234375 261.265625 387.808594 256.859375 C 386.15625 253.886719 384.0625 251.351562 381.640625 248.925781 C 375.359375 242.648438 369.078125 236.257812 362.910156 229.867188 C 358.722656 225.570312 355.859375 220.5 353.984375 214.773438 C 352.550781 210.144531 351.890625 205.296875 351.121094 200.558594 C 349.796875 191.414062 349.027344 182.160156 348.695312 172.90625 C 348.367188 164.640625 347.261719 156.378906 348.144531 148.113281 C 348.476562 144.257812 349.027344 140.402344 350.019531 136.65625 C 350.347656 135.332031 351.121094 134.34375 352.113281 133.460938 C 355.195312 130.816406 358.613281 128.941406 362.359375 127.511719 C 370.289062 124.535156 378.445312 122.332031 387.039062 122.332031 C 388.359375 122.332031 389.242188 122.664062 389.902344 123.765625 C 390.234375 124.316406 390.675781 124.976562 391.003906 125.636719 C 394.199219 134.34375 397.945312 142.824219 400.257812 151.75 C 400.699219 153.292969 400.808594 154.835938 401.140625 156.378906 C 402.023438 156.378906 402.242188 155.605469 402.574219 155.164062 C 404.777344 151.96875 406.761719 148.664062 408.300781 145.027344 C 412.378906 135.332031 416.894531 125.859375 421.964844 116.714844 C 424.5 112.085938 428.246094 108.230469 432.980469 105.144531 C 442.898438 98.863281 453.917969 95.230469 464.933594 91.59375 C 478.816406 86.855469 492.808594 82.777344 506.910156 79.03125 C 511.097656 77.929688 515.285156 77.050781 519.691406 77.160156 C 523.328125 77.269531 526.304688 78.921875 528.726562 81.457031 C 528.949219 81.675781 529.167969 82.007812 529.386719 82.335938 C 531.59375 85.972656 530.601562 93.136719 527.40625 96 C 526.082031 97.210938 524.539062 98.09375 522.996094 98.863281 C 517.378906 101.730469 512.199219 105.253906 507.023438 108.671875 C 505.808594 109.441406 504.707031 110.542969 503.605469 111.535156 C 491.816406 122.992188 483.113281 136.546875 476.945312 151.75 C 471.214844 166.183594 466.585938 180.949219 464.050781 196.371094 C 462.949219 202.871094 462.949219 209.261719 464.601562 215.765625 C 466.808594 224.46875 468.460938 233.28125 471.324219 241.765625 C 477.605469 259.945312 484.765625 277.683594 492.808594 295.203125 C 506.800781 325.941406 520.023438 357.121094 531.8125 388.855469 C 534.125 394.914062 536.441406 401.082031 538.3125 407.253906 C 538.644531 408.246094 538.863281 409.347656 539.195312 410.339844 C 539.636719 411.550781 539.195312 412.101562 538.09375 412.542969 C 535.667969 413.421875 533.355469 414.523438 531.039062 415.515625 C 530.601562 415.738281 530.050781 415.957031 529.5 416.179688 Z M 406.539062 423.121094 C 408.523438 424.992188 410.617188 426.535156 413.480469 426.535156 C 411.167969 425.433594 409.074219 423.671875 406.539062 423.121094 C 406.210938 422.238281 405.4375 422.128906 404.777344 421.796875 C 402.351562 420.476562 399.820312 419.152344 397.285156 417.941406 C 396.84375 417.71875 396.292969 417.058594 395.523438 417.609375 C 396.511719 419.261719 397.613281 420.804688 397.613281 422.789062 C 397.613281 424.441406 397.945312 424.550781 399.488281 424.109375 C 400.039062 424 400.699219 423.78125 401.25 423.558594 C 403.015625 422.679688 404.777344 422.566406 406.539062 423.121094 Z M 365.664062 227.664062 C 365.773438 228.65625 366.433594 229.09375 366.875 229.535156 C 370.839844 234.054688 374.808594 238.570312 379.105469 242.757812 C 382.191406 245.84375 385.273438 249.039062 388.03125 252.5625 C 390.453125 255.757812 392.878906 258.953125 393.757812 262.921875 C 395.082031 268.980469 397.175781 274.929688 398.277344 281.097656 C 398.386719 281.871094 398.496094 282.53125 399.15625 283.414062 C 400.480469 280.546875 402.683594 279.226562 405.4375 278.453125 C 404.554688 276.472656 403.34375 274.820312 402.242188 273.167969 C 398.496094 267.328125 397.285156 261.046875 398.828125 254.214844 C 399.046875 253.222656 399.269531 252.34375 399.820312 251.460938 C 400.921875 249.808594 402.683594 249.589844 404.003906 251.132812 C 404.667969 251.902344 405.105469 252.671875 405.546875 253.554688 C 406.648438 255.539062 407.75 257.632812 409.183594 259.394531 C 409.515625 259.835938 409.734375 260.496094 410.617188 260.386719 C 410.394531 258.953125 410.285156 257.632812 410.066406 256.199219 C 409.625 253.222656 410.066406 250.25 410.835938 247.273438 C 411.496094 244.960938 412.820312 242.867188 414.582031 241.324219 C 416.125 240.003906 417.667969 240.445312 418.21875 242.316406 C 418.660156 243.859375 418.769531 245.402344 418.878906 247.054688 C 419.320312 254.988281 421.632812 262.257812 426.042969 268.871094 C 427.804688 271.515625 429.347656 274.269531 431 277.023438 C 431.992188 278.566406 432.761719 280.21875 433.3125 282.089844 C 433.972656 284.625 434.523438 287.269531 433.09375 289.804688 C 432.542969 290.796875 433.09375 291.125 433.753906 291.675781 C 438.492188 295.09375 440.695312 299.941406 440.695312 305.777344 C 440.695312 306.769531 440.695312 307.761719 440.472656 308.644531 C 440.472656 309.523438 440.585938 310.078125 441.246094 310.738281 C 444.882812 313.824219 446.3125 317.789062 445.761719 322.527344 C 445.542969 323.957031 446.09375 324.839844 447.195312 325.613281 C 449.289062 327.042969 450.722656 329.027344 451.824219 331.230469 C 453.804688 335.308594 454.90625 339.714844 455.570312 344.121094 C 455.570312 344.5625 455.570312 345.003906 455.570312 345.445312 C 455.347656 347.316406 454.027344 347.976562 452.375 346.875 C 451.273438 346.105469 450.5 345.003906 449.730469 343.902344 C 448.515625 342.25 447.304688 340.59375 445.652344 339.382812 C 444.109375 338.28125 442.347656 337.730469 440.472656 337.953125 C 439.261719 338.0625 438.492188 338.722656 438.382812 339.933594 C 438.382812 340.59375 438.269531 341.367188 438.382812 342.027344 C 439.042969 347.316406 441.574219 351.503906 446.09375 354.367188 C 448.296875 355.800781 450.609375 356.351562 453.144531 355.691406 C 454.46875 355.359375 455.789062 355.140625 457 355.027344 C 459.203125 355.027344 460.195312 356.460938 459.535156 358.554688 C 459.203125 359.324219 458.765625 360.207031 458.324219 360.867188 C 457.332031 362.632812 456.230469 364.285156 455.128906 366.046875 C 454.6875 366.707031 454.578125 367.039062 455.238281 367.589844 C 460.085938 371.554688 461.960938 377.175781 463.28125 382.902344 C 463.5 383.675781 463.5 384.445312 463.5 385.21875 C 463.5 387.3125 462.070312 388.191406 460.085938 387.3125 C 458.984375 386.761719 457.992188 385.988281 457.222656 384.996094 C 452.59375 379.046875 446.3125 375.082031 440.472656 370.5625 C 439.8125 370.011719 439.042969 369.351562 437.609375 369.351562 C 440.585938 374.089844 442.679688 378.828125 445.652344 383.125 C 447.195312 385.328125 448.957031 387.199219 451.273438 388.632812 C 453.144531 389.84375 455.238281 390.617188 457.332031 390.066406 C 460.96875 388.964844 463.5 389.625 465.152344 393.152344 C 465.707031 394.253906 466.695312 394.914062 468.238281 394.691406 C 470.441406 394.253906 472.207031 395.355469 473.417969 397.117188 C 474.1875 398.21875 474.960938 399.539062 475.621094 400.753906 C 475.953125 401.304688 476.171875 401.964844 476.945312 401.523438 C 479.035156 400.421875 481.351562 400.09375 483.554688 399.101562 C 482.894531 396.457031 482.34375 393.921875 481.792969 391.496094 C 481.679688 390.945312 481.460938 390.285156 481.460938 389.625 C 481.460938 387.863281 482.5625 386.980469 484.214844 387.421875 C 484.65625 387.421875 485.097656 387.640625 485.425781 387.863281 C 487.300781 388.964844 490.054688 387.863281 491.046875 386.320312 C 492.699219 384.003906 492.699219 382.683594 491.046875 380.261719 C 490.714844 379.707031 490.273438 379.269531 490.054688 378.71875 C 489.503906 377.617188 489.613281 376.734375 490.496094 375.851562 C 490.9375 375.410156 491.375 374.972656 491.925781 374.640625 C 494.570312 372.65625 495.785156 369.902344 496.113281 366.707031 C 496.222656 365.496094 496.335938 364.285156 496.445312 363.070312 C 496.664062 360.425781 495.5625 356.019531 494.132812 353.488281 C 493.691406 354.039062 493.691406 354.589844 493.582031 355.25 C 493.359375 359.546875 491.707031 363.292969 489.285156 366.707031 C 487.628906 369.023438 486.859375 371.554688 486.640625 374.308594 C 486.640625 375.851562 486.308594 377.285156 486.199219 378.828125 C 486.199219 379.707031 485.867188 380.371094 484.988281 380.699219 C 483.996094 381.140625 483.222656 380.699219 482.671875 379.929688 C 481.792969 379.046875 481.128906 377.945312 480.6875 376.84375 C 479.148438 373.429688 478.597656 369.792969 479.035156 366.046875 C 479.257812 363.734375 479.808594 361.417969 480.359375 358.664062 C 478.816406 358.664062 477.382812 358.664062 476.0625 358.664062 C 472.09375 358.335938 469.5625 356.128906 468.898438 352.496094 C 468.347656 349.742188 470.554688 347.757812 473.085938 348.636719 C 474.960938 349.300781 475.070312 349.300781 475.621094 347.425781 C 476.503906 344.671875 476.503906 341.917969 476.945312 339.054688 C 477.714844 333.324219 474.851562 329.136719 471.433594 325.171875 C 470.664062 325.722656 470.554688 326.382812 470.332031 327.042969 C 469.121094 330.347656 468.679688 333.65625 468.789062 337.179688 C 468.789062 338.28125 468.570312 339.382812 467.359375 339.714844 C 466.144531 340.15625 465.15625 339.605469 464.382812 338.613281 C 463.832031 337.953125 463.28125 337.179688 462.839844 336.519531 C 458.652344 330.238281 456.558594 323.40625 458.542969 315.804688 C 458.875 314.703125 458.652344 314.042969 457.773438 313.269531 C 454.027344 309.964844 452.042969 305.777344 451.824219 300.820312 C 451.824219 299.941406 451.601562 299.390625 450.722656 298.949219 C 448.515625 297.734375 447.195312 295.753906 446.425781 293.4375 C 444.882812 288.921875 444.769531 284.40625 447.085938 280.109375 C 447.746094 278.785156 447.964844 278.015625 446.535156 277.132812 C 443.558594 275.261719 442.015625 272.285156 440.695312 269.199219 C 439.484375 266.003906 439.152344 262.699219 438.710938 259.394531 C 437.941406 252.894531 437.5 246.171875 434.636719 240.113281 C 434.195312 239.230469 433.972656 238.238281 434.085938 237.25 C 434.085938 235.042969 435.625 233.832031 437.832031 234.382812 C 439.152344 234.714844 440.363281 235.265625 441.355469 236.035156 C 442.898438 237.136719 444.441406 238.351562 445.433594 239.894531 C 445.984375 239.5625 445.875 239.230469 445.875 239.011719 C 445.875 237.46875 446.09375 236.148438 447.527344 235.375 C 449.066406 234.605469 450.390625 235.265625 451.710938 236.035156 C 453.035156 236.917969 454.027344 238.128906 454.90625 239.453125 C 458.101562 244.300781 459.644531 249.808594 460.527344 255.539062 C 460.855469 258.183594 460.746094 260.9375 460.527344 263.910156 C 466.476562 261.929688 471.214844 263.691406 475.402344 267.878906 C 475.730469 266.996094 475.289062 266.335938 475.070312 265.675781 C 472.425781 258.402344 469.671875 251.128906 467.027344 243.859375 C 463.390625 233.832031 461.078125 223.476562 459.976562 212.789062 C 458.984375 202.871094 460.527344 193.066406 462.730469 183.480469 C 465.925781 169.378906 470.992188 156.046875 477.382812 143.046875 C 477.824219 142.054688 478.707031 141.0625 478.597656 140.179688 C 478.597656 139.078125 476.832031 138.96875 476.0625 138.089844 C 476.0625 138.089844 475.730469 138.089844 475.511719 138.089844 C 473.527344 139.960938 471.984375 142.164062 470.222656 144.257812 C 467.578125 147.5625 464.492188 150.207031 460.859375 152.300781 C 458.324219 153.84375 455.570312 154.835938 452.59375 154.503906 C 448.957031 154.0625 448.957031 153.953125 447.304688 157.257812 C 446.644531 158.691406 445.984375 160.125 445.324219 161.554688 C 443.890625 164.53125 442.566406 167.617188 440.914062 170.589844 C 434.855469 181.609375 427.472656 191.632812 418.328125 200.339844 C 413.921875 204.527344 409.402344 208.382812 404.226562 211.355469 C 399.488281 214.109375 394.75 216.867188 390.011719 219.398438 C 382.410156 223.476562 374.367188 226.5625 365.554688 227.773438 Z M 285.234375 275.589844 C 282.917969 275.589844 280.9375 276.472656 278.734375 276.914062 C 277.960938 277.023438 277.960938 277.792969 277.960938 278.453125 C 277.960938 280.4375 278.183594 282.3125 277.960938 284.292969 C 277.300781 292.335938 274.214844 299.167969 267.382812 303.796875 C 265.511719 305.117188 265.070312 306.332031 265.402344 308.421875 C 265.953125 312.28125 266.503906 316.136719 266.945312 319.992188 C 268.15625 331.5625 267.273438 343.019531 265.621094 354.476562 C 264.519531 362.082031 262.207031 369.351562 260.113281 376.734375 C 257.796875 384.996094 254.382812 392.820312 249.316406 399.871094 C 246.007812 404.390625 243.253906 409.347656 239.621094 413.535156 C 240.058594 414.085938 240.5 414.085938 240.941406 414.085938 C 244.46875 414.523438 247.992188 414.855469 251.410156 415.296875 C 260.554688 416.289062 268.816406 419.261719 276.089844 425.101562 C 281.707031 429.507812 287.105469 434.246094 292.285156 439.09375 C 293.496094 440.195312 294.707031 441.296875 296.25 442.730469 C 296.140625 440.746094 296.25 439.425781 296.800781 438.101562 C 297.351562 436.78125 298.675781 436.230469 299.554688 435.019531 C 298.234375 434.355469 296.910156 433.917969 295.808594 433.253906 C 289.640625 429.730469 284.242188 425.542969 281.488281 418.601562 C 281.046875 417.5 280.054688 416.289062 281.15625 415.1875 C 282.367188 413.863281 283.582031 415.074219 284.792969 415.628906 C 287.988281 417.167969 291.292969 417.941406 294.820312 418.160156 C 291.402344 415.847656 288.539062 412.984375 286.554688 409.457031 C 285.675781 407.804688 285.011719 406.152344 284.902344 404.167969 C 284.902344 403.175781 284.570312 402.074219 285.675781 401.632812 C 286.664062 401.195312 287.546875 401.855469 288.207031 402.515625 C 290.191406 404.5 292.394531 405.929688 294.820312 407.363281 C 297.683594 409.125 300.769531 410.339844 303.964844 411.550781 C 309.253906 413.753906 314.429688 416.179688 319.386719 418.933594 C 323.246094 421.027344 326.769531 423.558594 328.203125 427.96875 C 328.421875 428.738281 328.863281 428.847656 329.636719 428.628906 C 332.832031 427.417969 335.472656 428.738281 337.898438 430.722656 C 340.324219 432.816406 342.304688 435.347656 343.847656 438.101562 C 344.621094 439.425781 345.390625 440.195312 347.042969 440.527344 C 351.671875 441.1875 354.976562 443.722656 356.738281 448.128906 C 357.070312 449.121094 357.621094 449.453125 358.722656 449.453125 C 362.136719 449.339844 365.113281 450.445312 367.867188 452.316406 C 371.394531 454.628906 374.585938 457.496094 377.34375 460.691406 C 378.003906 461.460938 378.554688 462.34375 377.894531 463.335938 C 377.34375 464.214844 376.351562 464.214844 375.46875 463.996094 C 373.925781 463.664062 372.382812 463.113281 370.839844 462.785156 C 368.859375 462.34375 366.875 461.792969 364.890625 462.453125 C 361.585938 463.445312 360.925781 465.648438 363.238281 468.183594 C 366.542969 471.929688 370.953125 473.691406 375.800781 474.023438 C 378.882812 474.242188 381.640625 473.582031 382.742188 470.164062 C 382.742188 470.054688 382.960938 469.835938 382.960938 469.726562 C 384.0625 467.960938 385.386719 467.742188 386.929688 469.171875 C 388.910156 471.15625 390.011719 473.472656 389.351562 476.335938 C 389.132812 477.214844 389.019531 478.207031 388.800781 479.199219 C 391.996094 478.757812 394.859375 479.199219 397.503906 480.523438 C 401.691406 482.617188 405.105469 485.589844 408.300781 488.894531 C 409.074219 489.667969 409.515625 490.546875 408.964844 491.539062 C 408.414062 492.640625 407.3125 492.753906 406.207031 492.53125 C 404.777344 492.3125 403.566406 491.648438 402.351562 490.988281 C 399.378906 489.335938 396.183594 488.894531 392.878906 489.558594 C 388.140625 490.546875 383.402344 491.761719 378.332031 490.878906 C 381.527344 493.082031 384.722656 494.957031 388.359375 496.058594 C 392.546875 497.269531 396.292969 496.828125 399.269531 493.082031 C 400.921875 490.988281 401.800781 491.097656 403.785156 492.972656 C 405.328125 494.40625 407.089844 495.394531 409.074219 495.835938 C 410.835938 496.277344 411.71875 495.835938 412.488281 494.183594 C 412.710938 493.742188 412.820312 493.304688 413.039062 492.972656 C 413.8125 491.429688 414.804688 490.878906 416.457031 491.320312 C 417.335938 491.539062 418.109375 491.980469 418.878906 492.3125 C 420.640625 493.082031 422.296875 493.855469 424.167969 494.734375 C 423.835938 491.320312 424.167969 490.988281 427.363281 490.660156 C 429.015625 490.4375 430.777344 490.328125 432.429688 489.335938 C 430.777344 486.800781 429.898438 483.9375 427.582031 481.734375 C 426.152344 480.410156 426.371094 478.871094 427.695312 477.21875 C 428.796875 475.894531 429.675781 474.574219 430.339844 472.917969 C 431.550781 469.726562 429.675781 466.53125 426.261719 466.089844 C 423.398438 465.757812 423.066406 465.425781 423.285156 462.453125 C 423.285156 462.011719 423.285156 461.570312 423.507812 461.128906 C 424.609375 455.070312 422.40625 450.222656 418.21875 446.148438 C 416.785156 444.714844 414.914062 443.613281 412.820312 443.171875 C 412.710938 444.492188 413.371094 445.265625 413.8125 446.035156 C 415.132812 448.570312 416.34375 451.105469 417.117188 453.859375 C 418.550781 459.039062 419.761719 464.214844 422.625 468.953125 C 423.726562 470.714844 422.847656 472.039062 420.753906 472.148438 C 418.21875 472.367188 416.125 471.707031 414.363281 469.726562 C 410.945312 465.648438 408.851562 460.910156 407.089844 456.0625 C 406.871094 455.402344 406.980469 454.628906 406.097656 454.300781 C 402.683594 456.613281 398.605469 457.382812 394.859375 458.707031 C 393.648438 459.148438 392.328125 459.699219 391.113281 458.707031 C 389.792969 457.605469 390.234375 456.171875 390.5625 454.742188 C 390.785156 454.078125 391.003906 453.417969 391.226562 452.757812 C 391.554688 451.984375 391.664062 451.214844 391.664062 450.445312 C 392.214844 444.492188 390.121094 439.757812 385.605469 436.011719 C 383.84375 434.46875 381.859375 434.136719 380.539062 434.910156 C 379.214844 435.789062 378.882812 437.550781 379.65625 439.976562 C 380.539062 442.839844 382.078125 445.265625 384.285156 447.25 C 384.945312 447.800781 385.605469 448.570312 384.945312 449.5625 C 384.394531 450.332031 383.511719 450.113281 382.742188 450.003906 C 382.519531 450.003906 382.191406 450.003906 381.96875 449.894531 C 378.445312 449.011719 375.027344 447.6875 372.054688 445.59375 C 368.085938 442.730469 364.011719 439.757812 364.339844 433.917969 C 363.570312 433.476562 362.910156 433.695312 362.136719 433.804688 C 355.96875 434.136719 352.992188 431.382812 351.78125 426.867188 C 351.78125 426.867188 351.78125 426.644531 351.78125 426.644531 C 351.78125 425.652344 351.230469 425.210938 350.238281 425.324219 C 349.578125 425.324219 349.027344 425.324219 348.367188 425.324219 C 341.09375 424.332031 336.796875 422.128906 334.921875 413.535156 C 334.703125 412.433594 334.484375 411.332031 334.261719 410.117188 C 332.5 410.339844 330.847656 410.339844 329.195312 409.789062 C 325.339844 408.574219 322.03125 406.480469 319.71875 403.066406 C 317.957031 400.421875 315.863281 398 314.101562 395.355469 C 311.566406 391.496094 307.820312 389.957031 303.632812 388.742188 C 302.863281 388.523438 302.089844 388.414062 301.320312 388.191406 C 299.554688 387.753906 299.335938 387.3125 299.886719 385.546875 C 300.21875 384.445312 300.878906 383.675781 301.871094 383.125 C 302.972656 382.464844 304.292969 382.132812 305.617188 381.800781 C 308.371094 381.140625 311.015625 381.691406 313.988281 382.132812 C 312.445312 380.371094 310.792969 379.269531 309.253906 378.167969 C 308.371094 377.503906 307.597656 376.734375 307.820312 375.523438 C 308.039062 374.199219 309.140625 373.980469 310.242188 373.757812 C 314.871094 372.878906 319.386719 373.539062 323.574219 375.742188 C 327.761719 377.945312 331.066406 380.921875 333.820312 384.667969 C 334.8125 386.097656 335.804688 387.53125 336.90625 389.074219 C 337.679688 387.863281 338.117188 386.761719 338.890625 385.769531 C 339.660156 384.886719 341.09375 384.667969 341.753906 383.566406 C 340.875 382.902344 340.101562 382.242188 339.332031 381.691406 C 326.992188 372.988281 315.972656 362.960938 306.167969 351.503906 C 300.4375 344.890625 295.921875 337.621094 292.726562 329.46875 C 290.300781 323.519531 288.757812 317.457031 287.765625 311.179688 C 286.335938 301.703125 285.453125 292.117188 285.234375 282.53125 C 285.234375 280.328125 285.234375 278.125 284.902344 275.8125 Z M 285.234375 418.820312 C 288.648438 424.773438 293.167969 429.398438 299.554688 432.042969 C 301.648438 432.816406 303.742188 433.476562 305.835938 434.136719 C 306.71875 434.46875 307.488281 434.910156 307.378906 436.011719 C 307.269531 437.113281 306.386719 437.441406 305.394531 437.332031 C 304.074219 437.113281 302.75 437.664062 301.539062 437.992188 C 299.886719 438.542969 299.117188 439.757812 299.335938 441.410156 C 299.335938 442.070312 299.667969 442.839844 299.996094 443.390625 C 301.980469 446.808594 304.734375 449.5625 308.148438 451.433594 C 310.464844 452.648438 312.886719 452.757812 315.203125 451.65625 C 316.191406 451.214844 317.183594 450.773438 318.175781 450.445312 C 322.914062 449.121094 326.769531 452.207031 326.550781 457.054688 C 326.441406 459.917969 326.550781 459.917969 329.304688 460.25 C 330.074219 460.25 330.847656 460.46875 331.617188 460.46875 C 335.472656 460.46875 338.78125 461.902344 341.753906 464.324219 C 342.636719 465.097656 344.289062 465.539062 343.738281 467.082031 C 343.1875 468.621094 341.644531 467.960938 340.433594 467.851562 C 339.21875 467.851562 338.007812 467.742188 336.796875 468.070312 C 334.59375 468.734375 334.152344 469.945312 335.253906 471.816406 C 335.804688 472.808594 336.578125 473.691406 337.566406 474.351562 C 341.425781 476.886719 345.609375 478.320312 350.238281 477.878906 C 351.339844 477.878906 352.332031 477.65625 353.433594 477.65625 C 355.96875 477.65625 357.398438 479.199219 357.511719 481.625 C 357.511719 482.945312 357.511719 484.378906 356.847656 485.480469 C 355.746094 487.242188 356.628906 488.34375 357.839844 489.558594 C 360.816406 492.199219 363.460938 495.175781 365.773438 498.371094 C 367.867188 501.125 369.300781 504.101562 369.628906 507.515625 C 369.738281 509.5 370.621094 510.710938 372.054688 511.921875 C 383.734375 521.839844 395.410156 531.863281 405.988281 542.882812 C 406.210938 543.101562 406.539062 543.324219 406.761719 543.542969 C 414.363281 531.863281 423.949219 522.167969 436.726562 515.890625 C 435.074219 514.125 433.863281 512.472656 433.972656 510.050781 C 434.085938 507.183594 433.972656 507.074219 431.441406 506.082031 C 430.777344 505.863281 430.117188 505.644531 429.457031 505.3125 C 428.132812 504.652344 426.371094 503.878906 426.152344 502.449219 C 425.601562 499.363281 423.398438 498.371094 420.972656 497.160156 C 419.980469 496.71875 419.210938 495.945312 418.328125 495.394531 C 417.667969 494.957031 417.007812 494.292969 416.125 494.074219 C 415.683594 494.292969 415.574219 494.625 415.464844 494.957031 C 413.699219 498.480469 410.617188 499.582031 407.089844 498.039062 C 405.769531 497.488281 404.335938 496.71875 403.234375 495.835938 C 402.023438 494.84375 401.359375 495.175781 400.480469 496.167969 C 397.726562 499.472656 394.089844 500.242188 390.011719 499.472656 C 388.140625 499.140625 386.375 498.589844 384.722656 497.820312 C 380.316406 495.945312 376.460938 493.191406 372.382812 490.660156 C 372.054688 490.4375 371.722656 490.109375 371.394531 489.777344 C 370.953125 489.226562 370.839844 488.453125 371.171875 487.792969 C 371.503906 487.023438 372.164062 486.800781 372.933594 486.914062 C 373.597656 486.914062 374.367188 487.023438 375.027344 487.242188 C 380.316406 488.453125 385.605469 488.453125 390.894531 486.800781 C 394.199219 485.8125 397.503906 485.921875 400.808594 486.914062 C 401.472656 487.132812 402.132812 487.242188 403.125 487.464844 C 402.023438 486.03125 400.699219 485.371094 399.378906 484.597656 C 395.632812 482.394531 391.777344 480.632812 387.148438 482.285156 C 385.164062 483.054688 383.953125 481.625 384.613281 479.421875 C 384.945312 478.097656 385.714844 476.996094 386.046875 475.675781 C 386.375 474.460938 386.265625 473.359375 385.273438 472.148438 C 383.621094 476.554688 380.207031 477.214844 376.351562 477.214844 C 375.140625 477.214844 373.925781 477.105469 372.714844 476.886719 C 367.207031 476.113281 362.796875 473.25 359.492188 468.84375 C 356.628906 464.988281 357.839844 460.910156 362.246094 458.816406 C 364.011719 458.046875 365.773438 457.824219 367.648438 457.824219 C 368.308594 457.824219 369.078125 458.265625 369.628906 457.273438 C 366.433594 454.410156 362.796875 452.316406 358.613281 452.097656 C 356.078125 451.984375 354.867188 451.105469 353.984375 448.789062 C 352.773438 445.265625 350.019531 443.28125 346.382812 443.0625 C 343.628906 442.953125 342.195312 441.738281 341.09375 439.535156 C 339.660156 436.671875 337.679688 434.246094 335.035156 432.265625 C 333.382812 431.050781 331.617188 430.609375 329.636719 431.601562 C 327.101562 432.816406 326.441406 432.484375 325.667969 429.839844 C 324.898438 427.085938 323.246094 424.992188 320.929688 423.449219 C 319.609375 422.566406 318.285156 421.6875 316.855469 420.914062 C 313.4375 419.042969 309.914062 417.5 306.277344 416.066406 C 301.980469 414.304688 297.902344 411.882812 293.71875 409.898438 C 291.734375 408.90625 290.082031 407.363281 287.988281 405.601562 C 288.980469 408.023438 290.082031 409.457031 291.402344 410.890625 C 294.269531 414.085938 297.574219 416.617188 301.320312 418.710938 C 302.972656 419.59375 304.515625 420.585938 305.835938 421.796875 C 306.386719 422.347656 306.609375 423.007812 306.386719 423.671875 C 306.058594 424.441406 305.394531 424.550781 304.625 424.550781 C 303.414062 424.550781 302.421875 424.109375 301.320312 423.671875 C 296.03125 421.464844 290.300781 420.695312 284.902344 418.710938 Z M 240.171875 324.289062 C 240.28125 331.121094 239.949219 337.070312 238.628906 343.019531 C 235.101562 358.664062 229.042969 373.207031 220.117188 386.539062 C 217.582031 390.285156 215.160156 394.03125 212.625 397.667969 C 211.855469 398.660156 211.964844 399.320312 212.847656 400.09375 C 215.269531 402.625 217.914062 405.050781 220.777344 407.03125 C 224.304688 409.347656 223.09375 409.457031 226.398438 406.59375 C 229.484375 403.949219 231.796875 400.53125 234.109375 397.226562 C 244.578125 381.800781 252.839844 365.386719 255.15625 346.546875 C 255.925781 340.265625 256.144531 333.875 255.59375 327.59375 C 255.15625 322.527344 253.832031 317.679688 253.0625 312.71875 C 252.511719 308.863281 251.519531 305.117188 252.070312 301.152344 C 252.398438 299.058594 253.28125 297.515625 255.15625 296.632812 C 256.367188 296.082031 257.578125 295.53125 258.789062 294.980469 C 264.410156 292.558594 267.273438 288.261719 267.605469 282.3125 C 267.824219 278.675781 267.605469 275.148438 267.164062 271.515625 C 266.945312 270.082031 266.945312 268.648438 267.164062 267.328125 C 267.382812 264.902344 268.597656 263.691406 271.019531 263.25 C 271.792969 263.140625 272.5625 263.03125 273.332031 263.140625 C 276.75 263.359375 280.164062 262.917969 283.582031 262.480469 C 285.121094 262.257812 285.453125 261.707031 285.453125 260.277344 C 285.675781 255.980469 285.785156 251.683594 286.335938 247.382812 C 287.765625 236.585938 289.75 225.789062 293.386719 215.433594 C 294.046875 213.558594 294.378906 211.578125 294.378906 209.484375 C 294.378906 208.601562 294.269531 207.71875 293.828125 206.949219 C 292.945312 205.296875 290.410156 204.304688 289.308594 205.1875 C 281.15625 211.355469 273.332031 217.96875 267.164062 226.230469 C 259.339844 236.699219 252.179688 247.605469 246.007812 259.0625 C 238.957031 272.066406 235.875 285.726562 238.1875 300.492188 C 239.398438 308.535156 240.058594 316.796875 240.171875 324.070312 Z M 451.050781 338.503906 C 449.949219 333.542969 448.078125 329.796875 444.21875 327.265625 C 442.679688 326.273438 442.238281 324.949219 442.347656 323.296875 C 442.457031 322.085938 442.457031 320.875 442.347656 319.660156 C 442.015625 316.90625 440.914062 314.484375 438.382812 313.160156 C 436.289062 312.058594 435.738281 310.515625 436.066406 308.421875 C 436.175781 307.652344 436.398438 306.882812 436.507812 306.109375 C 437.167969 301.261719 435.40625 297.183594 431.441406 294.320312 C 429.347656 292.777344 428.683594 291.125 429.457031 288.703125 C 430.226562 286.277344 429.898438 283.964844 428.574219 281.871094 C 426.371094 278.34375 424.277344 274.820312 421.964844 271.402344 C 419.429688 267.769531 417.777344 263.910156 417.226562 259.503906 C 417.007812 258.070312 416.785156 256.53125 416.566406 255.097656 C 416.234375 252.671875 415.792969 250.140625 415.464844 247.605469 C 414.804688 248.15625 414.691406 248.816406 414.472656 249.367188 C 413.371094 253.886719 413.589844 258.292969 414.691406 262.699219 C 415.023438 264.242188 415.464844 265.785156 415.792969 267.328125 C 416.015625 268.320312 415.792969 269.308594 414.804688 269.859375 C 413.8125 270.410156 412.820312 270.191406 412.160156 269.421875 C 411.386719 268.648438 410.507812 267.769531 409.84375 266.886719 C 407.3125 263.582031 404.667969 260.277344 402.574219 256.640625 C 401.800781 264.132812 403.125 270.964844 408.191406 276.691406 C 408.523438 277.132812 408.964844 277.464844 409.292969 277.792969 C 410.835938 279.558594 410.507812 280.988281 408.191406 281.761719 C 407.3125 282.089844 406.320312 282.3125 405.328125 282.421875 C 403.34375 282.753906 402.023438 283.964844 401.140625 285.726562 C 400.148438 287.710938 399.820312 289.691406 400.257812 291.898438 C 400.589844 293.550781 400.808594 295.203125 401.25 296.855469 C 402.902344 302.914062 405.328125 304.675781 410.394531 305.78125 C 411.386719 306 412.488281 306.109375 413.480469 306.441406 C 415.683594 307.101562 416.785156 308.753906 416.457031 311.066406 C 416.34375 312.058594 415.90625 313.050781 415.683594 314.152344 C 415.132812 316.464844 415.464844 317.570312 417.445312 318.890625 C 418.550781 319.660156 419.761719 320.324219 420.421875 321.535156 C 422.074219 324.507812 423.285156 327.816406 424.277344 331.011719 C 424.828125 332.773438 423.398438 334.09375 421.632812 333.765625 C 420.640625 333.542969 419.652344 333.105469 418.660156 332.773438 C 416.125 332 415.355469 332.441406 415.132812 334.976562 C 414.472656 340.925781 416.234375 345.882812 421.414062 349.410156 C 422.625 350.179688 423.949219 351.0625 425.050781 351.945312 C 426.261719 352.824219 426.8125 354.039062 426.371094 355.691406 C 426.042969 357.234375 425.820312 358.773438 425.710938 360.429688 C 424.9375 367.480469 423.507812 374.308594 420.753906 380.8125 C 420.089844 382.351562 419.980469 383.785156 420.421875 385.328125 C 422.515625 393.371094 424.609375 401.523438 426.480469 409.675781 C 427.804688 415.296875 429.125 420.804688 430.667969 426.3125 C 431.21875 428.078125 431.21875 427.96875 432.980469 427.527344 C 439.371094 425.984375 445.875 424.660156 452.484375 424.109375 C 458.214844 423.558594 463.941406 423.78125 469.671875 423.558594 C 472.425781 423.558594 472.425781 423.449219 472.535156 420.695312 C 472.535156 419.484375 473.085938 418.382812 473.199219 417.058594 C 472.867188 416.949219 472.648438 416.839844 472.425781 416.730469 C 468.347656 415.515625 467.136719 413.09375 468.460938 409.125 C 469.339844 406.59375 470.664062 404.390625 473.199219 403.066406 C 472.425781 401.523438 471.875 400.203125 471.214844 398.878906 C 470.664062 397.886719 470.003906 397.117188 468.679688 397.558594 C 466.035156 398.4375 464.273438 397.007812 463.171875 395.023438 C 461.960938 392.710938 460.417969 392.710938 458.214844 393.261719 C 454.6875 394.140625 451.492188 393.589844 448.40625 391.386719 C 445.542969 389.292969 443.117188 386.980469 441.464844 383.894531 C 439.042969 379.269531 436.617188 374.75 434.195312 370.125 C 433.535156 368.800781 432.871094 367.367188 434.195312 365.9375 C 435.1875 364.835938 436.726562 364.726562 438.601562 365.605469 C 438.820312 365.605469 439.042969 365.828125 439.261719 365.9375 C 446.09375 370.453125 453.253906 374.53125 458.765625 380.699219 C 458.984375 380.921875 459.203125 381.472656 459.867188 381.140625 C 458.214844 376.515625 456.230469 372.21875 451.492188 369.792969 C 451.273438 369.683594 451.050781 369.574219 450.832031 369.351562 C 449.621094 368.25 449.398438 366.929688 450.5 365.605469 C 451.050781 364.945312 451.824219 364.394531 452.484375 363.84375 C 454.136719 362.191406 455.789062 360.539062 456.671875 358.113281 C 456.007812 358.113281 455.679688 358.113281 455.347656 358.335938 C 450.832031 360.207031 446.753906 359.214844 443.007812 356.242188 C 442.457031 355.800781 441.796875 355.46875 441.355469 355.027344 C 436.726562 351.28125 434.636719 346.214844 434.636719 340.484375 C 434.636719 336.1875 437.390625 333.65625 441.6875 333.875 C 443.78125 333.875 445.652344 334.644531 447.304688 335.859375 C 448.40625 336.628906 449.507812 337.621094 451.050781 338.722656 Z M 485.757812 128.390625 C 487.300781 126.1875 488.84375 124.316406 490.164062 122.222656 C 496.226562 113.1875 504.488281 106.578125 513.742188 101.066406 C 517.488281 98.863281 521.234375 96.769531 524.871094 94.347656 C 526.191406 93.464844 526.742188 92.363281 527.074219 90.929688 C 527.296875 89.941406 527.074219 89.277344 525.972656 88.949219 C 522.667969 88.066406 519.472656 87.296875 516.058594 87.847656 C 513.742188 88.175781 511.539062 88.507812 509.335938 89.058594 C 487.628906 94.347656 467.46875 103.492188 448.1875 114.730469 C 441.90625 118.367188 436.949219 123.324219 432.980469 129.492188 C 429.125 135.554688 424.9375 141.503906 420.972656 147.5625 C 414.804688 157.148438 406.871094 165.082031 398.164062 172.351562 C 389.792969 179.40625 380.539062 185.246094 371.171875 190.863281 C 366.324219 193.839844 361.695312 197.363281 355.96875 198.574219 C 355.304688 198.6875 354.867188 199.015625 354.976562 199.789062 C 355.96875 205.078125 357.070312 210.253906 358.613281 215.433594 C 358.941406 216.535156 359.714844 216.535156 360.707031 216.535156 C 365.113281 216.425781 369.1875 215.542969 373.265625 213.78125 C 380.757812 210.695312 387.917969 207.058594 394.859375 202.761719 C 414.582031 190.53125 428.355469 173.457031 436.839844 151.96875 C 437.609375 150.097656 438.492188 148.222656 439.484375 146.460938 C 441.578125 142.9375 444.441406 141.394531 448.515625 142.164062 C 448.847656 142.164062 449.179688 142.164062 449.621094 142.164062 C 457.332031 142.386719 463.5 139.628906 467.46875 132.578125 C 468.789062 130.15625 470.222656 127.839844 471.765625 125.636719 C 474.960938 120.679688 478.597656 120.347656 482.78125 124.535156 C 483.882812 125.636719 484.546875 126.960938 485.976562 128.0625 Z M 483.664062 373.097656 C 483.882812 372.328125 483.996094 371.554688 484.214844 370.785156 C 484.765625 368.140625 485.867188 365.828125 487.410156 363.621094 C 490.9375 358.886719 492.257812 353.597656 491.375 347.648438 C 491.375 347.207031 491.265625 346.765625 491.15625 346.324219 C 491.15625 345.664062 491.265625 345.113281 491.925781 344.78125 C 492.589844 344.5625 493.140625 344.890625 493.46875 345.445312 C 493.691406 345.773438 493.800781 346.105469 494.019531 346.324219 C 497.214844 351.722656 498.980469 357.5625 499.308594 363.84375 C 499.53125 368.691406 498.648438 373.207031 494.460938 376.292969 C 494.242188 376.402344 494.019531 376.625 493.800781 376.84375 C 493.03125 377.394531 493.03125 377.945312 493.582031 378.605469 C 493.910156 379.046875 494.132812 379.488281 494.351562 380.039062 C 497.214844 385.878906 492.699219 390.175781 488.84375 391.058594 C 487.628906 391.386719 486.417969 390.835938 485.097656 390.945312 C 485.648438 393.371094 486.089844 395.574219 486.527344 397.886719 C 486.75 398.769531 487.300781 398.660156 487.960938 398.660156 C 489.503906 398.660156 490.9375 398.550781 492.480469 398.660156 C 494.351562 398.878906 495.011719 399.871094 494.683594 401.746094 C 494.460938 402.625 494.132812 403.398438 494.019531 404.277344 C 493.46875 407.144531 494.570312 409.238281 497.328125 410.226562 C 498.207031 410.558594 499.089844 411 499.75 411.660156 C 500.523438 412.433594 501.074219 412.320312 501.734375 411.660156 C 501.953125 411.441406 502.285156 411.21875 502.613281 411 C 510.878906 405.050781 519.140625 399.320312 529.277344 396.898438 C 530.160156 396.675781 530.488281 396.234375 530.160156 395.355469 C 529.828125 394.363281 529.386719 393.371094 529.058594 392.378906 C 525.640625 383.785156 522.117188 375.191406 518.699219 366.707031 C 516.71875 361.859375 514.734375 356.902344 512.75 352.054688 C 512.421875 351.28125 512.3125 350.402344 511.097656 350.292969 C 508.785156 350.070312 507.351562 348.527344 506.03125 346.765625 C 504.046875 344.230469 502.945312 341.367188 502.285156 338.390625 C 501.734375 335.859375 500.191406 334.207031 497.65625 333.542969 C 495.5625 332.992188 493.691406 332.113281 491.816406 331.121094 C 490.273438 330.347656 490.273438 329.246094 491.816406 328.367188 C 495.121094 326.601562 495.894531 323.628906 495.785156 320.324219 C 495.785156 317.015625 494.792969 313.710938 493.25 310.628906 C 491.925781 308.09375 490.496094 305.667969 488.070312 304.015625 C 485.757812 302.363281 484.546875 302.695312 483.332031 305.339844 C 483.222656 305.558594 483.113281 305.890625 483.003906 306.109375 C 482.671875 306.992188 482.453125 308.09375 481.128906 307.984375 C 479.917969 307.984375 479.585938 306.882812 479.257812 306 C 479.148438 305.449219 478.925781 305.007812 478.816406 304.457031 C 478.15625 301.59375 478.597656 298.726562 479.148438 295.863281 C 479.585938 293.878906 479.585938 293.878906 477.714844 293.21875 C 474.1875 291.898438 470.882812 286.277344 474.410156 282.640625 C 475.621094 281.429688 475.839844 279.777344 475.839844 278.015625 C 475.621094 273.386719 473.308594 269.972656 469.453125 267.65625 C 466.917969 266.113281 464.164062 265.785156 461.410156 267.4375 C 460.855469 267.769531 460.195312 268.207031 459.535156 268.320312 C 458.214844 268.757812 457.222656 268.207031 456.890625 266.886719 C 456.78125 266.335938 456.671875 265.675781 456.78125 265.011719 C 457.773438 259.175781 456.230469 253.664062 454.796875 248.046875 C 454.027344 245.179688 452.484375 242.648438 450.609375 240.222656 C 450.058594 240.773438 450.28125 241.214844 450.28125 241.546875 C 450.722656 244.851562 450.832031 248.265625 450.941406 251.570312 C 450.941406 252.5625 450.941406 253.554688 450.832031 254.4375 C 450.722656 255.539062 450.058594 256.199219 448.957031 256.417969 C 447.855469 256.640625 447.085938 256.089844 446.644531 255.097656 C 446.3125 254.4375 445.984375 253.664062 445.761719 252.894531 C 445.210938 251.019531 444.660156 249.148438 444.21875 247.273438 C 443.339844 243.199219 440.472656 240.445312 437.5 237.800781 C 437.390625 237.6875 437.167969 237.800781 436.949219 238.238281 C 437.277344 239.230469 437.609375 240.445312 438.160156 241.65625 C 439.703125 245.621094 440.804688 249.699219 441.355469 253.886719 C 441.90625 257.519531 442.457031 261.15625 443.007812 264.902344 C 443.667969 269.308594 445.652344 272.835938 449.507812 275.261719 C 451.492188 276.582031 451.492188 276.914062 450.609375 279.226562 C 449.839844 281.429688 448.957031 283.742188 448.847656 286.058594 C 448.628906 289.140625 449.289062 292.007812 451.601562 294.210938 C 452.042969 294.652344 452.59375 295.203125 453.367188 295.09375 C 455.238281 294.871094 455.570312 295.09375 455.789062 296.964844 C 455.898438 298.289062 455.679688 299.609375 455.789062 300.929688 C 456.339844 305.226562 456.78125 309.636719 461.960938 311.179688 C 463.28125 311.617188 463.832031 312.832031 463.0625 314.152344 C 461.1875 317.789062 461.519531 321.535156 462.070312 325.28125 C 462.398438 327.816406 463.0625 330.347656 464.601562 332.882812 C 465.15625 331.5625 465.042969 330.570312 465.042969 329.46875 C 465.042969 326.824219 466.035156 324.507812 467.46875 322.304688 C 469.230469 319.773438 471.324219 319.441406 473.75 321.425781 C 475.730469 323.078125 477.273438 325.171875 478.046875 327.59375 C 479.917969 333.101562 480.25 338.832031 479.699219 344.5625 C 479.699219 345.003906 479.476562 345.445312 479.476562 345.882812 C 478.484375 350.292969 476.503906 351.832031 472.09375 351.394531 C 471.765625 351.832031 472.09375 352.273438 472.207031 352.605469 C 473.75 354.808594 475.953125 355.46875 478.375 355.25 C 479.367188 355.25 480.359375 354.699219 481.460938 354.476562 C 483.445312 354.039062 484.324219 354.917969 483.996094 356.902344 C 483.773438 357.894531 483.445312 358.773438 483.222656 359.65625 C 482.121094 363.953125 481.351562 368.25 483.003906 372.65625 Z M 454.796875 492.75 C 455.019531 488.125 456.339844 484.046875 458.214844 480.300781 C 458.875 478.871094 458.875 477.878906 458.101562 476.445312 C 453.367188 468.511719 449.398438 460.140625 445.542969 451.765625 C 444.992188 450.554688 444.769531 448.902344 443.890625 448.351562 C 442.789062 447.6875 441.355469 448.902344 439.921875 449.230469 C 439.921875 449.230469 439.703125 449.230469 439.703125 449.230469 C 434.414062 450.113281 434.855469 451.105469 432.980469 445.707031 C 432.871094 445.375 432.761719 445.042969 432.652344 444.714844 C 431.550781 440.96875 430.449219 437.113281 429.234375 433.367188 C 429.015625 432.703125 429.015625 431.824219 428.246094 431.714844 C 425.050781 431.164062 421.964844 429.621094 418.4375 430.28125 C 413.921875 431.050781 409.625 430.058594 406.097656 426.976562 C 404.886719 425.984375 403.785156 425.761719 402.242188 426.203125 C 400.480469 426.753906 398.605469 427.085938 396.734375 427.085938 C 394.972656 427.085938 394.089844 426.3125 394.53125 424.660156 C 395.191406 422.015625 393.867188 420.253906 392.214844 418.601562 C 390.785156 417.167969 389.019531 416.066406 387.917969 414.414062 C 386.046875 411.660156 383.183594 410.226562 380.539062 408.6875 C 378.113281 407.253906 376.460938 408.355469 376.351562 411.21875 C 376.351562 412.101562 376.351562 412.984375 376.679688 413.863281 C 376.902344 414.523438 377.230469 415.1875 377.34375 415.847656 C 377.5625 417.167969 376.570312 417.941406 375.46875 417.390625 C 375.027344 417.167969 374.699219 416.949219 374.367188 416.617188 C 371.394531 413.3125 368.636719 409.898438 367.425781 405.492188 C 367.316406 404.941406 367.425781 404.277344 366.65625 403.835938 C 366.214844 403.949219 365.664062 404.167969 365.222656 404.277344 C 361.808594 405.378906 358.722656 404.390625 355.96875 402.625 C 354.09375 401.414062 353.875 400.09375 355.304688 398.4375 C 357.070312 396.347656 356.738281 393.703125 354.535156 392.160156 C 352.550781 390.726562 350.570312 389.074219 348.367188 387.972656 C 344.289062 385.988281 340.875 386.320312 339.550781 390.945312 C 339.550781 390.945312 339.550781 391.167969 339.550781 391.167969 C 338.890625 392.820312 337.898438 393.152344 336.578125 391.71875 C 335.253906 390.394531 334.042969 388.964844 333.050781 387.421875 C 329.964844 383.015625 325.558594 380.257812 320.929688 377.835938 C 318.617188 376.625 315.972656 375.851562 312.777344 376.292969 C 313.660156 377.285156 314.210938 377.835938 314.761719 378.496094 C 316.082031 380.039062 317.40625 381.582031 318.398438 383.34375 C 318.726562 383.894531 318.835938 384.558594 318.398438 385.109375 C 317.957031 385.660156 317.40625 385.546875 316.746094 385.4375 C 314.871094 385.21875 312.886719 384.777344 311.015625 384.445312 C 308.921875 384.003906 306.828125 383.894531 304.84375 384.886719 C 305.175781 385.4375 305.726562 385.4375 306.277344 385.660156 C 308.921875 386.320312 311.015625 387.863281 312.777344 389.957031 C 314.320312 391.71875 315.753906 393.480469 317.074219 395.355469 C 318.398438 397.335938 319.9375 399.101562 321.703125 400.753906 C 325.339844 404.277344 329.195312 407.03125 334.703125 406.59375 C 336.6875 406.371094 337.238281 407.363281 337.128906 409.347656 C 336.464844 416.066406 340.652344 421.246094 347.375 421.796875 C 348.917969 421.90625 350.347656 421.796875 351.890625 422.015625 C 353.875 422.238281 354.09375 422.566406 353.984375 424.550781 C 353.765625 427.855469 356.078125 430.5 359.382812 430.832031 C 360.816406 430.941406 362.359375 430.832031 363.902344 430.832031 C 366.65625 430.832031 367.425781 431.492188 366.984375 434.246094 C 366.65625 436.230469 367.207031 437.773438 368.527344 439.09375 C 370.179688 440.859375 372.054688 442.289062 374.148438 443.503906 C 375.910156 444.492188 377.671875 445.707031 379.875 446.367188 C 379.65625 445.15625 378.996094 444.605469 378.554688 443.941406 C 377.121094 441.519531 376.128906 439.09375 376.242188 436.230469 C 376.460938 432.375 379.214844 430.390625 382.960938 431.382812 C 383.402344 431.492188 383.84375 431.601562 384.171875 431.824219 C 391.886719 434.90625 396.625 444.054688 394.859375 452.097656 C 394.640625 453.085938 394.089844 454.078125 394.308594 455.179688 C 394.640625 455.179688 394.972656 455.292969 395.191406 455.179688 C 398.496094 454.1875 401.800781 453.417969 404.667969 451.214844 C 406.429688 449.890625 406.980469 450.113281 408.082031 452.207031 C 408.964844 453.859375 409.625 455.511719 410.175781 457.273438 C 411.386719 461.128906 413.371094 464.546875 416.015625 467.519531 C 416.894531 468.511719 417.886719 469.394531 419.320312 469.171875 C 419.539062 468.84375 419.539062 468.621094 419.320312 468.292969 C 417.667969 465.207031 416.675781 461.792969 415.792969 458.375 C 414.582031 454.078125 413.148438 449.78125 410.835938 445.925781 C 410.285156 445.042969 409.84375 444.054688 409.625 443.0625 C 409.183594 441.296875 410.066406 440.308594 411.828125 440.195312 C 412.929688 440.195312 414.140625 440.417969 415.132812 440.859375 C 421.523438 443.390625 425.050781 448.238281 426.480469 454.738281 C 427.144531 457.496094 426.480469 460.140625 426.152344 462.671875 C 426.59375 463.113281 427.144531 463.003906 427.472656 463.113281 C 432.652344 464.4375 435.1875 469.171875 433.203125 474.132812 C 432.542969 475.675781 431.878906 477.214844 430.777344 478.539062 C 430.117188 479.308594 430.226562 479.859375 431 480.523438 C 433.09375 482.285156 434.636719 484.488281 435.1875 487.023438 C 435.515625 488.566406 436.175781 488.675781 437.390625 488.34375 C 438.160156 488.125 438.933594 488.015625 439.703125 488.125 C 442.128906 488.125 443.117188 488.894531 443.78125 491.097656 C 444.441406 493.300781 444.660156 493.414062 446.976562 492.972656 C 449.398438 492.53125 451.824219 492.089844 454.46875 493.191406 Z M 353.101562 185.023438 C 354.535156 185.023438 355.417969 184.363281 356.296875 183.921875 C 361.695312 181.386719 366.984375 178.523438 372.054688 175.328125 C 380.867188 169.820312 389.132812 163.871094 396.734375 156.816406 C 397.613281 156.046875 398.164062 155.277344 397.835938 153.84375 C 395.523438 146.132812 393.316406 138.308594 390.121094 130.816406 C 389.570312 129.605469 389.019531 128.390625 388.359375 127.289062 C 387.808594 126.1875 386.929688 125.746094 385.496094 126.078125 C 381.96875 126.960938 378.445312 127.730469 374.917969 128.503906 C 369.1875 129.714844 363.679688 131.585938 358.390625 134.011719 C 356.960938 134.671875 355.636719 135.445312 354.203125 136.324219 C 353.542969 136.765625 353.101562 137.316406 353.101562 138.199219 C 353.101562 145.578125 352.332031 152.960938 352.113281 160.34375 C 351.78125 168.496094 352.441406 176.648438 352.992188 185.023438 Z M 197.972656 318.230469 C 192.242188 323.1875 187.0625 328.585938 182.546875 334.535156 C 179.460938 338.503906 176.929688 342.910156 175.054688 347.535156 C 174.285156 349.410156 174.285156 349.519531 175.9375 350.511719 C 177.808594 351.722656 179.460938 353.15625 180.785156 354.917969 C 183.539062 358.335938 186.292969 361.859375 188.828125 365.386719 C 193.34375 371.554688 196.980469 378.386719 201.058594 384.886719 C 201.496094 385.546875 201.609375 386.320312 202.488281 386.539062 C 202.710938 386.429688 202.820312 386.320312 202.929688 386.210938 C 203.371094 385.546875 203.921875 384.886719 204.363281 384.335938 C 212.625 372.4375 218.464844 359.546875 220.558594 345.113281 C 220.777344 343.238281 221.109375 341.476562 221.109375 339.605469 C 221.109375 338.613281 220.777344 337.730469 219.898438 337.070312 C 216.371094 334.316406 213.507812 330.679688 209.652344 328.367188 C 208.660156 327.816406 207.886719 326.933594 207.007812 326.164062 C 204.03125 323.519531 201.058594 320.984375 197.972656 318.339844 Z M 287.988281 202.871094 C 285.5625 200.339844 283.46875 200.007812 279.722656 201.992188 C 277.078125 203.421875 274.765625 205.40625 272.671875 207.5 C 262.097656 218.738281 252.511719 230.859375 243.585938 243.417969 C 236.644531 253.222656 230.914062 263.910156 226.398438 275.148438 C 223.972656 281.097656 222.101562 287.050781 222.429688 293.660156 C 222.652344 298.289062 223.421875 302.914062 224.304688 307.542969 C 226.175781 317.347656 227.71875 327.152344 227.832031 337.179688 C 227.832031 338.171875 227.832031 339.164062 227.832031 340.042969 C 227.609375 341.476562 226.839844 341.917969 225.40625 341.699219 C 224.964844 341.699219 224.636719 341.257812 224.195312 341.699219 C 223.972656 344.339844 223.753906 346.984375 223.421875 349.628906 C 223.09375 352.382812 222.320312 355.027344 221.328125 357.5625 C 216.921875 368.472656 212.625 379.488281 204.472656 388.523438 C 203.921875 389.074219 203.921875 389.515625 204.363281 390.066406 C 206.015625 392.050781 207.449219 394.363281 209.429688 396.125 C 210.421875 395.355469 210.863281 394.363281 211.414062 393.480469 C 212.40625 391.828125 213.285156 390.066406 214.386719 388.523438 C 221 379.269531 225.738281 369.132812 230.035156 358.664062 C 234.882812 346.765625 236.976562 334.316406 236.535156 321.425781 C 236.3125 313.710938 235.324219 306 234.21875 298.289062 C 233.007812 289.472656 233.117188 280.769531 235.761719 272.175781 C 237.414062 266.554688 239.949219 261.378906 242.816406 256.199219 C 248.652344 245.84375 255.375 236.035156 262.425781 226.449219 C 264.628906 223.476562 266.945312 220.5 269.476562 217.855469 C 274.324219 212.679688 279.285156 207.71875 285.785156 204.527344 C 286.554688 204.195312 287.4375 203.753906 287.988281 202.871094 Z M 436.726562 447.578125 C 437.390625 447.25 437.71875 447.027344 438.050781 446.917969 C 442.566406 444.824219 446.976562 442.511719 451.933594 441.296875 C 458.433594 439.757812 464.933594 438.875 471.433594 438.101562 C 478.15625 437.332031 480.25 438.433594 482.671875 444.824219 C 482.671875 444.824219 482.671875 445.042969 482.671875 445.042969 C 484.546875 449.453125 486.199219 453.859375 487.851562 458.375 C 489.171875 461.902344 491.707031 463.445312 495.234375 463.113281 C 497.988281 462.894531 500.632812 462.121094 503.164062 461.019531 C 506.140625 459.808594 507.683594 457.496094 508.453125 454.519531 C 509.003906 452.207031 509.003906 449.890625 508.125 447.800781 C 506.582031 444.273438 505.921875 440.417969 504.15625 436.890625 C 503.496094 435.570312 503.386719 434.027344 503.386719 432.484375 C 503.386719 427.96875 505.808594 424.882812 509.117188 422.238281 C 512.640625 419.484375 516.496094 417.5 520.683594 416.066406 C 525.421875 414.523438 529.9375 412.542969 534.566406 410.890625 C 535.558594 410.558594 535.777344 410.007812 535.339844 409.125 C 534.457031 406.921875 533.464844 404.71875 532.582031 402.515625 C 532.144531 401.414062 531.59375 401.195312 530.378906 401.195312 C 526.414062 401.414062 522.886719 402.734375 519.363281 404.609375 C 513.300781 407.804688 507.574219 411.21875 502.0625 415.296875 C 500.191406 416.617188 499.417969 416.507812 497.988281 414.964844 C 497.214844 414.195312 496.445312 413.753906 495.34375 413.421875 C 493.03125 412.542969 491.265625 411 490.824219 408.355469 C 490.496094 406.371094 490.496094 404.5 491.265625 402.625 C 491.816406 401.304688 491.265625 400.972656 490.164062 400.972656 C 488.070312 400.972656 485.976562 401.195312 483.882812 401.964844 C 481.128906 402.957031 478.597656 404.5 475.953125 405.378906 C 473.636719 406.152344 472.535156 407.585938 471.65625 409.675781 C 470.773438 411.882812 471.214844 412.761719 473.527344 413.535156 C 476.0625 414.414062 476.613281 415.1875 475.839844 417.832031 C 475.289062 419.703125 474.738281 421.464844 475.402344 423.558594 C 475.730469 424.660156 475.179688 425.433594 473.96875 425.652344 C 473.417969 425.652344 472.867188 425.761719 472.425781 425.875 C 463.613281 426.753906 454.6875 426.644531 445.875 428.40625 C 441.6875 429.179688 437.5 429.621094 433.535156 431.050781 C 432.652344 431.382812 431.992188 431.601562 432.320312 432.703125 C 433.863281 437.550781 435.40625 442.398438 436.507812 447.6875 Z M 526.855469 85.863281 C 526.855469 84.871094 526.523438 84.429688 525.972656 84.101562 C 524.101562 82.777344 522.117188 81.675781 519.804688 81.457031 C 516.496094 81.125 513.300781 81.566406 510.105469 82.335938 C 495.121094 85.863281 480.691406 90.710938 466.367188 96.109375 C 457.222656 99.527344 447.855469 102.5 439.152344 107.019531 C 436.507812 108.339844 433.972656 109.773438 431.992188 111.976562 C 427.472656 117.152344 423.507812 122.773438 420.640625 129.054688 C 417.226562 136.546875 413.699219 143.925781 409.515625 150.980469 C 407.421875 154.503906 404.996094 157.699219 402.242188 160.675781 C 400.480469 162.546875 400.039062 162.4375 399.269531 160.125 C 399.269531 159.902344 399.15625 159.574219 398.605469 159.792969 C 396.734375 161.996094 394.640625 164.199219 392.105469 166.074219 C 380.757812 174.777344 368.527344 182.050781 355.085938 187.335938 C 353.875 187.777344 353.324219 188.328125 353.542969 189.652344 C 353.875 191.632812 353.984375 193.617188 354.316406 195.820312 C 357.511719 194.828125 360.484375 193.839844 363.238281 192.296875 C 376.351562 185.132812 388.800781 177.089844 399.597656 166.625 C 405.21875 161.226562 410.507812 155.605469 415.355469 149.65625 C 419.429688 144.589844 422.734375 138.859375 425.929688 133.238281 C 431.550781 123.433594 438.820312 115.5 448.957031 110.210938 C 457.550781 105.804688 466.035156 101.179688 474.738281 96.769531 C 485.539062 91.371094 496.886719 87.738281 508.675781 85.421875 C 512.972656 84.542969 517.378906 83.769531 521.785156 84.652344 C 523.4375 84.980469 524.980469 85.421875 526.855469 85.863281 Z M 284.792969 266.335938 C 281.15625 267.328125 277.300781 267.21875 273.445312 266.554688 C 273.003906 266.554688 272.5625 266.554688 272.121094 266.554688 C 271.019531 266.554688 270.46875 266.996094 270.46875 268.097656 C 270.46875 269.308594 270.46875 270.523438 270.578125 271.734375 C 271.019531 275.921875 271.242188 280.109375 270.578125 284.40625 C 269.589844 291.566406 266.0625 296.632812 258.902344 298.839844 C 258.570312 298.839844 258.238281 299.058594 257.910156 299.167969 C 255.816406 299.941406 255.484375 300.269531 255.707031 302.472656 C 255.925781 305.226562 256.144531 308.09375 256.585938 310.847656 C 257.796875 317.566406 258.789062 324.398438 259.230469 331.230469 C 259.78125 339.382812 259.5625 347.425781 257.246094 355.359375 C 251.960938 373.648438 243.804688 390.507812 232.347656 405.710938 C 231.246094 407.144531 230.035156 408.355469 228.601562 409.457031 C 228.160156 409.789062 227.5 409.898438 227.5 410.777344 C 227.941406 411 228.492188 411.21875 228.933594 411.441406 C 234.550781 413.203125 233.230469 413.972656 237.746094 409.457031 C 242.152344 405.050781 245.347656 399.761719 248.101562 394.253906 C 252.398438 385.546875 255.265625 376.292969 257.910156 366.929688 C 263.308594 347.535156 264.1875 327.703125 261.433594 307.761719 C 260.992188 304.566406 261.984375 302.695312 264.410156 300.820312 C 269.808594 296.746094 273.003906 291.125 273.773438 284.292969 C 273.996094 282.089844 273.996094 279.886719 273.773438 277.683594 C 273.664062 275.039062 274.4375 274.046875 276.96875 273.386719 C 278.402344 273.054688 279.835938 272.617188 281.375 272.394531 C 285.675781 271.515625 284.902344 272.394531 285.011719 267.988281 C 285.011719 267.4375 285.011719 266.886719 284.460938 266.226562 Z M 484.214844 130.925781 C 481.902344 130.042969 480.578125 128.503906 479.148438 126.851562 C 477.605469 124.976562 476.722656 124.976562 475.070312 126.851562 C 473.308594 128.722656 471.984375 130.925781 470.664062 133.128906 C 468.902344 136.105469 467.027344 138.96875 464.492188 141.394531 C 461.738281 144.039062 458.433594 145.800781 454.46875 146.351562 C 452.152344 146.683594 449.949219 146.792969 447.636719 146.351562 C 445.320312 145.910156 443.890625 146.792969 443.007812 148.773438 C 442.679688 149.546875 442.347656 150.207031 442.015625 150.867188 C 440.472656 154.175781 438.933594 157.589844 437.277344 160.894531 C 429.898438 175.769531 420.3125 188.878906 407.199219 199.238281 C 399.269531 205.515625 390.453125 210.363281 381.417969 214.660156 C 377.011719 216.753906 372.496094 218.738281 367.648438 219.839844 C 365.554688 220.28125 363.347656 220.171875 361.257812 220.5 C 361.035156 221.492188 361.695312 221.933594 361.917969 222.59375 C 362.578125 224.359375 363.902344 224.578125 365.554688 224.359375 C 367.867188 223.917969 370.179688 223.476562 372.496094 222.703125 C 387.257812 217.636719 400.699219 210.363281 412.597656 200.226562 C 421.414062 192.734375 429.015625 183.921875 434.964844 174.007812 C 438.050781 168.828125 440.804688 163.320312 443.230469 157.808594 C 443.890625 156.265625 444.769531 154.835938 445.433594 153.292969 C 446.753906 150.757812 448.738281 149.65625 451.492188 150.316406 C 453.695312 150.867188 455.789062 150.316406 457.882812 149.324219 C 463.613281 146.570312 468.570312 142.9375 472.207031 137.535156 C 472.757812 136.765625 473.308594 135.996094 473.96875 135.222656 C 475.511719 133.460938 476.503906 133.238281 478.597656 134.453125 C 479.367188 134.894531 480.136719 135.332031 481.019531 135.882812 C 482.011719 134.34375 483.003906 132.800781 484.214844 130.925781 Z M 452.261719 527.679688 C 448.078125 524.484375 444.21875 521.617188 440.253906 518.644531 C 439.484375 517.984375 438.820312 518.3125 438.160156 518.753906 C 435.515625 520.515625 432.871094 522.28125 430.117188 523.933594 C 421.742188 529 415.242188 535.941406 409.625 543.875 C 408.632812 545.308594 408.632812 545.417969 410.066406 546.628906 C 412.378906 548.503906 414.914062 550.15625 417.226562 552.136719 C 418.4375 553.128906 419.101562 553.019531 419.980469 551.917969 C 424.71875 546.738281 430.226562 542.222656 435.40625 537.484375 C 438.160156 535.058594 441.023438 532.96875 444.332031 531.425781 C 446.863281 530.210938 449.289062 528.667969 452.152344 527.789062 Z M 424.386719 551.367188 C 428.90625 554.121094 432.320312 557.535156 435.847656 560.953125 C 437.390625 562.382812 437.390625 562.382812 438.933594 560.953125 C 446.976562 553.570312 455.019531 546.1875 463.0625 538.804688 C 463.613281 538.367188 464.273438 538.035156 464.382812 537.152344 C 461.628906 534.621094 458.324219 532.636719 455.238281 530.542969 C 454.796875 530.210938 454.136719 529.773438 453.476562 530.101562 C 450.832031 531.425781 447.636719 531.753906 445.433594 533.847656 C 443.007812 535.941406 440.363281 537.703125 437.609375 539.246094 C 435.738281 540.347656 434.085938 541.671875 432.652344 543.214844 C 430.117188 545.96875 427.695312 548.941406 424.277344 551.476562 Z M 427.582031 492.972656 C 427.914062 494.84375 428.246094 496.496094 428.023438 498.261719 C 427.804688 500.464844 429.015625 502.007812 430.890625 502.886719 C 431.992188 503.4375 433.203125 503.769531 434.304688 504.101562 C 436.507812 504.871094 437.5 505.863281 437.277344 508.175781 C 436.949219 511.042969 438.382812 512.914062 440.363281 514.457031 C 444.769531 517.984375 449.179688 521.507812 453.476562 525.035156 C 454.796875 526.136719 456.121094 527.347656 457.664062 528.230469 C 460.96875 530.101562 464.273438 532.195312 467.027344 534.949219 C 473.308594 529.441406 479.367188 523.820312 486.199219 519.304688 C 485.539062 517.871094 484.4375 517.433594 483.332031 516.878906 C 477.824219 514.015625 472.535156 510.601562 468.019531 506.195312 C 464.164062 502.449219 459.867188 499.253906 455.347656 496.386719 C 453.144531 494.957031 450.832031 494.625 448.296875 495.285156 C 446.753906 495.726562 445.210938 495.726562 443.667969 495.175781 C 442.347656 494.625 441.578125 493.742188 441.355469 492.199219 C 441.136719 490.109375 441.023438 490.109375 438.933594 490.328125 C 437.941406 490.328125 436.949219 490.4375 436.066406 490.878906 C 433.421875 492.199219 430.667969 492.75 427.472656 492.972656 Z M 419.652344 329.027344 C 419.652344 327.703125 418.878906 326.714844 418.550781 325.5 C 417.996094 323.519531 416.894531 322.195312 415.023438 321.203125 C 412.378906 319.773438 411.277344 316.578125 411.9375 313.382812 C 412.046875 312.71875 412.269531 312.058594 412.597656 311.398438 C 412.929688 310.515625 412.820312 309.855469 411.9375 309.414062 C 410.507812 308.863281 408.964844 308.3125 407.53125 307.761719 C 406.097656 307.210938 404.777344 306.550781 403.234375 305.890625 C 404.554688 317.457031 416.675781 372.988281 418.550781 376.625 C 418.988281 376.183594 419.101562 375.523438 419.320312 374.972656 C 420.3125 370.125 421.523438 365.386719 422.40625 360.539062 C 422.734375 358.886719 423.726562 356.902344 422.847656 355.359375 C 421.964844 353.816406 419.980469 353.046875 418.4375 352.164062 C 416.234375 350.953125 414.691406 349.300781 413.699219 347.097656 C 412.929688 345.445312 412.160156 343.902344 411.828125 342.136719 C 411.058594 338.941406 410.507812 335.746094 411.609375 332.550781 C 412.597656 329.6875 414.472656 328.585938 417.445312 328.804688 C 418.21875 328.804688 418.988281 329.359375 419.761719 328.917969 Z M 311.015625 455.730469 C 328.863281 473.800781 348.253906 489.777344 366.765625 506.855469 C 366.984375 505.644531 366.324219 504.871094 366.105469 504.101562 C 364.230469 499.582031 360.816406 496.277344 357.511719 492.863281 C 356.519531 491.871094 355.527344 490.878906 354.535156 489.777344 C 353.433594 488.566406 353.214844 487.132812 353.875 485.589844 C 354.425781 484.597656 354.753906 483.496094 354.867188 482.285156 C 354.976562 480.632812 354.753906 480.191406 353.101562 479.972656 C 351.671875 479.75 350.238281 479.972656 348.917969 479.972656 C 343.738281 480.410156 339.21875 478.871094 335.144531 475.675781 C 334.042969 474.792969 333.050781 473.800781 332.5 472.480469 C 331.175781 469.503906 332.28125 466.859375 335.253906 465.539062 C 335.804688 465.316406 336.464844 465.097656 337.347656 464.765625 C 335.914062 463.445312 334.484375 463.003906 332.832031 463.222656 C 330.847656 463.445312 328.972656 463.222656 327.101562 462.5625 C 324.125 461.679688 323.355469 460.691406 323.683594 457.605469 C 323.683594 457.054688 323.90625 456.503906 323.90625 456.0625 C 323.90625 454.628906 323.246094 453.527344 321.921875 452.976562 C 320.601562 452.425781 319.277344 452.316406 318.285156 453.417969 C 316.746094 454.960938 314.871094 455.402344 312.777344 455.511719 C 312.335938 455.511719 311.894531 455.511719 311.234375 455.511719 Z M 460.746094 480.960938 C 460.417969 481.511719 460.195312 481.734375 460.195312 481.953125 C 459.09375 485.699219 458.542969 489.558594 456.890625 493.082031 C 456.558594 493.855469 456.890625 494.183594 457.441406 494.625 C 458.875 495.507812 460.195312 496.496094 461.628906 497.378906 C 462.949219 498.152344 463.941406 499.472656 465.59375 500.023438 C 466.144531 498.039062 467.136719 496.496094 468.128906 494.957031 C 468.570312 494.292969 468.902344 493.632812 468.347656 492.863281 C 465.816406 489.003906 463.390625 485.148438 460.746094 481.074219 Z M 490.496094 301.480469 C 486.859375 293.328125 483.445312 285.726562 479.917969 277.683594 C 479.367188 279.777344 479.035156 281.429688 478.15625 282.972656 C 477.605469 283.964844 476.0625 284.734375 476.503906 286.058594 C 476.945312 287.160156 477.933594 288.039062 478.707031 288.921875 C 478.925781 289.140625 479.035156 289.363281 479.257812 289.472656 C 482.121094 290.796875 482.5625 293.21875 482.011719 296.082031 C 481.792969 297.183594 482.011719 298.398438 482.011719 299.5 C 482.011719 300.160156 481.792969 300.929688 482.5625 301.371094 C 485.648438 299.828125 486.308594 299.828125 490.496094 301.59375 Z M 498.539062 319.882812 C 498.316406 319.882812 498.207031 319.882812 497.988281 319.992188 C 497.988281 323.519531 496.777344 326.714844 494.460938 329.246094 C 495.121094 330.128906 496.003906 330.128906 496.777344 330.238281 C 500.851562 331.011719 503.605469 333.214844 504.597656 337.402344 C 504.820312 338.28125 505.148438 339.054688 505.480469 339.824219 C 506.359375 341.699219 507.351562 343.351562 509.335938 344.453125 C 505.699219 336.1875 502.0625 328.035156 498.429688 319.773438 Z M 478.597656 509.941406 C 478.707031 509.71875 478.925781 509.609375 479.035156 509.390625 C 476.390625 505.203125 473.636719 501.125 470.664062 496.496094 C 470.441406 498.8125 470.113281 500.464844 469.453125 502.007812 C 469.121094 502.667969 469.011719 503.328125 469.78125 503.769531 C 472.757812 505.753906 475.621094 507.847656 478.597656 509.828125 Z M 366.542969 400.203125 C 364.121094 398 361.476562 396.347656 359.605469 395.796875 C 359.824219 397.449219 359.050781 398.660156 358.0625 399.871094 C 362.027344 402.40625 364.011719 402.40625 366.65625 400.203125 Z M 376.679688 406.261719 C 374.257812 404.71875 372.164062 403.285156 369.519531 402.074219 C 370.070312 405.710938 371.28125 408.6875 373.707031 411.660156 C 374.035156 409.347656 374.699219 407.585938 376.570312 406.261719 Z M 376.679688 406.261719 " fill-opacity="1" fill-rule="nonzero"/></g><path fill="#ffffff" d="M 495.5625 459.699219 C 493.46875 460.027344 491.816406 458.816406 490.714844 456.722656 C 487.410156 450.222656 484.214844 443.613281 482.671875 436.449219 C 482.230469 434.355469 481.570312 432.375 480.578125 430.5 C 478.925781 427.417969 478.375 424.222656 479.585938 420.804688 C 480.578125 418.269531 480.25 415.847656 478.375 413.644531 C 476.722656 411.660156 475.953125 409.347656 477.496094 406.8125 C 478.484375 405.050781 479.808594 403.949219 481.902344 404.058594 C 483.773438 404.167969 485.648438 405.820312 486.199219 407.914062 C 486.417969 408.90625 486.640625 410.007812 486.640625 411 C 486.75 413.535156 487.851562 415.515625 490.164062 416.730469 C 491.597656 417.5 492.480469 418.820312 493.03125 420.363281 C 493.359375 421.578125 493.800781 422.679688 494.132812 423.890625 C 494.683594 426.535156 495.785156 429.070312 496.886719 431.601562 C 499.308594 436.671875 501.292969 441.960938 503.277344 447.25 C 503.605469 448.238281 503.9375 449.230469 504.15625 450.332031 C 505.148438 454.851562 502.613281 458.597656 498.097656 459.476562 C 497.4375 459.589844 496.664062 459.589844 495.5625 459.699219 Z M 482.011719 423.890625 C 482.011719 424.441406 482.011719 425.210938 482.230469 425.875 C 482.894531 428.628906 483.554688 431.382812 484.546875 434.027344 C 486.199219 439.09375 488.070312 444.164062 489.835938 449.230469 C 490.605469 451.433594 491.597656 453.636719 492.808594 455.730469 C 493.359375 456.613281 493.910156 457.382812 495.011719 457.496094 C 497.328125 457.496094 499.308594 456.832031 500.960938 455.179688 C 502.394531 453.75 501.953125 452.097656 501.511719 450.441406 C 500.410156 446.144531 498.867188 442.070312 496.554688 438.214844 C 493.691406 433.476562 491.707031 428.40625 490.824219 423.007812 C 490.605469 421.355469 489.945312 420.253906 488.511719 419.484375 C 487.960938 419.152344 487.519531 418.820312 486.96875 418.492188 C 484.988281 417.390625 483.996094 415.515625 483.773438 413.3125 C 483.664062 412.320312 483.773438 411.328125 483.773438 410.449219 C 483.773438 409.566406 483.664062 408.6875 482.894531 408.023438 C 481.902344 407.03125 481.128906 407.144531 480.25 408.246094 C 479.257812 409.566406 479.257812 410.667969 480.578125 412.320312 C 482.78125 414.855469 483.113281 417.609375 482.453125 420.695312 C 482.230469 421.6875 482.121094 422.789062 482.011719 424 Z M 482.011719 423.890625 " fill-opacity="1" fill-rule="nonzero"/><path fill="#ffffff" d="M 468.238281 528.890625 C 467.246094 528.890625 466.476562 528.449219 465.707031 527.898438 C 458.652344 523.601562 451.601562 519.195312 445.210938 514.015625 C 442.679688 512.03125 440.695312 509.828125 441.136719 506.304688 C 441.246094 505.203125 440.585938 504.320312 439.59375 503.660156 C 438.269531 502.667969 436.839844 501.898438 435.1875 501.234375 C 432.980469 500.464844 432.320312 499.253906 433.09375 497.269531 C 433.972656 495.175781 436.066406 494.074219 437.941406 494.84375 C 438.820312 495.175781 439.484375 495.726562 440.035156 496.386719 C 442.128906 498.371094 444.550781 499.363281 447.527344 499.140625 C 450.28125 498.921875 452.703125 499.914062 454.90625 501.566406 C 460.304688 505.53125 465.707031 509.390625 471.105469 513.464844 C 473.308594 515.117188 475.402344 516.878906 477.382812 518.753906 C 479.476562 520.625 479.476562 521.730469 477.164062 523.382812 C 475.402344 524.59375 473.636719 526.027344 471.984375 527.457031 C 470.882812 528.339844 469.671875 529 468.238281 529.109375 Z M 475.179688 521.179688 C 473.859375 519.414062 472.09375 518.3125 470.441406 516.992188 C 464.824219 512.363281 458.652344 508.398438 453.035156 503.769531 C 451.933594 502.886719 450.609375 502.449219 449.070312 502.335938 C 445.324219 502.335938 442.128906 500.792969 439.261719 498.371094 C 438.820312 497.929688 438.269531 497.601562 437.71875 497.269531 C 436.839844 496.828125 436.175781 497.269531 435.738281 498.039062 C 435.1875 499.03125 435.957031 499.253906 436.617188 499.582031 C 437.941406 500.242188 439.371094 500.683594 440.585938 501.566406 C 442.457031 502.777344 443.890625 504.429688 443.78125 506.746094 C 443.667969 508.839844 444.550781 510.269531 446.203125 511.371094 C 452.925781 516.441406 459.867188 521.289062 466.808594 526.136719 C 467.6875 526.796875 468.347656 526.6875 469.121094 526.136719 C 471.105469 524.484375 473.085938 522.941406 475.179688 521.289062 Z M 475.179688 521.179688 " fill-opacity="1" fill-rule="nonzero"/></svg>