<svg xmlns="http://www.w3.org/2000/svg" xmlns:xlink="http://www.w3.org/1999/xlink" width="1080" zoomAndPan="magnify" viewBox="0 0 810 809.999993" height="1080" preserveAspectRatio="xMidYMid meet" version="1.0"><path fill="#ffffff" d="M 608.742188 164.199219 C 630.921875 184.351562 646.265625 196.515625 651.097656 228.996094 C 659.914062 288.253906 634.738281 333.179688 619.136719 386.542969 C 607.84375 425.128906 579.417969 550.503906 556.273438 575.558594 C 553.632812 578.410156 549.578125 575.417969 549.058594 575.910156 C 543.332031 581.167969 531.664062 661.402344 533.054688 674.722656 C 527.871094 680.496094 518.277344 658.808594 517.640625 654.285156 C 513.914062 627.0625 541.1875 543.832031 551.628906 514.699219 C 581.09375 432.507812 626.160156 348.972656 635.1875 259.710938 C 637.6875 235.125 637.402344 216.125 621.65625 196.328125 C 610.179688 181.902344 600.492188 175.703125 581.46875 178.011719 C 532.867188 183.929688 456.542969 277.597656 452.535156 325.589844 C 452.136719 330.445312 456 335.371094 454.824219 340.0625 C 454.046875 343.195312 449.519531 345.859375 449.285156 350.101562 C 448.8125 359.105469 465.242188 372.824219 461.730469 386.992188 C 461.09375 389.488281 455.269531 388.570312 455.316406 390.550781 C 455.4375 395.949219 463.945312 400.238281 461.613281 407.59375 C 431.015625 403.585938 446.714844 353.191406 425.902344 336.171875 C 416.828125 350.691406 437.308594 395.808594 432.148438 404.527344 C 429.671875 408.675781 428.589844 407.804688 425.925781 404.503906 C 420.976562 398.445312 417.394531 376.621094 415.929688 367.898438 C 413.621094 354.039062 413.832031 325.257812 409.589844 315.242188 C 405.324219 305.175781 359.902344 264.28125 348.871094 257.941406 C 316.34375 239.273438 268 241.160156 241.367188 269.65625 C 222.296875 290.042969 240.941406 330.1875 250.863281 352.8125 C 299.328125 463.265625 379.75 535.203125 480.328125 595.59375 C 484.261719 597.949219 488.199219 594.980469 486.457031 603.277344 C 477.875 604.054688 470.214844 600.921875 462.601562 597.667969 C 375.53125 560.402344 271.464844 432.554688 236.558594 345.390625 C 230.335938 329.878906 227.460938 314.085938 220.90625 298.90625 C 155.96875 440.640625 349.648438 518.917969 436.816406 592.363281 C 457.132812 609.476562 477.003906 632.480469 497.320312 649.878906 C 504.675781 656.171875 523.414062 658.316406 509.765625 671.539062 C 477.285156 648.722656 451.003906 618.8125 419.609375 594.039062 C 329.875 523.230469 150.265625 442.007812 208.53125 298.953125 C 231.984375 241.394531 270.476562 206.296875 335.933594 211.8125 C 377.464844 215.324219 397.546875 240.167969 424.300781 267.839844 C 435.449219 224.753906 495.765625 140.722656 541.070312 134.546875 C 576.777344 129.691406 585.617188 143.152344 608.742188 164.175781 Z M 579.632812 156.066406 C 561.457031 147.675781 549.34375 147.699219 530.910156 155.457031 C 494.824219 170.636719 440.65625 242.878906 432.597656 280.992188 C 430.570312 290.632812 439.171875 295.535156 439.902344 305.128906 C 442.425781 307.0625 463.402344 260.933594 466.539062 255.703125 C 485.066406 224.519531 521.246094 185.460938 553.632812 168.867188 C 556.910156 167.195312 582.71875 160.144531 579.632812 156.089844 Z M 414.988281 302.019531 C 423.570312 281.820312 403.507812 261.59375 388.683594 249.148438 C 363.367188 227.863281 329.285156 220.347656 296.992188 227.511719 L 331.078125 235.3125 C 366.269531 247.898438 387.386719 278.941406 414.988281 302.019531 Z M 436.746094 329.972656 C 435.871094 323.042969 434.292969 308.902344 427.480469 305.152344 C 427.152344 309.539062 423.519531 312.648438 425.832031 317.363281 C 426.84375 319.460938 433.703125 328.984375 436.722656 329.949219 Z M 436.746094 329.972656 " fill-opacity="1" fill-rule="nonzero"/></svg>