<svg xmlns="http://www.w3.org/2000/svg" xmlns:xlink="http://www.w3.org/1999/xlink" width="1080" zoomAndPan="magnify" viewBox="0 0 810 809.999993" height="1080" preserveAspectRatio="xMidYMid meet" version="1.0"><defs><clipPath id="c2cb5affd8"><path d="M 120.851562 221 L 689 221 L 689 589 L 120.851562 589 Z M 120.851562 221 " clip-rule="nonzero"/></clipPath></defs><g clip-path="url(#c2cb5affd8)"><path fill="#ffffff" d="M 121.179688 470.277344 C 120.851562 463.339844 122.042969 454.023438 123.777344 444.8125 C 125.730469 434.519531 128.113281 424.445312 131.253906 414.476562 C 137.753906 393.890625 149.132812 376.664062 165.601562 362.578125 C 176.761719 353.042969 188.789062 344.917969 202.007812 338.742188 C 206.882812 336.464844 211.867188 334.40625 216.957031 332.78125 C 222.484375 330.9375 228.117188 329.746094 233.644531 328.230469 C 240.144531 326.386719 246.539062 324.65625 253.039062 323.03125 C 255.855469 322.378906 255.3125 322.597656 255.53125 320.210938 C 256.503906 308.402344 260.40625 297.566406 265.605469 287.058594 C 270.15625 277.738281 276.875 270.480469 285.433594 264.628906 C 296.160156 257.152344 307.753906 251.085938 319.457031 245.453125 C 329.859375 240.46875 340.910156 237.109375 351.960938 234.183594 C 369.296875 229.632812 386.632812 225.40625 404.292969 222.699219 C 415.34375 220.964844 426.394531 220.855469 437.554688 221.507812 C 446.550781 222.046875 455.542969 223.132812 464.535156 223.78125 C 471.144531 224.324219 477.644531 225.300781 483.929688 227.140625 C 492.054688 229.523438 499.640625 233.207031 505.925781 239.167969 C 509.28125 242.308594 512.535156 245.558594 515.785156 248.8125 C 522.933594 256.070312 528.136719 264.414062 531.386719 274.054688 C 534.960938 284.347656 537.34375 294.96875 539.296875 305.800781 C 541.136719 315.988281 542.113281 326.171875 542.980469 336.464844 C 543.085938 338.199219 543.085938 338.199219 544.820312 338.089844 C 549.046875 337.65625 553.382812 338.199219 557.5 338.847656 C 570.066406 340.691406 582.203125 344.15625 593.6875 349.574219 C 601.597656 353.257812 608.640625 358.242188 614.597656 364.636719 C 615.679688 365.828125 616.875 366.261719 618.390625 366.261719 C 628.359375 366.371094 638.21875 367.34375 647.644531 370.703125 C 656.960938 373.953125 665.523438 378.503906 672.890625 385.113281 C 678.632812 390.3125 682.859375 396.597656 685.457031 403.964844 C 687.839844 410.683594 689.140625 417.511719 688.167969 424.769531 C 686.867188 434.953125 681.558594 442.320312 672.347656 446.65625 C 666.28125 449.582031 659.78125 451.207031 653.0625 452.074219 C 645.367188 453.15625 637.566406 453.15625 629.765625 453.699219 C 615.464844 454.566406 601.054688 455.324219 586.859375 457.382812 C 568.875 459.984375 551.214844 464.207031 533.878906 469.410156 C 509.28125 476.886719 485.664062 486.636719 462.585938 497.6875 C 442.433594 507.332031 423.144531 518.273438 403.75 529.324219 C 387.933594 538.320312 371.898438 547.09375 355.210938 554.355469 C 335.058594 563.128906 314.472656 570.824219 293.234375 576.675781 C 276.660156 581.226562 259.648438 584.257812 242.636719 586.75 C 234.292969 587.941406 225.953125 588.484375 217.609375 588.808594 C 209.699219 589.132812 201.789062 587.832031 194.097656 586.316406 C 188.246094 585.125 182.503906 583.933594 176.976562 581.875 C 164.625 577.324219 154.550781 569.523438 146.53125 559.121094 C 135.15625 544.386719 127.894531 527.699219 124.753906 509.390625 C 122.261719 494.761719 121.285156 483.925781 120.960938 470.492188 Z M 488.914062 394.105469 C 487.398438 393.347656 485.988281 392.480469 484.796875 391.398438 C 481.113281 387.929688 478.945312 383.703125 478.078125 378.828125 C 477.429688 375.363281 477.429688 371.785156 477.320312 368.320312 C 477.320312 365.71875 476.886719 363.117188 475.804688 360.734375 C 473.851562 356.507812 471.035156 353.042969 467.136719 350.550781 C 463.34375 348.167969 459.550781 345.890625 455.433594 344.15625 C 453.808594 343.398438 452.183594 342.640625 450.667969 341.664062 C 447.308594 339.390625 445.574219 336.140625 445.355469 332.132812 C 445.140625 327.472656 446.550781 323.246094 449.148438 319.347656 C 452.617188 314.144531 457.277344 310.136719 462.585938 307.101562 C 468.976562 303.417969 475.695312 300.710938 482.953125 299.085938 C 491.621094 297.242188 500.398438 296.484375 509.28125 296.269531 C 512.425781 296.269531 515.566406 296.050781 518.601562 295.835938 C 521.742188 295.617188 524.125 294.101562 525.859375 291.609375 C 527.269531 289.660156 527.703125 287.601562 527.050781 285.214844 C 525.644531 280.558594 524.125 276.007812 522.285156 271.457031 C 521.308594 269.179688 520.226562 267.011719 518.925781 264.847656 C 518.382812 263.980469 517.734375 263.546875 516.652344 263.546875 C 514.699219 263.546875 512.640625 263.546875 510.691406 263.4375 C 501.589844 262.894531 494.007812 256.070312 492.378906 246.96875 C 492.054688 244.800781 492.054688 242.636719 492.378906 240.46875 C 492.488281 239.710938 492.597656 239.058594 491.621094 238.625 C 488.261719 237.324219 485.230469 235.375 481.652344 234.617188 C 477.210938 233.640625 472.660156 232.558594 468.109375 232.015625 C 459.441406 231.042969 450.773438 230.175781 442.105469 229.308594 C 435.929688 228.765625 429.648438 228.441406 423.363281 228.65625 C 422.710938 228.65625 422.0625 228.441406 421.414062 229.089844 C 422.277344 232.558594 421.628906 235.917969 420.21875 239.167969 C 418.378906 243.285156 416.101562 247.078125 413.070312 250.4375 C 408.84375 255.203125 403.535156 258.5625 397.25 259.753906 C 393.457031 260.511719 389.558594 260.402344 385.765625 260.078125 C 381.972656 259.863281 378.179688 259.429688 374.390625 259.429688 C 366.695312 259.429688 359.761719 261.597656 353.910156 266.90625 C 351.960938 268.640625 349.792969 270.265625 347.519531 271.671875 C 344.160156 273.730469 340.585938 274.382812 336.792969 273.839844 C 329.859375 272.863281 323.789062 270.046875 318.589844 265.496094 C 315.878906 263.113281 313.605469 260.511719 313.171875 256.71875 C 312.523438 256.613281 312.195312 256.828125 311.761719 257.046875 C 302.878906 260.945312 294.753906 266.363281 286.84375 271.996094 C 283.484375 274.382812 280.558594 277.199219 278.285156 280.558594 C 272 289.660156 267.992188 299.734375 265.28125 310.351562 C 265.066406 311.21875 265.28125 311.652344 266.039062 311.976562 C 273.082031 315.335938 277.851562 320.863281 280.449219 328.230469 C 281.75 332.023438 281.859375 335.816406 280.667969 339.605469 C 278.933594 345.347656 276.007812 350.226562 271.023438 353.910156 C 267.125 356.726562 264.089844 360.519531 261.707031 364.742188 C 261.164062 365.71875 260.730469 366.800781 260.621094 367.886719 C 260.296875 370.917969 260.082031 373.953125 259.648438 376.988281 C 258.023438 389.554688 257.480469 402.339844 257.046875 415.019531 C 256.613281 427.804688 257.046875 440.589844 258.238281 453.265625 C 258.5625 457.492188 258.671875 457.707031 262.898438 458.355469 C 262.898438 458.355469 263.007812 458.355469 263.113281 458.355469 C 267.664062 459.222656 272.109375 459.875 276.660156 460.523438 C 283.699219 461.5 290.742188 462.691406 297.785156 463.558594 C 304.828125 464.425781 311.761719 464.964844 318.804688 465.617188 C 329.640625 466.589844 340.367188 467.351562 351.3125 467.132812 C 361.0625 466.808594 370.8125 466.265625 380.347656 463.667969 C 381.539062 463.339844 382.839844 463.125 384.140625 463.234375 C 385.332031 463.339844 386.199219 462.90625 387.066406 462.042969 C 391.292969 457.816406 395.625 453.699219 400.175781 449.796875 C 426.503906 427.476562 455.433594 409.382812 486.855469 395.40625 C 487.503906 395.082031 488.261719 394.863281 488.914062 394.324219 Z M 314.039062 471.035156 C 313.28125 471.035156 312.957031 470.925781 312.628906 470.816406 C 307.320312 470.167969 301.902344 469.625 296.59375 468.867188 C 291.9375 468.21875 287.277344 467.351562 282.617188 466.59375 C 280.992188 466.375 280.992188 466.265625 280.34375 467.785156 C 279.582031 469.515625 278.5 471.25 277.199219 472.550781 C 268.53125 481.652344 258.128906 486.3125 245.34375 485.011719 C 240.6875 484.578125 235.917969 484.359375 231.261719 485.226562 C 227.578125 485.878906 223.894531 486.960938 220.207031 487.828125 C 215.875 488.804688 211.539062 489.5625 207.207031 488.695312 C 200.8125 487.394531 195.9375 483.820312 192.253906 478.511719 C 189.4375 474.5 188.460938 470.058594 189.222656 465.292969 C 189.980469 460.523438 191.714844 456.191406 193.988281 452.074219 C 195.398438 449.472656 196.804688 446.980469 198.214844 444.378906 C 200.707031 440.15625 201.574219 435.605469 201.355469 430.835938 C 201.03125 425.09375 200.273438 419.351562 199.621094 413.609375 C 197.671875 396.273438 209.808594 382.945312 219.882812 378.394531 C 223.785156 376.664062 227.792969 375.578125 232.019531 376.011719 C 239.167969 376.554688 245.238281 379.585938 250.65625 384.246094 C 251.304688 384.789062 251.738281 385.546875 252.820312 385.871094 C 253.039062 374.605469 253.363281 363.445312 253.796875 352.390625 C 253.582031 352.390625 253.472656 352.285156 253.472656 352.285156 C 252.929688 352.390625 252.496094 352.5 251.953125 352.71875 C 247.835938 353.910156 243.828125 353.910156 239.820312 352.285156 C 235.484375 350.660156 231.695312 348.058594 228.335938 344.808594 C 226.167969 342.640625 224 340.472656 221.832031 338.308594 C 220.75 337.113281 219.667969 336.898438 218.148438 337.441406 C 207.097656 341.339844 196.695312 346.433594 187.054688 353.042969 C 179.144531 358.351562 171.777344 364.3125 164.949219 370.917969 C 163.324219 372.4375 163.324219 372.4375 164.625 374.277344 C 167.875 378.828125 170.152344 383.8125 171.667969 389.230469 C 173.835938 397.464844 172.535156 405.050781 166.683594 411.550781 C 165.058594 413.394531 163.542969 415.34375 162.132812 417.402344 C 160.074219 420.21875 158.667969 423.253906 158.234375 426.609375 C 158.015625 428.019531 157.800781 429.320312 157.582031 430.726562 C 156.824219 435.386719 155.632812 439.9375 153.25 444.164062 C 151.839844 446.65625 150.105469 448.824219 147.722656 450.339844 C 141.871094 454.238281 135.480469 456.730469 128.652344 457.925781 C 127.894531 458.03125 127.570312 458.25 127.570312 459.007812 C 127.570312 460.089844 127.355469 461.175781 127.355469 462.148438 C 126.8125 473.09375 127.679688 483.925781 129.085938 494.761719 C 129.195312 495.738281 129.414062 496.710938 129.628906 497.578125 C 130.277344 497.578125 130.496094 497.253906 130.820312 497.039062 C 132.339844 495.847656 133.964844 494.761719 135.589844 493.894531 C 139.488281 491.945312 143.496094 491.296875 147.832031 491.945312 C 151.082031 492.488281 153.574219 494.328125 155.632812 496.820312 C 157.476562 499.097656 159.316406 501.371094 161.050781 503.648438 C 164.949219 508.414062 169.828125 510.257812 175.894531 509.28125 C 179.253906 508.738281 182.613281 508.089844 185.96875 507.65625 C 196.046875 506.464844 205.039062 509.066406 212.082031 516.539062 C 223.785156 528.890625 227.578125 543.519531 224 559.988281 C 222.160156 568.546875 217.714844 575.808594 210.132812 580.683594 C 209.914062 580.792969 209.699219 580.898438 209.808594 581.441406 C 210.242188 581.441406 210.78125 581.550781 211.214844 581.65625 C 215.550781 581.875 219.882812 581.65625 224.21875 581.65625 C 228.335938 581.550781 232.34375 581.007812 235.917969 579.058594 C 236.136719 579.058594 236.246094 578.949219 236.460938 578.839844 C 244.046875 576.023438 251.628906 573.207031 258.996094 569.738281 C 266.367188 566.273438 273.949219 563.128906 280.882812 558.796875 C 281.425781 558.472656 282.074219 558.253906 282.507812 557.605469 C 282.292969 557.0625 281.640625 556.847656 281.210938 556.414062 C 277.09375 552.511719 274.707031 547.851562 275.683594 542.003906 C 276.117188 539.078125 277.523438 536.585938 279.042969 534.203125 C 280.449219 531.816406 281.96875 529.433594 283.375 527.050781 C 284.675781 524.992188 285.21875 522.609375 285.328125 520.222656 C 285.328125 518.816406 285.328125 517.40625 285.328125 516 C 285.328125 510.257812 286.519531 504.839844 289.335938 499.746094 C 291.070312 496.605469 293.128906 493.679688 295.511719 490.96875 C 298.976562 486.960938 302.769531 483.167969 306.453125 479.375 C 308.839844 476.777344 311.222656 474.285156 313.929688 471.359375 Z M 251.523438 578.191406 C 252.171875 578.515625 252.714844 578.191406 253.363281 578.191406 C 255.3125 577.867188 257.265625 577.539062 259.214844 577.214844 C 278.066406 574.074219 296.59375 569.414062 314.582031 563.238281 C 320.429688 561.179688 326.171875 559.011719 332.023438 556.847656 C 332.78125 556.519531 333.648438 556.414062 333.648438 555.113281 C 333.648438 552.296875 334.625 549.695312 336.25 547.527344 C 341.667969 539.945312 348.601562 534.308594 357.160156 530.949219 C 361.0625 529.433594 365.070312 528.351562 369.1875 527.375 C 373.738281 526.292969 377.421875 524.015625 380.023438 520.117188 C 381.539062 517.949219 383.164062 515.78125 384.683594 513.613281 C 389.773438 506.355469 395.410156 499.636719 402.234375 494.113281 C 412.636719 485.660156 424.664062 481.21875 438.207031 481.867188 C 444.492188 482.195312 450.234375 484.359375 455.542969 487.828125 C 456.515625 488.476562 457.492188 489.238281 458.25 490.101562 C 459.441406 491.511719 459.117188 491.621094 461.175781 490.535156 C 468.4375 486.960938 475.804688 483.496094 483.28125 480.242188 C 487.289062 478.511719 487.289062 478.511719 488.914062 474.394531 C 489.78125 472.335938 489.5625 470.492188 488.480469 468.652344 C 487.503906 467.023438 486.3125 465.617188 485.011719 464.316406 C 482.304688 461.5 479.8125 458.464844 477.320312 455.433594 C 474.828125 452.398438 473.417969 448.929688 473.203125 445.03125 C 472.878906 439.828125 474.070312 434.953125 476.238281 430.296875 C 479.378906 423.253906 484.472656 418.160156 491.730469 415.234375 C 495.089844 413.933594 498.554688 413.5 502.132812 413.824219 C 506.140625 414.257812 509.5 416.101562 512.316406 418.808594 C 515.027344 421.410156 517.410156 424.445312 519.578125 427.585938 C 521.203125 429.96875 522.933594 432.246094 524.992188 434.195312 C 527.59375 436.578125 530.628906 437.769531 534.09375 437.121094 C 535.71875 436.902344 537.238281 436.6875 538.863281 436.363281 C 545.6875 434.953125 552.515625 434.195312 559.449219 434.953125 C 562.589844 435.386719 565.734375 435.929688 568.65625 437.445312 C 573.96875 440.261719 577 444.488281 577.109375 450.664062 C 577.109375 450.988281 577.109375 451.316406 577.433594 451.746094 C 595.3125 449.039062 613.296875 446.65625 631.5 447.523438 C 631.390625 446.332031 630.742188 445.464844 630.308594 444.597656 C 628.792969 441.347656 628.792969 438.097656 630.09375 434.738281 C 630.742188 433.113281 631.71875 431.488281 632.800781 430.078125 C 634.316406 428.238281 635.835938 426.394531 637.242188 424.445312 C 638.652344 422.710938 639.953125 420.761719 640.601562 418.59375 C 641.46875 415.992188 641.035156 413.609375 639.300781 411.550781 C 637.460938 409.492188 635.402344 407.757812 633.125 406.242188 C 628.898438 403.640625 624.242188 401.691406 619.472656 400.28125 C 612.757812 398.332031 605.820312 397.683594 598.777344 397.140625 C 594.988281 396.816406 591.195312 396.707031 587.402344 396.382812 C 583.394531 396.058594 580.035156 394.324219 577.21875 391.507812 C 574.941406 389.121094 574.074219 386.414062 574.507812 383.164062 C 574.726562 381.429688 575.375 379.804688 576.027344 378.289062 C 576.242188 377.855469 576.675781 377.421875 576.351562 376.769531 C 575.484375 376.769531 574.617188 376.878906 573.859375 377.097656 C 558.796875 379.371094 544.0625 382.839844 529.652344 387.28125 C 495.304688 397.683594 463.34375 413.066406 433.765625 433.4375 C 418.703125 443.839844 404.402344 455.214844 391.292969 468.109375 C 380.457031 478.617188 370.164062 489.671875 359.652344 500.503906 C 346 514.808594 332.132812 528.890625 317.179688 541.785156 C 303.855469 553.378906 289.117188 562.914062 272.867188 569.847656 C 266.363281 572.664062 259.757812 575.046875 253.148438 577.539062 C 252.605469 577.757812 252.0625 577.867188 251.519531 578.300781 Z M 609.398438 365.9375 C 609.398438 365.609375 609.398438 365.503906 609.289062 365.394531 C 606.253906 362.359375 602.894531 359.867188 599.210938 357.59375 C 598.886719 357.375 598.5625 357.160156 598.128906 357.269531 C 596.070312 357.484375 594.011719 356.835938 592.0625 356.507812 C 586.859375 355.535156 581.769531 355.535156 576.675781 356.835938 C 574.183594 357.484375 571.800781 357.917969 569.199219 358.242188 C 565.515625 358.675781 562.050781 358.242188 558.796875 356.507812 C 554.246094 354.125 552.1875 349.792969 553.273438 344.808594 C 553.273438 344.484375 553.488281 344.15625 553.488281 343.832031 C 553.707031 342.425781 553.488281 342.207031 552.1875 341.992188 C 550.128906 341.773438 548.070312 341.558594 546.011719 341.339844 C 543.519531 341.125 543.519531 341.125 543.738281 343.507812 C 544.605469 353.257812 545.472656 363.011719 545.90625 372.761719 C 545.90625 375.144531 545.796875 375.144531 548.289062 374.605469 C 566.707031 370.054688 585.453125 367.453125 604.414062 366.371094 C 606.148438 366.371094 607.773438 366.152344 609.503906 366.042969 Z M 609.398438 365.9375 " fill-opacity="1" fill-rule="nonzero"/></g><path fill="#ffffff" d="M 310.898438 427.476562 C 310.898438 424.660156 311.222656 421.953125 311.4375 419.136719 C 311.546875 417.402344 311.65625 415.667969 311.65625 413.933594 C 311.65625 408.84375 309.164062 405.265625 304.828125 402.773438 C 303.421875 401.90625 301.796875 401.367188 300.277344 400.714844 C 298.976562 400.175781 297.570312 399.632812 296.269531 398.980469 C 290.203125 395.839844 287.492188 389.882812 289.117188 383.273438 C 289.769531 380.453125 291.070312 377.960938 292.695312 375.578125 C 295.945312 370.8125 300.0625 367.019531 304.9375 363.984375 C 310.246094 360.519531 315.988281 358.027344 322.054688 356.074219 C 327.148438 354.449219 332.351562 353.042969 337.660156 351.742188 C 342.75 350.550781 346.433594 347.734375 348.820312 343.183594 C 349.578125 341.882812 350.335938 340.582031 351.09375 339.171875 C 354.019531 333.539062 358.679688 330.613281 364.746094 329.746094 C 367.019531 329.421875 369.40625 329.3125 371.679688 329.746094 C 376.015625 330.613281 379.480469 332.890625 381.863281 336.789062 C 385.765625 343.289062 387.28125 350.332031 386.414062 357.808594 C 386.089844 360.519531 388.039062 363.117188 390.75 363.445312 C 395.515625 364.09375 399.960938 365.609375 403.96875 368.210938 C 406.894531 370.054688 409.277344 372.328125 411.121094 375.363281 C 415.238281 382.1875 414.371094 390.097656 408.84375 395.949219 C 407 397.789062 404.835938 399.308594 402.558594 400.5 C 398.007812 402.882812 393.023438 403.859375 388.039062 404.507812 C 383.597656 405.050781 379.046875 405.484375 374.605469 406.351562 C 367.347656 407.867188 361.496094 411.660156 356.726562 417.292969 C 353.910156 420.542969 351.527344 424.226562 349.144531 427.804688 C 347.195312 430.726562 345.027344 433.546875 342.535156 436.039062 C 338.417969 440.046875 333.542969 442.539062 327.800781 443.40625 C 324.980469 443.839844 322.382812 443.40625 319.78125 442.539062 C 314.148438 440.480469 311.222656 436.472656 311.003906 430.511719 C 311.003906 429.535156 311.003906 428.667969 311.003906 427.695312 Z M 310.898438 427.476562 " fill-opacity="1" fill-rule="nonzero"/><path fill="#ffffff" d="M 482.414062 265.605469 C 481.652344 266.6875 480.570312 267.011719 479.488281 267.339844 C 476.128906 268.53125 472.554688 269.289062 469.085938 269.722656 C 462.367188 270.589844 455.542969 270.914062 448.824219 270.589844 C 440.914062 270.265625 433.003906 270.480469 425.097656 271.238281 C 402.667969 273.621094 381.105469 279.367188 361.0625 290.089844 C 354.34375 293.667969 347.519531 297.242188 340.800781 300.710938 C 334.734375 303.851562 328.449219 306.5625 321.730469 308.1875 C 314.363281 309.917969 306.886719 310.136719 299.304688 309.484375 C 293.667969 309.054688 288.359375 307.425781 283.484375 304.503906 C 282.402344 303.851562 281.316406 303.09375 280.34375 302.335938 C 276.660156 299.410156 275.464844 293.125 278.285156 288.792969 C 279.582031 286.839844 281.425781 285.324219 283.375 284.023438 C 283.59375 283.914062 283.808594 283.699219 284.132812 283.699219 C 284.566406 283.699219 285.109375 283.699219 285.433594 284.023438 C 285.757812 284.457031 285.757812 284.890625 285.433594 285.324219 C 285.328125 285.542969 285.109375 285.757812 285 285.972656 C 284.027344 287.058594 283.59375 288.359375 282.835938 289.550781 C 281.101562 292.800781 281.210938 295.835938 283.375 298.867188 C 284.027344 299.84375 284.785156 300.601562 285.757812 301.144531 C 289.445312 302.984375 293.234375 304.175781 297.351562 304.503906 C 302.335938 304.933594 307.320312 305.476562 312.304688 304.933594 C 318.589844 304.175781 324.65625 302.550781 330.398438 299.84375 C 336.898438 296.808594 343.074219 293.449219 349.253906 289.984375 C 360.195312 284.023438 371.246094 278.5 383.058594 274.382812 C 393.023438 271.023438 403.316406 268.855469 413.71875 267.230469 C 427.15625 265.171875 440.699219 264.628906 454.242188 264.847656 C 462.257812 264.953125 470.167969 264.519531 478.1875 264.847656 C 479.59375 264.847656 480.894531 264.847656 482.414062 265.386719 Z M 482.414062 265.605469 " fill-opacity="1" fill-rule="nonzero"/></svg>