<svg xmlns="http://www.w3.org/2000/svg" xmlns:xlink="http://www.w3.org/1999/xlink" width="1080" zoomAndPan="magnify" viewBox="0 0 810 809.999993" height="1080" preserveAspectRatio="xMidYMid meet" version="1.0"><path fill="#ffffff" d="M 577.617188 134.640625 C 534.960938 80.996094 452.363281 118.414062 427.515625 204.605469 C 419.601562 232.054688 418.183594 272.402344 419.820312 279.253906 C 419.773438 279.253906 409.566406 274.339844 407.097656 281.59375 C 380.1875 264.835938 326.800781 227.8125 263.15625 236.984375 C 188.363281 247.761719 181.566406 307.113281 208.59375 334.152344 C 230.296875 355.855469 269.144531 349.003906 298.640625 340.511719 C 299.75 343.398438 301.90625 346.4375 303.800781 348.878906 C 318.609375 367.929688 346.632812 355.535156 361.238281 343.378906 C 372.230469 334.230469 376.066406 328.535156 383 321.429688 C 387.859375 316.449219 393.144531 311.953125 398.058594 307.039062 C 393.90625 321.820312 401.46875 343.597656 378.214844 369.96875 C 358.011719 392.878906 327.164062 382.585938 314.917969 431.5625 C 313.550781 437.03125 310.453125 445.367188 312.25 450.972656 C 313.527344 454.992188 316.796875 451.171875 318.390625 450.265625 C 324.527344 446.785156 327.59375 451.46875 328.929688 448.917969 C 330.21875 446.460938 328.226562 446.132812 331.328125 432.566406 C 338.226562 402.492188 372.0625 393.265625 388.339844 377.945312 C 401.988281 365.097656 401.609375 350.886719 402.746094 350.886719 C 402.746094 382.664062 411.050781 413.734375 388.734375 453.992188 C 368.925781 489.714844 318.285156 523.808594 304.042969 573.496094 C 291.488281 617.296875 302.363281 664.101562 306.074219 665.839844 C 307.996094 666.738281 308.429688 663.617188 308.960938 662.535156 C 310.382812 659.652344 313.46875 657.257812 316.714844 656.910156 C 318.519531 656.714844 324.148438 660.585938 324.882812 659.082031 C 325.765625 657.265625 323.582031 653.054688 323.117188 651.15625 C 294.070312 531.484375 385.734375 513.582031 409.535156 434.574219 C 422.273438 392.296875 408.261719 350.128906 411.726562 317.746094 C 412.164062 313.65625 412.09375 307.738281 413.984375 304.039062 C 415.742188 300.589844 419.976562 301.378906 422.160156 298.667969 C 437.796875 336.28125 426.023438 377.792969 439.917969 415.828125 C 460.945312 473.371094 519.921875 510.003906 519.90625 617.679688 C 519.90625 645.519531 510.824219 678.421875 493.835938 700.699219 C 480.171875 718.613281 457.75 727.042969 466.683594 729.085938 C 469.746094 729.792969 473.332031 729.578125 475.589844 732.199219 C 477.996094 735 475.253906 743.375 485.09375 735.703125 C 490.890625 731.1875 496.488281 726.394531 500.863281 720.449219 C 513.710938 702.996094 531.230469 661.34375 532.933594 640.109375 C 536.101562 600.632812 523.3125 540.472656 504.742188 506.210938 C 495.949219 489.992188 466.078125 454.09375 451.554688 416.5 C 439.535156 385.394531 442.652344 369.238281 440.570312 342.855469 L 440.90625 342.855469 C 442.898438 357.648438 453.398438 375.679688 467.351562 381.875 C 478.613281 386.871094 494.464844 385.425781 513.882812 396.554688 C 537.5 410.105469 538.957031 418.933594 543.320312 419.453125 C 546.105469 419.785156 543.011719 412.539062 547.695312 409.671875 C 549.019531 408.863281 552.628906 409.007812 553.160156 407.410156 C 553.914062 405.144531 548.449219 401.160156 547.023438 399.765625 C 511.910156 365.515625 480.597656 383.25 460.6875 361.601562 C 448.878906 348.757812 453.476562 313.632812 430.863281 291.304688 C 461.785156 291.304688 492.160156 306.742188 523.253906 300.527344 C 538.503906 297.476562 553.601562 289.6875 562.503906 276.574219 C 568.714844 267.425781 573.953125 251.15625 572.367188 237.746094 C 572.101562 235.480469 570.910156 232.265625 571.351562 230.042969 C 571.460938 229.488281 610.214844 175.640625 577.617188 134.640625 Z M 581.5 150.710938 C 588.453125 174.929688 579.9375 197.546875 565.765625 217.324219 C 563.804688 215.878906 562.351562 213.832031 560.410156 212.308594 C 524.269531 183.949219 452.511719 223.039062 430.53125 262.515625 C 429.929688 259.664062 432.605469 254.660156 433.402344 251.804688 C 441.074219 224.183594 438.054688 199.554688 463.097656 164.433594 C 483.902344 135.25 515.027344 114.039062 550.035156 121.730469 C 567.851562 125.640625 576.28125 132.539062 581.5 150.710938 Z M 253.449219 241.210938 C 321.097656 225.902344 379.546875 267.789062 400.738281 279.589844 L 400.738281 279.921875 C 383.140625 277.550781 367.257812 267.167969 350.859375 260.984375 C 312.859375 246.652344 270.988281 238.8125 232.359375 255.292969 C 208.300781 265.558594 207.300781 274.871094 200.222656 280.59375 C 208.109375 257.429688 231.273438 246.226562 253.449219 241.210938 Z M 247.421875 252.28125 C 300.21875 237.605469 349.320312 263.726562 373.289062 273.5625 C 373.289062 274.445312 364.703125 273.101562 357.554688 273.59375 C 332.554688 275.304688 300.355469 290.472656 294.003906 313.0625 C 292.300781 319.128906 293.46875 324.402344 293.953125 330.46875 C 281.0625 331.496094 239.976562 350.296875 208.941406 321.667969 C 188.859375 303.144531 194.71875 266.933594 247.421875 252.28125 Z M 209.597656 331.808594 C 199.308594 321.515625 195.058594 306.214844 196.207031 303.019531 C 198.417969 320.148438 218.691406 343.125 263.824219 339.171875 C 294.449219 336.492188 293.707031 326.820312 296.964844 338.167969 C 270.632812 346.738281 231.441406 353.660156 209.597656 331.808594 Z M 401.40625 285.027344 C 422.273438 295.402344 385.011719 283.058594 367.261719 282.277344 C 336.925781 280.949219 298.972656 300.492188 298.972656 334.484375 C 280.191406 306.195312 341.21875 255.128906 401.40625 285.027344 Z M 399.734375 290.632812 C 399.734375 292.117188 377.5625 291.371094 339.480469 309.800781 C 326.625 316.019531 306.726562 327.238281 301.316406 328.792969 C 306.652344 302.941406 334.117188 286.359375 359.226562 284.636719 C 373.25 283.679688 386.289062 287.523438 399.734375 290.632812 Z M 301.328125 331.277344 C 302.359375 329.714844 306 328.984375 307.679688 328.265625 C 314.386719 325.394531 367.445312 296.542969 395.714844 294.316406 C 395.714844 295.335938 380.410156 299.480469 371.613281 302.828125 C 341.886719 314.136719 309.398438 335.042969 300.984375 336.496094 C 300.984375 335.046875 300.5 332.527344 301.328125 331.277344 Z M 301.847656 339.523438 C 301.636719 337.683594 305.390625 337.128906 306.675781 336.734375 C 319.441406 332.792969 368.695312 302.726562 391.699219 299.335938 C 387.113281 304.160156 381.527344 308.222656 376.636719 312.757812 C 362.878906 325.503906 347.058594 339.914062 329.101562 346.304688 C 314.789062 351.398438 302.355469 343.972656 301.847656 339.523438 Z M 386.703125 313.730469 C 371.828125 330.132812 357.421875 349.527344 334.792969 355.113281 C 325.96875 357.292969 312.535156 356.695312 306.675781 348.546875 C 312.449219 349.917969 321.382812 357.296875 345.503906 341.292969 C 368.433594 326.082031 388.597656 300.871094 402.746094 294.988281 C 400.027344 302.40625 391.886719 308.015625 386.703125 313.730469 Z M 403.226562 311.722656 C 399.832031 331.914062 403.257812 351.90625 390.789062 369.632812 C 377.074219 389.132812 332.304688 398.105469 327.523438 436.582031 C 327.109375 439.914062 327.367188 443.332031 326.757812 446.625 C 321.957031 444.777344 319.082031 446.257812 314.707031 448.300781 C 314.878906 444.363281 319.535156 412.867188 337.804688 398.835938 C 355.886719 384.949219 380.710938 382.714844 392.699219 353.898438 C 402.101562 331.296875 398.136719 324.304688 401.214844 310.382812 C 402.257812 305.652344 404.316406 297.730469 409.441406 295.988281 C 407.628906 301.457031 404.226562 305.761719 403.226562 311.722656 Z M 412.421875 402.4375 C 406.742188 485.453125 338.675781 507.339844 318.730469 571.484375 C 306.835938 609.765625 316.09375 621.378906 321.066406 655.171875 C 315.40625 654.410156 310.683594 655.71875 307.007812 660.527344 C 304.410156 657.042969 304.171875 650.667969 303.519531 646.46875 C 284.023438 520.777344 384.382812 506.941406 403.53125 423.527344 C 410.710938 392.289062 398.179688 317.460938 410.109375 301.679688 C 410.109375 312.863281 407.691406 323.835938 408.464844 335.15625 C 409.980469 357.285156 413.945312 380.222656 412.421875 402.4375 Z M 418.8125 296.992188 C 418.125 291 414.789062 297.941406 413.457031 298.332031 C 413.441406 293.277344 412.210938 288.644531 409.105469 284.609375 C 415.90625 275.042969 427.375 292.121094 418.8125 296.992188 Z M 422.496094 274.230469 C 420.761719 260.492188 422.78125 175.992188 476.390625 133.171875 C 499.558594 114.664062 535.992188 104.777344 562.417969 122.589844 C 562.417969 124.886719 547.792969 113.984375 520.910156 119.394531 C 482.488281 127.125 448.992188 172.152344 440.199219 205.609375 C 434.800781 226.144531 429.226562 268.945312 422.496094 274.230469 Z M 446.828125 410.472656 C 454.242188 431.304688 473.671875 464.621094 473.945312 465.035156 C 497.292969 500.890625 508.925781 507.273438 522.878906 566.128906 C 537.320312 627.011719 529.960938 651.125 519.640625 676.929688 C 512.390625 695.046875 504.609375 714.800781 489.445312 727.855469 C 486.734375 730.1875 483.578125 734.027344 480.40625 735.511719 C 480.234375 727.425781 470.027344 726.878906 470.027344 725.800781 C 528.675781 689.605469 539.832031 589.097656 498.222656 510.226562 C 476.960938 469.929688 454.386719 444.488281 443.1875 415.496094 C 430.121094 381.660156 438.386719 352.5 431.328125 315.070312 C 430.613281 311.269531 427.386719 304.703125 428.519531 301.011719 C 444.726562 325.5 433.378906 372.664062 446.828125 410.472656 Z M 439.761719 309.042969 C 449.964844 332.496094 447.84375 349.726562 457.984375 362.601562 C 473.097656 381.804688 503.359375 370.042969 537.648438 396.53125 C 541.300781 399.351562 545.988281 402.359375 548.695312 406.121094 C 543.996094 407.476562 542.332031 410.554688 542.332031 415.160156 C 540.144531 413.488281 525.308594 397.03125 506.179688 389.453125 C 482.15625 379.933594 473.628906 383.015625 463 374.769531 C 438.28125 355.585938 445.730469 318.574219 431.3125 299.335938 C 429.785156 297.304688 426.585938 295.167969 426.175781 292.644531 C 432.738281 293.367188 437.449219 303.734375 439.761719 309.042969 Z M 544.679688 289.296875 C 504.992188 313.15625 455.878906 285.148438 433.207031 287.859375 C 429.433594 288.3125 425.726562 289.84375 424.839844 285.277344 C 431.929688 284.378906 439.0625 282.472656 446.261719 282.964844 C 478.296875 285.160156 520.117188 302.519531 553.714844 278.4375 C 557.375 275.820312 560.160156 272.101562 563.757812 269.542969 C 560.140625 277.941406 552.347656 284.683594 544.679688 289.296875 Z M 551.039062 230.695312 C 527.59375 245.578125 498.160156 252.34375 460.320312 266.214844 C 450.566406 269.792969 441.421875 274.605469 431.867188 278.582031 C 443.949219 257.664062 507.675781 197.734375 549.03125 218.410156 C 560.757812 224.277344 558.75 225.804688 551.039062 230.695312 Z M 560.074219 227.03125 C 561 228.40625 563.378906 230.921875 563.089844 232.691406 C 562.753906 234.761719 558.34375 236.621094 556.730469 237.636719 C 533.582031 252.222656 511.671875 262.554688 467.015625 272.367188 C 457.394531 274.480469 447.738281 277.808594 437.894531 278.582031 C 449.757812 268.746094 514.421875 253.617188 543.339844 237.976562 C 559.007812 229.5 556.460938 228.71875 560.074219 227.03125 Z M 563.726562 265.195312 C 558.835938 272.839844 549.824219 278.199219 541.664062 281.6875 C 518.753906 291.496094 495.867188 287.828125 472.039062 284.132812 C 403.742188 273.542969 473.644531 292.269531 564.429688 235.734375 C 568.238281 244.335938 568.960938 257.019531 563.726562 265.195312 Z M 569.449219 248.121094 L 569.113281 248.121094 C 569.113281 224.613281 548.023438 209.554688 525.597656 211.691406 C 491.402344 214.945312 454.773438 244.800781 434.085938 272.222656 C 431.46875 275.695312 428.367188 280.707031 424.167969 282.265625 C 446.554688 213.605469 575.953125 165.601562 569.449219 248.121094 Z M 579.757812 207.953125 C 578.6875 210.683594 572.308594 224.871094 569.785156 226.363281 C 569.289062 224.285156 567.058594 221.75 567.179688 219.667969 C 567.246094 218.578125 581.941406 199.875 585.089844 179.496094 C 588.632812 156.546875 581.03125 151.4375 582.167969 146.023438 C 585.683594 156.347656 593.449219 173.085938 579.757812 207.953125 Z M 579.757812 207.953125 " fill-opacity="1" fill-rule="nonzero"/></svg>