<svg xmlns="http://www.w3.org/2000/svg" xmlns:xlink="http://www.w3.org/1999/xlink" width="1080" zoomAndPan="magnify" viewBox="0 0 810 809.999993" height="1080" preserveAspectRatio="xMidYMid meet" version="1.0"><defs><clipPath id="866fa32a0e"><path d="M 285 685 L 447 685 L 447 729 L 285 729 Z M 285 685 " clip-rule="nonzero"/></clipPath><clipPath id="b20925d82a"><path d="M 648 81 L 714.636719 81 L 714.636719 166 L 648 166 Z M 648 81 " clip-rule="nonzero"/></clipPath><clipPath id="beeee10ea1"><path d="M 95.136719 367 L 150 367 L 150 433 L 95.136719 433 Z M 95.136719 367 " clip-rule="nonzero"/></clipPath></defs><path fill="#ffffff" d="M 572.703125 206.875 C 523.140625 209.761719 473.839844 212.644531 424.273438 215.53125 C 433.714844 196.386719 444.730469 177.503906 456.792969 159.410156 C 459.414062 155.476562 453.121094 151.804688 450.5 155.738281 C 437.648438 175.144531 426.109375 195.335938 416.144531 216.054688 C 346.914062 219.988281 277.417969 224.183594 208.1875 228.117188 C 205.300781 223.921875 202.417969 219.726562 199.53125 215.792969 C 196.910156 212.121094 190.617188 215.53125 193.238281 219.464844 C 196.125 223.398438 198.746094 227.332031 201.628906 231.265625 C 201.105469 233.363281 202.15625 235.722656 204.777344 235.722656 C 232.3125 273.222656 261.945312 309.152344 294.726562 342.71875 C 313.082031 361.335938 336.421875 390.183594 364.746094 395.953125 C 357.925781 449.1875 352.945312 502.683594 350.320312 556.445312 C 348.222656 600.761719 341.144531 650.066406 358.453125 692.023438 C 360.023438 695.695312 365.269531 695.433594 365.53125 690.976562 C 369.988281 592.894531 374.449219 494.816406 378.644531 396.738281 C 411.6875 394.117188 444.730469 355.566406 466.757812 334.851562 C 506.878906 297.351562 542.808594 256.175781 575.851562 212.382812 C 577.6875 210.285156 575.324219 206.875 572.703125 206.875 Z M 359.5 673.929688 C 360.550781 669.734375 355.566406 625.152344 355.828125 611.515625 C 356.355469 587.128906 357.402344 562.476562 358.714844 538.085938 C 361.335938 492.457031 365.792969 446.828125 371.5625 401.460938 C 369.464844 447.613281 367.367188 493.769531 365.269531 539.660156 C 363.171875 581.359375 369.464844 633.804688 359.5 673.929688 Z M 532.84375 255.128906 C 491.144531 304.167969 407.492188 415.882812 334.324219 371.039062 C 288.171875 342.457031 246.210938 282.664062 212.90625 235.199219 C 277.679688 231.527344 342.453125 227.59375 407.230469 223.921875 C 409.0625 223.921875 410.898438 223.660156 412.472656 223.660156 C 403.558594 243.066406 395.691406 262.996094 389.132812 283.449219 C 377.070312 280.566406 363.695312 283.714844 354.519531 292.367188 C 353.46875 290.269531 349.796875 289.21875 347.960938 291.84375 C 336.160156 308.101562 337.734375 333.015625 353.992188 345.863281 C 369.203125 358.191406 394.117188 356.617188 406.703125 341.144531 C 418.765625 326.457031 417.195312 302.59375 402.769531 290.269531 C 400.671875 288.433594 398.3125 287.121094 395.953125 285.8125 C 403.03125 264.308594 411.164062 243.328125 420.863281 223.136719 C 447.089844 221.5625 473.050781 219.988281 499.277344 218.675781 C 502.683594 218.414062 553.035156 213.171875 554.347656 215.53125 C 560.902344 225.757812 538.085938 249.097656 532.84375 255.128906 Z M 386.25 319.640625 C 388.609375 310.460938 390.96875 301.546875 393.855469 292.628906 C 395.691406 293.679688 397.261719 294.726562 398.835938 296.039062 C 409.851562 306.003906 410.375 325.148438 400.933594 336.421875 C 390.445312 349.011719 369.203125 349.796875 357.140625 338.523438 C 346.125 328.292969 345.339844 311.773438 351.894531 299.183594 C 352.945312 301.019531 355.566406 301.808594 357.402344 299.710938 C 364.484375 291.054688 376.546875 287.382812 387.296875 289.746094 C 384.414062 298.921875 381.792969 308.101562 379.691406 317.28125 C 378.121094 322.261719 384.9375 324.097656 386.25 319.640625 Z M 386.25 319.640625 " fill-opacity="1" fill-rule="nonzero"/><g clip-path="url(#866fa32a0e)"><path fill="#ffffff" d="M 443.679688 708.808594 C 422.964844 700.941406 402.507812 693.335938 381.792969 685.46875 C 377.332031 683.894531 375.496094 690.710938 379.957031 692.546875 C 397 699.105469 414.046875 705.398438 431.09375 711.953125 C 388.347656 722.96875 345.601562 725.066406 302.332031 717.460938 C 314.394531 713.003906 326.457031 708.808594 338.785156 704.347656 C 343.242188 702.777344 341.144531 695.695312 336.949219 697.269531 C 320.6875 703.039062 304.167969 709.070312 287.910156 714.839844 C 284.761719 715.886719 284.238281 721.132812 287.910156 721.917969 C 340.355469 733.195312 392.542969 731.097656 443.941406 715.886719 C 447.351562 714.578125 446.828125 710.117188 443.679688 708.808594 Z M 443.679688 708.808594 " fill-opacity="1" fill-rule="nonzero"/></g><g clip-path="url(#b20925d82a)"><path fill="#ffffff" d="M 706.707031 83.621094 C 701.726562 99.355469 695.695312 114.304688 688.613281 128.992188 C 676.8125 125.058594 665.011719 121.386719 653.210938 117.453125 C 648.753906 116.140625 646.917969 122.957031 651.375 124.53125 C 662.652344 128.203125 674.191406 131.875 685.46875 135.546875 C 681.007812 143.9375 676.289062 152.328125 671.304688 160.460938 C 668.683594 164.394531 674.976562 168.0625 677.601562 164.128906 C 683.105469 155.476562 688.089844 146.824219 692.546875 137.644531 C 696.21875 138.691406 699.628906 140.003906 703.300781 141.054688 C 707.757812 142.363281 709.59375 135.546875 705.136719 133.972656 C 701.988281 132.925781 698.839844 131.875 695.695312 130.824219 C 702.773438 116.140625 708.808594 100.929688 714.050781 85.195312 C 715.101562 81 708.019531 79.164062 706.707031 83.621094 Z M 706.707031 83.621094 " fill-opacity="1" fill-rule="nonzero"/></g><path fill="#ffffff" d="M 667.109375 276.894531 C 670.78125 280.828125 675.765625 286.859375 673.929688 292.628906 C 672.878906 295.777344 668.945312 299.183594 665.535156 297.875 C 666.0625 293.941406 666.847656 289.746094 667.371094 285.8125 C 668.160156 281.351562 661.078125 279.253906 660.292969 283.976562 C 659.769531 288.171875 658.980469 292.628906 658.457031 296.824219 C 657.933594 299.972656 657.933594 301.546875 660.816406 303.644531 C 665.011719 306.527344 670.257812 305.742188 674.453125 303.117188 C 687.039062 295.515625 680.484375 280.042969 672.355469 271.914062 C 668.945312 268.503906 663.703125 273.484375 667.109375 276.894531 Z M 667.109375 276.894531 " fill-opacity="1" fill-rule="nonzero"/><g clip-path="url(#beeee10ea1)"><path fill="#ffffff" d="M 142.101562 370.253906 C 138.429688 379.695312 133.449219 388.609375 127.417969 396.476562 C 123.21875 389.398438 119.023438 382.578125 114.566406 375.496094 C 112.207031 371.5625 105.914062 375.234375 108.273438 379.167969 C 112.992188 387.035156 117.714844 394.640625 122.433594 402.507812 C 115.351562 410.902344 106.960938 417.980469 97.519531 424.011719 C 93.585938 426.636719 97.257812 432.929688 101.191406 430.304688 C 110.632812 424.273438 119.023438 417.195312 126.367188 409.066406 C 130.5625 416.144531 135.019531 423.226562 139.21875 430.570312 C 141.578125 434.503906 147.871094 430.832031 145.511719 426.898438 C 140.789062 419.03125 136.070312 411.164062 131.085938 403.296875 C 138.429688 394.117188 144.199219 383.628906 148.65625 372.351562 C 150.757812 367.894531 143.9375 366.058594 142.101562 370.253906 Z M 142.101562 370.253906 " fill-opacity="1" fill-rule="nonzero"/></g><path fill="#ffffff" d="M 219.199219 516.847656 L 219.199219 514.75 C 218.9375 510.027344 211.859375 510.027344 211.859375 514.75 C 212.121094 519.46875 212.121094 524.1875 212.382812 528.648438 C 212.382812 530.21875 213.433594 531.792969 215.003906 532.054688 C 223.132812 533.628906 230.476562 524.1875 225.234375 517.109375 C 223.398438 515.011719 220.511719 515.273438 219.199219 516.847656 Z M 219.199219 516.847656 " fill-opacity="1" fill-rule="nonzero"/></svg>