<svg xmlns="http://www.w3.org/2000/svg" xmlns:xlink="http://www.w3.org/1999/xlink" width="1080" zoomAndPan="magnify" viewBox="0 0 810 809.999993" height="1080" preserveAspectRatio="xMidYMid meet" version="1.0"><path fill="#ffffff" d="M 356.996094 377.8125 C 359.21875 376.054688 391.472656 373.816406 398.191406 372.625 C 429.875 366.941406 439.507812 359.601562 450.929688 329.621094 C 459.855469 306.207031 468.417969 273.503906 470.039062 248.554688 C 470.570312 240.234375 468.296875 219.335938 470.296875 213.460938 C 471.277344 210.566406 477.722656 207.964844 479.6875 210.945312 C 481.53125 213.753906 479.996094 232.824219 480.375 238.234375 C 483.871094 288.460938 490.421875 336.203125 542.9375 355.378906 C 549.691406 357.84375 561.542969 359.53125 566.867188 362.375 C 571.761719 364.992188 570.640625 370.542969 567.917969 374.433594 C 564.542969 379.257812 546.847656 378.070312 540.195312 379.105469 C 519.832031 382.257812 505.960938 387.476562 498.378906 407.996094 C 488.765625 434.03125 494.261719 480.101562 493.695312 509.375 C 493.367188 526.054688 493.988281 551.242188 492.175781 566.785156 C 490.730469 579.292969 482.976562 575.296875 481.804688 565.320312 C 480.203125 551.640625 481.097656 535.066406 480.359375 521.109375 C 479.566406 506.34375 477.273438 488.578125 477.34375 474.003906 C 477.394531 461.03125 481.082031 443.59375 480.460938 431.292969 C 479.375 409.960938 452.136719 400.003906 434.492188 396.109375 C 411.285156 390.976562 385.855469 391.355469 362.113281 390.441406 C 358.734375 389.425781 353.738281 380.414062 357.03125 377.8125 Z M 528.945312 365.699219 C 507.734375 358.582031 492.230469 340.683594 483.511719 320.542969 L 475.964844 300.882812 C 469.847656 323.230469 460.90625 344.144531 447.707031 363.21875 C 443.46875 369.351562 436.300781 373.867188 434.71875 381.859375 C 453.308594 386.097656 471.691406 393.386719 484.046875 408.359375 C 491.023438 394.144531 494.503906 381.414062 509.75 373.710938 C 516.109375 370.507812 524.15625 370.214844 528.945312 365.683594 Z M 528.945312 365.699219 " fill-opacity="1" fill-rule="nonzero"/><path fill="#ffffff" d="M 244.367188 184.875 C 248.847656 184.257812 252.136719 184.222656 256.597656 185.136719 C 289.371094 191.957031 273.105469 241.304688 243.988281 240.578125 C 212.113281 239.785156 207.253906 189.992188 244.367188 184.875 Z M 244.316406 196.625 C 227.328125 199.746094 224.84375 220.265625 239.199219 226.089844 C 262.992188 235.753906 280.859375 189.90625 244.316406 196.625 Z M 244.316406 196.625 " fill-opacity="1" fill-rule="nonzero"/><path fill="#ffffff" d="M 515.230469 710.046875 C 491.246094 728.914062 462.871094 709.996094 468.902344 680.5 C 474.191406 654.621094 528.152344 661.410156 520.933594 695.710938 C 519.796875 701.070312 515.472656 704.773438 515.230469 710.03125 Z M 479.308594 679.863281 C 467.195312 694.730469 499.121094 720.953125 510.941406 696.058594 C 520.917969 675.039062 487.886719 669.351562 479.308594 679.863281 Z M 479.308594 679.863281 " fill-opacity="1" fill-rule="nonzero"/><path fill="#ffffff" d="M 284.132812 580.378906 C 283.632812 580.929688 281.410156 581.878906 280.773438 581.792969 C 277.085938 581.257812 238.351562 536.546875 236.011719 528.414062 C 240.902344 524.898438 242.210938 525.296875 240.300781 518.886719 C 242.851562 518.214844 243.246094 519.9375 244.726562 521.074219 C 259.941406 532.773438 272.605469 552.742188 286.683594 566.042969 C 288.457031 569.023438 286.128906 578.226562 284.132812 580.378906 Z M 284.132812 580.378906 " fill-opacity="1" fill-rule="nonzero"/><path fill="#ffffff" d="M 202.464844 483.050781 C 198.054688 479.257812 191.179688 468.078125 186.578125 462.890625 C 180.667969 456.222656 161.21875 438.113281 158.976562 431.550781 C 158.304688 429.585938 156.839844 428.535156 159.269531 426.777344 C 161.320312 425.503906 164.765625 425.863281 167.109375 426.382812 C 173.535156 427.828125 193.144531 448.125 198.382812 454.050781 C 200.792969 456.773438 210.699219 468.199219 211.578125 470.335938 C 213.957031 476.191406 209.148438 488.769531 202.5 483.050781 Z M 202.464844 483.050781 " fill-opacity="1" fill-rule="nonzero"/><path fill="#ffffff" d="M 303.445312 426.261719 C 304.53125 427.96875 303.117188 433.652344 302.257812 435.753906 C 300.636719 439.769531 267.972656 468.113281 262.269531 472.332031 C 253.34375 478.929688 245.453125 480.707031 250.277344 466.214844 C 252.414062 459.789062 285.113281 430.722656 291.972656 426.914062 C 295.953125 424.710938 299.328125 424.039062 303.445312 426.242188 Z M 303.445312 426.261719 " fill-opacity="1" fill-rule="nonzero"/><path fill="#ffffff" d="M 659.835938 141.957031 C 660.507812 148.589844 659.132812 154.433594 652.652344 157.242188 C 647.140625 159.617188 614.835938 167.800781 609.011719 168.214844 C 602.808594 168.644531 596.605469 163.941406 600.308594 157.964844 C 603.03125 153.570312 644.089844 141.320312 650.859375 140.613281 C 654.222656 140.253906 656.789062 140.40625 659.820312 141.976562 Z M 659.835938 141.957031 " fill-opacity="1" fill-rule="nonzero"/><path fill="#ffffff" d="M 201.828125 514.648438 C 207.941406 524.332031 178.566406 543.4375 171.554688 548.074219 C 166.023438 551.707031 155.496094 560.632812 151.191406 551.242188 C 149.3125 547.144531 151.6875 544.179688 154.308594 541.128906 C 158.097656 536.71875 188.09375 514.132812 192.816406 513.253906 C 194.882812 512.875 200.964844 513.304688 201.828125 514.648438 Z M 201.828125 514.648438 " fill-opacity="1" fill-rule="nonzero"/><path fill="#ffffff" d="M 612.886719 84.324219 C 613.921875 90.769531 610.941406 95.765625 608.734375 101.519531 C 604.308594 113.046875 592.867188 140.664062 586.679688 150.160156 C 585.769531 151.554688 585.148438 154 582.820312 153.484375 C 579.894531 151.261719 577.636719 149.347656 577.394531 145.457031 C 577.015625 139.21875 593.796875 105.019531 598.121094 98.265625 C 599.464844 96.179688 609.890625 80.949219 612.886719 84.324219 Z M 612.886719 84.324219 " fill-opacity="1" fill-rule="nonzero"/></svg>