<svg xmlns="http://www.w3.org/2000/svg" xmlns:xlink="http://www.w3.org/1999/xlink" width="1080" zoomAndPan="magnify" viewBox="0 0 810 809.999993" height="1080" preserveAspectRatio="xMidYMid meet" version="1.0"><defs><clipPath id="ac7243874b"><path d="M 204 81 L 606.207031 81 L 606.207031 722 L 204 722 Z M 204 81 " clip-rule="nonzero"/></clipPath></defs><g clip-path="url(#ac7243874b)"><path fill="#ffffff" d="M 528.386719 438.457031 C 527.871094 438.558594 527.972656 439.074219 527.871094 439.382812 C 523.039062 459.640625 516.046875 479.074219 508.539062 498.507812 C 506.585938 503.648438 504.734375 508.789062 502.472656 513.828125 C 498.566406 522.878906 496.199219 532.335938 494.554688 542.003906 C 493.628906 547.660156 492.601562 553.417969 491.78125 559.175781 C 490.339844 569.355469 488.796875 579.433594 488.59375 589.714844 C 488.59375 590.125 488.488281 590.433594 488.386719 590.84375 C 488.078125 592.902344 487.5625 593.210938 485.710938 592.492188 C 484.789062 592.078125 483.964844 591.460938 483.246094 590.742188 C 477.898438 584.675781 472.757812 578.507812 469.15625 571.207031 C 467.511719 567.914062 465.96875 564.523438 464.632812 561.128906 C 462.269531 555.0625 462.164062 548.789062 462.578125 542.414062 C 462.988281 536.554688 463.503906 530.691406 464.632812 524.933594 C 465.25 521.539062 464.222656 518.457031 462.886719 515.371094 C 462.269531 514.035156 461.238281 513.625 459.800781 513.625 C 457.332031 513.625 456.820312 513.316406 456.304688 510.847656 C 455.277344 506.21875 454.246094 501.488281 453.21875 496.863281 C 452.707031 494.1875 453.425781 493.058594 456.097656 492.234375 C 459.800781 491.105469 463.503906 490.691406 467.203125 491.824219 C 469.464844 492.441406 471.523438 493.570312 473.785156 494.394531 C 474.402344 494.601562 475.121094 494.910156 475.839844 495.011719 C 478.207031 495.21875 480.367188 494.601562 481.703125 492.441406 C 482.9375 490.589844 483.65625 488.535156 484.171875 486.375 C 484.890625 483.390625 485.199219 480.308594 485.300781 477.324219 C 485.710938 464.679688 485.710938 451.925781 484.375 439.28125 C 484.066406 436.710938 484.171875 434.140625 484.171875 431.566406 C 484.171875 430.847656 484.171875 430.027344 484.171875 429.304688 C 483.449219 429.203125 483.347656 429.613281 483.039062 429.921875 C 476.5625 437.941406 469.15625 445.039062 461.753906 452.132812 C 453.734375 459.742188 445.40625 466.941406 437.382812 474.550781 C 428.128906 483.390625 418.671875 491.925781 410.03125 501.285156 C 404.582031 507.144531 399.648438 513.417969 395.429688 520.203125 C 393.066406 523.90625 391.316406 527.917969 390.085938 532.132812 C 387.308594 541.386719 384.941406 550.847656 383.402344 560.410156 C 380.933594 576.246094 378.875 592.183594 377.128906 608.121094 C 375.175781 626.113281 374.660156 644.007812 374.96875 662.105469 C 374.96875 663.953125 374.867188 664.058594 377.027344 664.160156 C 385.765625 664.675781 394.503906 665.601562 403.246094 666.320312 C 416.304688 667.347656 428.851562 670.535156 441.1875 674.546875 C 445.714844 675.984375 450.132812 677.835938 454.351562 679.996094 C 455.480469 680.613281 456.511719 681.230469 457.640625 681.847656 C 458.359375 682.257812 459.082031 682.875 459.699219 683.390625 C 462.679688 685.652344 462.0625 689.351562 463.089844 692.335938 C 463.707031 694.390625 462.269531 696.035156 461.035156 697.578125 C 458.050781 701.589844 453.9375 704.160156 449.519531 706.214844 C 441.804688 709.816406 433.683594 712.386719 425.355469 714.339844 C 408.386719 718.144531 391.316406 720.199219 373.941406 721.023438 C 364.070312 721.433594 354.199219 721.742188 344.328125 721.433594 C 329.003906 720.921875 313.992188 718.554688 299.597656 713.003906 C 295.277344 711.359375 291.164062 709.300781 287.15625 706.9375 C 284.6875 705.496094 282.527344 703.75 280.574219 701.691406 C 278.722656 699.636719 277.488281 697.375 276.976562 694.699219 C 276.257812 690.894531 277.078125 687.605469 279.648438 684.726562 C 281.601562 682.566406 283.96875 681.023438 286.332031 679.585938 C 293.429688 675.367188 301.242188 672.695312 309.261719 670.742188 C 313.171875 669.816406 317.078125 668.890625 320.882812 667.964844 C 324.277344 667.144531 327.875 667.039062 331.269531 666.421875 C 340.832031 664.675781 350.496094 664.058594 360.265625 663.75 C 362.425781 663.75 362.425781 663.75 362.425781 661.488281 C 362.425781 653.464844 361.601562 645.550781 361.394531 637.527344 C 361.292969 631.769531 360.882812 625.910156 360.675781 620.152344 C 360.367188 608.53125 359.339844 597.015625 358.515625 585.5 C 357.898438 576.65625 356.972656 567.914062 355.945312 559.074219 C 354.609375 547.863281 352.246094 536.863281 348.132812 526.269531 C 343.605469 514.652344 336.410156 504.78125 327.464844 496.039062 C 322.320312 491.105469 316.769531 486.683594 311.214844 482.160156 C 301.34375 474.136719 291.269531 466.21875 281.5 457.996094 C 268.132812 446.582031 256.203125 433.726562 245.40625 419.847656 C 231.320312 402.058594 220.011719 382.621094 210.550781 362.058594 C 208.90625 358.457031 207.566406 354.859375 205.820312 351.363281 C 203.453125 346.53125 204.6875 342.109375 207.15625 337.789062 C 208.597656 335.21875 210.859375 333.371094 213.328125 331.828125 C 219.289062 328.125 225.664062 325.347656 232.144531 322.984375 C 242.324219 319.28125 252.707031 316.402344 263.300781 314.347656 C 277.796875 311.46875 292.503906 310.851562 307.207031 311.363281 C 308.441406 311.363281 309.675781 311.46875 310.910156 311.570312 C 310.910156 311.570312 311.011719 311.570312 311.113281 311.46875 C 311.214844 310.644531 310.804688 309.925781 310.601562 309.207031 C 308.132812 301.90625 305.046875 294.707031 302.375 287.507812 C 302.066406 286.6875 301.859375 286.070312 300.726562 286.378906 C 295.484375 288.023438 290.34375 286.890625 285.203125 286.171875 C 274.300781 284.628906 265.5625 278.769531 257.746094 271.363281 C 253.015625 266.839844 251.167969 261.082031 250.960938 254.605469 C 250.960938 251.929688 251.578125 249.464844 252.707031 247.097656 C 253.632812 244.9375 254.867188 242.882812 256.101562 240.929688 C 256.925781 239.59375 257.746094 238.253906 258.261719 236.816406 C 258.878906 234.863281 258.054688 233.421875 256 233.011719 C 254.457031 232.804688 252.914062 232.703125 251.371094 232.394531 C 247.671875 231.570312 244.277344 229.824219 241.5 227.253906 C 240.988281 226.738281 240.472656 226.328125 240.0625 225.710938 C 239.136719 224.167969 239.957031 222.726562 241.808594 222.625 C 244.277344 222.625 246.847656 222.523438 249.316406 222.417969 C 251.785156 222.417969 253.941406 221.699219 255.792969 220.15625 C 260.007812 216.457031 263.503906 212.238281 265.769531 206.996094 C 266.691406 204.734375 266.898438 202.472656 266.488281 200.105469 C 265.664062 195.683594 264.019531 191.570312 261.140625 187.972656 C 258.46875 184.683594 256.203125 181.1875 254.355469 177.277344 C 252.914062 174.296875 252.195312 171.210938 252.398438 167.921875 C 252.707031 161.648438 256 157.226562 261.449219 154.246094 C 265.253906 152.191406 269.570312 151.367188 273.789062 150.441406 C 276.359375 149.925781 278.828125 149.3125 281.292969 148.695312 C 281.808594 148.589844 282.324219 148.386719 282.835938 148.179688 C 287.464844 146.636719 288.699219 144.582031 288.183594 139.644531 C 287.773438 135.738281 286.230469 132.035156 284.378906 128.640625 C 282.527344 125.351562 281.089844 121.855469 280.164062 118.257812 C 279.136719 114.453125 279.546875 110.855469 281.191406 107.253906 C 282.015625 105.507812 282.941406 103.757812 284.171875 102.214844 C 290.34375 94.8125 297.644531 88.953125 307 85.96875 C 314.40625 83.605469 321.191406 85.25 327.667969 89.261719 C 328.285156 89.671875 329.003906 90.082031 329.621094 90.492188 C 329.621094 90.492188 329.726562 90.492188 329.929688 90.492188 C 330.34375 89.878906 330.855469 89.261719 331.269531 88.644531 C 334.351562 84.222656 338.773438 81.960938 343.914062 81.546875 C 347 81.34375 349.878906 82.371094 352.246094 84.222656 C 356.152344 87.410156 360.777344 89.570312 364.582031 92.757812 C 365.199219 93.269531 365.921875 93.476562 366.742188 93.269531 C 368.902344 92.757812 371.164062 92.242188 373.425781 91.933594 C 379.492188 91.214844 384.941406 92.652344 389.46875 96.871094 C 391.832031 99.027344 393.992188 101.394531 395.84375 104.066406 C 398.617188 108.078125 401.804688 111.675781 405.40625 115.070312 C 406.640625 116.199219 407.875 117.539062 408.902344 118.875 C 410.957031 121.445312 411.265625 124.222656 410.445312 127.304688 C 410.03125 128.949219 409.3125 130.597656 408.488281 132.035156 C 406.84375 135.222656 405.097656 138.410156 403.347656 141.597656 C 402.113281 143.964844 401.191406 146.429688 400.574219 149.105469 C 399.648438 153.730469 401.292969 157.535156 405.300781 159.902344 C 406.742188 160.722656 408.285156 161.339844 409.828125 161.855469 C 414.042969 163.191406 417.847656 165.453125 421.445312 167.921875 C 427 171.828125 430.082031 177.382812 431.316406 183.859375 C 432.242188 189.207031 430.289062 193.730469 426.175781 197.226562 C 424.121094 198.976562 422.0625 200.621094 420.007812 202.265625 C 418.257812 203.707031 416.613281 205.246094 415.378906 207.304688 C 414.144531 209.359375 414.351562 210.492188 416.097656 212.035156 C 416.921875 212.855469 417.949219 213.472656 418.875 214.195312 C 421.859375 216.351562 424.632812 218.820312 426.894531 221.699219 C 433.476562 229.925781 434.8125 239.695312 428.851562 249.15625 C 427.410156 251.519531 425.664062 253.679688 423.707031 255.53125 C 422.988281 256.25 422.78125 256.867188 423.296875 257.792969 C 424.429688 259.953125 425.457031 262.109375 426.484375 264.371094 C 427.71875 267.253906 428.851562 270.132812 429.878906 273.421875 C 432.65625 271.363281 435.226562 269.515625 437.589844 267.457031 C 447.253906 259.027344 456.820312 250.492188 466.382812 241.957031 C 468.230469 240.3125 469.878906 238.667969 471.726562 237.019531 C 472.34375 236.507812 472.652344 235.992188 472.449219 234.964844 C 471.316406 231.160156 472.140625 227.5625 473.476562 223.960938 C 474.402344 221.289062 475.738281 218.820312 477.382812 216.457031 C 478.101562 215.425781 478.207031 214.503906 477.382812 213.472656 C 477.382812 213.371094 477.28125 213.164062 477.179688 213.0625 C 471.726562 204.015625 468.746094 194.144531 466.175781 183.964844 C 464.839844 178.617188 463.296875 173.371094 462.578125 167.921875 C 462.371094 166.484375 462.371094 165.144531 462.269531 163.707031 C 462.0625 162.0625 462.0625 160.414062 461.34375 158.875 C 460.726562 157.640625 461.035156 156.917969 462.164062 155.996094 C 463.089844 155.273438 464.222656 154.964844 465.351562 154.65625 C 471.007812 153.113281 476.765625 152.601562 482.523438 152.292969 C 484.992188 152.191406 487.460938 151.984375 490.132812 151.882812 C 489.515625 148.796875 489.003906 145.816406 488.488281 142.933594 C 487.050781 135.53125 485.507812 128.230469 484.171875 120.828125 C 483.964844 119.59375 483.347656 119.183594 482.320312 118.875 C 477.382812 117.539062 472.550781 116.097656 467.613281 114.761719 C 466.074219 114.351562 464.632812 113.835938 463.195312 113.320312 C 461.960938 112.910156 461.753906 112.191406 461.960938 110.648438 C 462.164062 109.3125 463.089844 109.515625 463.914062 109.621094 C 468.230469 110.441406 472.449219 111.367188 476.664062 112.703125 C 479.851562 113.628906 483.039062 114.964844 486.226562 116.097656 C 487.667969 116.613281 488.488281 117.539062 488.589844 118.976562 C 489.105469 122.988281 490.132812 126.996094 491.265625 130.90625 C 493.117188 137.28125 494.453125 143.65625 495.789062 150.132812 C 496.199219 151.882812 496.199219 151.984375 498.15625 151.882812 C 506.175781 151.675781 514.09375 151.984375 522.113281 152.5 C 526.019531 152.703125 529.925781 153.421875 533.628906 154.554688 C 534.347656 154.761719 534.964844 154.964844 535.582031 155.273438 C 538.050781 156.300781 538.667969 157.332031 538.566406 160.003906 C 538.460938 162.78125 538.050781 165.453125 537.332031 168.128906 C 534.761719 176.457031 532.191406 184.683594 529.515625 193.011719 C 528.179688 197.125 526.535156 201.238281 524.890625 205.554688 C 527.253906 205.863281 527.664062 207.511719 527.460938 209.359375 C 526.535156 216.148438 524.785156 222.726562 520.570312 228.382812 C 520.054688 229 519.542969 229.515625 519.027344 230.132812 C 518.71875 230.441406 518.308594 230.953125 517.792969 230.75 C 516.046875 230.234375 514.503906 231.367188 512.753906 231.367188 C 512.035156 231.367188 511.523438 231.570312 511.109375 232.085938 C 510.597656 232.601562 509.980469 233.113281 509.363281 233.214844 C 507.101562 233.628906 506.484375 235.171875 506.070312 237.125 C 504.734375 244.320312 503.5 251.621094 502.988281 258.921875 C 502.679688 263.34375 502.371094 267.664062 502.0625 272.085938 C 501.855469 275.167969 502.0625 278.355469 502.265625 281.441406 C 502.371094 282.777344 502.882812 283.085938 504.117188 283.292969 C 508.644531 284.011719 512.753906 285.863281 516.765625 288.230469 C 517.792969 288.84375 518.71875 289.460938 519.542969 290.386719 C 521.085938 292.136719 520.777344 294.089844 518.925781 295.425781 C 517.691406 296.351562 516.25 296.660156 514.710938 296.761719 C 506.585938 297.585938 498.460938 297.894531 490.339844 297.378906 C 487.253906 297.175781 484.273438 297.175781 481.1875 296.660156 C 480.058594 296.453125 478.824219 296.351562 477.691406 295.941406 C 475.019531 295.117188 474.402344 293.0625 476.253906 290.902344 C 477.382812 289.566406 478.71875 288.535156 480.261719 287.714844 C 482.730469 286.378906 485.507812 285.554688 488.179688 284.9375 C 490.132812 284.527344 491.984375 284.011719 493.734375 283.191406 C 494.964844 282.675781 495.480469 281.957031 495.6875 280.621094 C 496.199219 274.964844 496.304688 269.410156 496.097656 263.757812 C 495.789062 256.351562 494.554688 248.949219 494.246094 241.546875 C 494.246094 240.929688 494.246094 240.3125 493.734375 239.695312 C 490.957031 241.441406 487.972656 242.78125 484.683594 243.394531 C 483.964844 243.5 483.757812 244.011719 483.449219 244.628906 C 476.148438 261.390625 465.457031 275.785156 452.292969 288.332031 C 447.769531 292.546875 443.554688 297.070312 438.515625 300.773438 C 435.84375 302.726562 432.960938 304.476562 430.1875 306.429688 C 427.203125 308.382812 423.503906 307.558594 421.136719 305.503906 C 414.453125 299.640625 409.210938 292.753906 404.480469 285.246094 C 404.171875 284.835938 404.070312 284.21875 403.347656 283.808594 C 403.144531 284.320312 402.9375 284.9375 402.835938 285.453125 C 401.703125 290.800781 401.085938 296.25 400.46875 301.699219 C 400.265625 303.242188 400.46875 304.785156 400.46875 306.429688 C 400.675781 309.820312 402.320312 312.394531 405.300781 314.039062 C 408.285156 315.683594 411.472656 316.609375 414.761719 317.429688 C 423.605469 319.589844 432.449219 321.339844 441.1875 324.011719 C 442.421875 324.421875 443.449219 324.011719 444.480469 323.394531 C 454.351562 318.046875 464.53125 313.523438 475.328125 310.335938 C 483.554688 307.867188 491.882812 306.324219 500.519531 306.324219 C 500.726562 306.324219 501.035156 306.324219 501.238281 306.324219 C 506.894531 306.839844 505.457031 307.046875 511.417969 303.960938 C 516.355469 301.390625 521.394531 299.539062 526.84375 298.511719 C 531.777344 297.484375 536.714844 296.351562 541.855469 295.734375 C 545.042969 295.324219 548.230469 295.117188 551.417969 295.527344 C 555.121094 296.042969 558.308594 297.585938 560.878906 300.257812 C 562.523438 302.007812 563.964844 303.960938 564.992188 306.222656 C 569.105469 315.992188 572.085938 326.070312 572.496094 336.863281 C 572.804688 346.738281 572.1875 356.609375 570.851562 366.375 C 570.03125 372.238281 569.722656 378.203125 569.515625 384.164062 C 569.105469 392.289062 567.769531 400.308594 566.738281 408.433594 C 565.503906 418.507812 564.375 428.6875 563.757812 438.765625 C 563.449219 444.214844 563.964844 449.769531 564.578125 455.21875 C 565.402344 462.414062 566.019531 469.714844 567.253906 476.914062 C 568.074219 481.746094 569.414062 486.476562 570.851562 491.308594 C 571.777344 494.394531 572.601562 497.480469 573.421875 500.5625 C 573.835938 502.003906 574.347656 503.339844 575.066406 504.675781 C 575.683594 505.808594 576.300781 506.835938 576.714844 508.070312 C 577.949219 511.773438 580.003906 514.960938 582.164062 518.148438 C 584.324219 521.335938 586.480469 524.523438 588.539062 527.710938 C 591.726562 532.851562 596.457031 536.554688 600.363281 541.078125 C 601.90625 542.824219 603.550781 544.472656 604.886719 546.425781 C 605.195312 546.835938 605.503906 547.351562 605.8125 547.761719 C 606.53125 549.304688 605.8125 550.433594 604.167969 550.539062 C 602.832031 550.539062 601.496094 550.539062 600.15625 550.433594 C 591.625 549.613281 583.398438 547.453125 575.582031 543.75 C 572.804688 542.515625 569.925781 541.386719 567.152344 540.253906 C 564.167969 539.019531 561.289062 537.582031 558.617188 535.832031 C 555.429688 533.777344 552.550781 531.410156 550.390625 528.328125 C 547.921875 524.832031 545.042969 521.746094 541.546875 519.277344 C 540.3125 518.351562 539.183594 517.429688 538.257812 516.195312 C 537.640625 515.371094 537.125 515.164062 536.199219 515.988281 C 534.554688 517.324219 534.246094 517.324219 532.703125 515.78125 C 530.851562 513.933594 529.003906 512.183594 527.5625 510.023438 C 527.046875 509.203125 526.328125 508.480469 525.507812 507.761719 C 524.683594 507.042969 524.582031 506.324219 525.09375 505.292969 C 526.535156 502.621094 527.972656 499.949219 530.339844 497.890625 C 531.160156 497.171875 532.085938 496.554688 533.011719 496.039062 C 536.304688 494.085938 539.800781 492.542969 542.472656 489.664062 C 543.398438 488.738281 543.605469 488.019531 543.191406 486.785156 C 541.855469 482.671875 539.902344 478.867188 538.460938 474.753906 C 536.40625 469.304688 533.835938 464.164062 532.191406 458.609375 C 530.441406 452.648438 529.3125 446.582031 528.386719 440.515625 C 528.386719 440.101562 528.179688 439.589844 528.078125 439.175781 C 528.078125 439.175781 527.972656 439.175781 527.871094 439.175781 Z M 315.433594 468.894531 C 314.300781 468.894531 313.683594 468.378906 313.066406 467.96875 C 305.972656 463.753906 299.390625 458.816406 293.324219 453.265625 C 275.433594 437.019531 259.085938 419.539062 245.714844 399.382812 C 244.6875 397.839844 244.6875 397.839844 243.144531 398.5625 C 241.808594 399.179688 240.472656 399.898438 239.238281 400.617188 C 237.59375 401.644531 237.59375 401.644531 238.621094 403.1875 C 251.679688 421.695312 266.28125 438.972656 283.144531 454.191406 C 291.988281 462.109375 301.035156 469.613281 310.1875 477.121094 C 319.855469 485.039062 329.417969 492.957031 337.644531 502.414062 C 344.738281 510.539062 350.597656 519.382812 353.785156 529.972656 C 354.917969 533.777344 355.84375 537.683594 356.871094 541.488281 C 358.414062 547.351562 359.132812 553.519531 359.957031 559.484375 C 361.085938 568.019531 362.734375 576.449219 363.65625 584.984375 C 365.304688 600.203125 366.332031 615.421875 365.921875 630.640625 C 365.714844 640.613281 365.507812 650.691406 365.199219 660.664062 C 365.199219 662.207031 364.996094 663.75 364.996094 665.394531 C 364.996094 666.320312 364.582031 666.628906 363.761719 666.628906 C 363.144531 666.628906 362.527344 666.628906 361.910156 666.628906 C 355.019531 666.628906 348.132812 667.246094 341.34375 668.273438 C 336.820312 668.992188 332.5 670.125 327.976562 670.742188 C 318.621094 672.078125 309.367188 674.03125 300.316406 677.117188 C 294.660156 679.070312 289.210938 681.742188 284.378906 685.445312 C 279.957031 688.839844 279.546875 693.363281 282.734375 697.785156 C 284.171875 699.738281 285.921875 701.28125 287.773438 702.617188 C 291.0625 704.984375 294.765625 706.730469 298.464844 708.375 C 313.789062 714.855469 330.035156 717.527344 346.484375 718.144531 C 367.667969 718.863281 388.746094 717.21875 409.621094 713.929688 C 420.007812 712.285156 430.1875 710.019531 440.160156 706.523438 C 445.199219 704.777344 449.929688 702.410156 454.351562 699.328125 C 456.511719 697.785156 458.050781 695.726562 458.875 693.15625 C 460.210938 689.457031 459.390625 686.886719 455.996094 684.726562 C 453.015625 682.773438 449.828125 681.128906 446.332031 679.894531 C 440.46875 677.835938 434.609375 675.882812 428.542969 674.546875 C 418.363281 672.386719 408.078125 670.742188 397.898438 668.890625 C 390.085938 667.449219 382.269531 666.835938 374.351562 666.835938 C 372.808594 666.835938 372.398438 666.527344 372.398438 664.570312 C 372.398438 659.84375 371.574219 655.113281 371.78125 650.277344 C 371.882812 647.195312 371.78125 644.007812 371.574219 640.921875 C 371.265625 631.359375 371.882812 621.796875 372.914062 612.335938 C 374.144531 601.640625 375.484375 590.847656 376.820312 580.152344 C 378.566406 567.09375 380.316406 554.136719 382.988281 541.179688 C 384.632812 533.160156 387.410156 525.652344 391.421875 518.660156 C 394.609375 513.007812 398.617188 507.863281 403.039062 503.03125 C 410.03125 495.21875 417.746094 488.121094 425.355469 480.820312 C 429.160156 477.222656 432.859375 473.519531 436.765625 470.023438 C 442.421875 464.882812 448.179688 460.050781 453.835938 454.910156 C 459.699219 449.5625 465.351562 444.113281 470.597656 438.148438 C 474.914062 433.214844 479.132812 428.070312 483.757812 423.546875 C 484.480469 422.828125 484.582031 422.109375 484.683594 421.285156 C 485.09375 418.097656 484.992188 414.910156 485.507812 411.722656 C 485.710938 410.386719 486.636719 408.84375 485.917969 407.917969 C 485.300781 406.992188 483.554688 406.890625 482.320312 406.375 C 480.367188 405.65625 480.367188 405.65625 479.542969 407.507812 C 476.253906 413.984375 472.449219 420.257812 468.335938 426.222656 C 460.417969 437.429688 451.472656 447.816406 441.703125 457.480469 C 436.765625 462.3125 431.523438 466.734375 425.867188 470.746094 C 425.457031 471.054688 424.941406 471.671875 424.121094 471.15625 C 424.632812 470.539062 425.148438 469.921875 425.664062 469.40625 C 437.898438 456.144531 449.828125 442.46875 461.136719 428.378906 C 466.277344 422.003906 471.007812 415.21875 474.914062 408.019531 C 475.328125 407.199219 476.046875 406.375 476.046875 405.246094 C 475.328125 404.832031 474.605469 404.9375 473.886719 404.9375 C 470.699219 404.9375 467.613281 405.347656 464.632812 406.375 C 460.316406 407.710938 456.097656 409.460938 451.882812 411.003906 C 444.683594 413.777344 437.179688 414.808594 429.570312 413.882812 C 424.839844 413.367188 420.109375 412.441406 415.480469 411.515625 C 414.042969 411.207031 412.707031 411.207031 411.265625 411.515625 C 403.863281 412.855469 396.460938 413.164062 389.054688 411.824219 C 382.371094 410.695312 376.304688 408.019531 370.445312 404.9375 C 369.109375 404.214844 367.875 403.90625 366.433594 404.011719 C 361.601562 404.214844 356.769531 404.832031 351.9375 405.65625 C 351.011719 405.757812 350.289062 406.171875 349.777344 406.890625 C 348.335938 408.636719 346.691406 410.179688 345.457031 412.132812 C 344.738281 413.265625 343.605469 414.5 342.269531 413.984375 C 340.625 413.367188 340.214844 414.292969 339.492188 415.21875 C 338.878906 416.042969 338.261719 416.863281 337.746094 417.6875 C 336.921875 419.125 335.585938 419.949219 334.351562 420.875 C 333.53125 421.492188 331.0625 421.386719 330.34375 420.667969 C 329.210938 419.433594 327.875 418.304688 327.566406 416.453125 C 327.359375 415.21875 326.949219 413.984375 326.742188 412.855469 C 326.332031 410.898438 326.230469 410.796875 324.277344 411.105469 C 321.292969 411.515625 318.207031 411.929688 315.125 411.621094 C 308.132812 411.003906 301.140625 409.769531 294.351562 407.816406 C 285.820312 405.449219 277.59375 402.160156 269.265625 399.382812 C 265.769531 398.253906 262.273438 397.019531 258.671875 396.503906 C 255.691406 396.09375 252.8125 396.09375 249.828125 396.710938 C 249.828125 397.738281 250.550781 398.253906 250.960938 398.871094 C 265.046875 417.890625 280.164062 436.09375 297.027344 452.75 C 302.167969 457.890625 307.617188 462.722656 313.375 467.25 C 313.992188 467.761719 314.816406 468.175781 315.328125 469.101562 Z M 472.140625 496.65625 C 471.832031 497.273438 472.140625 497.582031 472.140625 497.890625 C 475.222656 507.660156 477.28125 517.53125 477.488281 527.8125 C 477.589844 535.320312 478.515625 542.824219 479.953125 550.125 C 480.878906 554.652344 482.421875 558.867188 485.507812 562.363281 C 485.917969 562.878906 486.226562 563.492188 487.050781 563.183594 C 487.667969 562.878906 488.285156 562.570312 488.488281 561.746094 C 488.488281 561.335938 488.488281 560.921875 488.59375 560.613281 C 489.003906 557.425781 489.414062 554.238281 489.824219 551.050781 C 491.265625 539.636719 493.527344 528.53125 497.230469 517.632812 C 501.753906 504.164062 506.792969 490.796875 511.726562 477.429688 C 519.132812 457.378906 524.273438 436.8125 528.898438 416.042969 C 530.75 407.609375 532.808594 399.074219 534.144531 390.539062 C 535.789062 379.742188 537.023438 368.84375 537.742188 357.84375 C 538.050781 353.523438 538.667969 349.101562 538.460938 344.679688 C 538.152344 339.746094 537.84375 334.808594 537.640625 329.875 C 537.332031 322.882812 533.527344 318.253906 527.5625 315.066406 C 524.890625 313.625 522.011719 312.597656 518.925781 312.1875 C 515.53125 311.671875 512.140625 311.054688 508.746094 310.542969 C 502.882812 309.617188 496.921875 309.207031 490.957031 310.234375 C 482.214844 311.671875 473.886719 314.347656 465.867188 317.636719 C 453.632812 322.675781 442.011719 329.050781 430.496094 335.527344 C 419.902344 341.492188 410.339844 349.101562 401.191406 357.019531 C 399.851562 358.152344 398.3125 360.617188 398.003906 361.851562 C 400.058594 361.851562 402.011719 361.851562 404.070312 361.851562 C 418.257812 361.339844 432.347656 360.722656 446.535156 360.207031 C 459.492188 359.796875 472.449219 358.664062 485.402344 357.328125 C 486.226562 357.328125 486.84375 356.917969 487.460938 356.402344 C 489.824219 354.347656 492.703125 352.90625 495.6875 351.980469 C 497.023438 351.570312 498.359375 351.363281 499.800781 351.054688 C 498.976562 349.308594 497.847656 348.074219 496.097656 347.457031 C 495.480469 347.25 494.554688 347.148438 494.863281 346.121094 C 495.070312 345.296875 495.789062 345.195312 496.613281 345.195312 C 497.433594 345.195312 498.15625 345.503906 498.773438 346.015625 C 501.035156 347.457031 502.371094 349.410156 502.78125 352.082031 C 502.988281 353.933594 503.089844 355.785156 503.296875 357.636719 C 503.808594 363.292969 503.296875 368.84375 501.546875 374.292969 C 499.386719 381.390625 497.125 388.484375 494.96875 395.578125 C 491.058594 408.433594 488.796875 421.59375 489.105469 435.167969 C 489.207031 441.851562 489.414062 448.433594 489.3125 455.117188 C 489.3125 463.855469 489.3125 472.699219 488.179688 481.335938 C 487.5625 485.964844 486.535156 490.386719 483.964844 494.394531 C 482.320312 496.964844 480.058594 497.789062 477.179688 497.582031 C 475.53125 497.378906 473.886719 496.964844 472.34375 496.347656 Z M 512.34375 306.632812 C 513.0625 307.25 513.886719 307.25 514.605469 307.355469 C 519.335938 308.074219 523.964844 308.898438 528.386719 310.953125 C 533.527344 313.316406 536.921875 317.121094 538.769531 322.46875 C 539.800781 325.554688 540.109375 328.742188 540.621094 331.929688 C 541.445312 337.6875 541.546875 343.445312 541.648438 349.308594 C 541.957031 361.234375 541.238281 373.058594 539.386719 384.886719 C 537.023438 399.488281 533.9375 413.984375 530.542969 428.378906 C 530.238281 429.71875 530.132812 430.953125 530.441406 432.289062 C 531.882812 440.101562 533.628906 447.710938 535.789062 455.421875 C 538.460938 465.191406 542.371094 474.445312 545.96875 483.90625 C 546.894531 486.476562 546.378906 488.429688 544.941406 490.488281 C 544.324219 491.308594 543.605469 492.03125 542.78125 492.648438 C 541.238281 493.984375 539.59375 495.21875 537.949219 496.453125 C 535.789062 498.097656 535.6875 499.023438 537.640625 500.976562 C 540.003906 503.445312 542.574219 505.808594 545.042969 508.171875 C 552.34375 515.164062 560.777344 520.617188 569.617188 525.34375 C 574.554688 527.917969 579.796875 529.765625 584.941406 531.722656 C 585.351562 531.824219 585.660156 532.027344 586.070312 532.132812 C 586.996094 532.335938 587.40625 532.027344 587.40625 531 C 587.40625 530.382812 587.097656 529.765625 586.789062 529.253906 C 585.761719 527.609375 584.835938 525.859375 583.601562 524.316406 C 580.3125 520.308594 577.84375 515.78125 575.171875 511.359375 C 570.648438 503.753906 568.078125 495.421875 565.710938 486.886719 C 564.273438 481.644531 562.933594 476.398438 562.316406 471.054688 C 561.496094 464.164062 560.777344 457.171875 560.160156 450.28125 C 559.644531 444.320312 559.335938 438.25 560.160156 432.289062 C 560.878906 427.042969 561.394531 421.902344 561.804688 416.660156 C 562.113281 412.441406 562.625 408.226562 563.242188 404.113281 C 564.785156 394.34375 566.121094 384.578125 566.328125 374.707031 C 566.535156 368.945312 567.152344 363.1875 567.972656 357.429688 C 569.207031 347.664062 568.898438 337.894531 567.769531 328.125 C 566.945312 321.132812 564.273438 314.65625 561.90625 308.175781 C 559.4375 301.390625 554.605469 298.613281 547.410156 299.4375 C 541.238281 300.15625 534.964844 301.082031 528.796875 302.214844 C 524.582031 302.933594 520.570312 303.960938 516.558594 305.296875 C 515.222656 305.710938 513.886719 306.222656 512.652344 306.941406 Z M 393.582031 131.625 C 394.507812 127.820312 394.507812 124.222656 394.507812 120.621094 C 394.507812 119.078125 393.785156 118.359375 392.550781 117.847656 C 391.625 117.433594 390.703125 117.433594 389.777344 117.433594 C 387.515625 117.433594 385.355469 117.847656 383.402344 118.667969 C 379.90625 120.109375 376.820312 119.59375 373.839844 117.539062 C 373.222656 117.125 372.707031 116.714844 372.089844 116.40625 C 368.902344 114.351562 365.921875 112.085938 362.527344 110.441406 C 358.105469 108.28125 353.683594 108.179688 349.058594 109.722656 C 347.71875 110.238281 346.898438 110.855469 346.792969 112.601562 C 346.792969 114.042969 346.382812 115.582031 345.972656 117.023438 C 345.253906 120.003906 343.402344 121.957031 340.523438 122.988281 C 339.183594 123.398438 337.847656 123.914062 336.511719 124.222656 C 335.277344 124.53125 334.96875 125.042969 334.96875 126.378906 C 335.175781 130.390625 335.175781 134.402344 335.277344 138.308594 C 335.277344 138.925781 335.484375 139.644531 334.660156 139.953125 C 334.042969 140.261719 333.632812 139.851562 333.117188 139.542969 C 332.707031 139.335938 332.296875 139.027344 331.988281 138.71875 C 330.652344 137.691406 329.210938 137.28125 327.566406 137.382812 C 325.714844 137.382812 324.996094 137.898438 324.378906 139.542969 C 323.351562 142.320312 323.453125 145.09375 324.585938 147.769531 C 325.921875 151.058594 327.976562 153.9375 330.546875 156.40625 C 331.886719 157.640625 332.398438 159.078125 332.5 160.722656 C 332.5 161.957031 332.5 163.191406 332.5 164.527344 C 332.398438 168.332031 331.679688 172.136719 331.371094 175.941406 C 330.855469 183.65625 328.59375 190.851562 325.203125 197.742188 C 323.246094 201.648438 320.675781 205.042969 317.488281 208.023438 C 316.050781 209.359375 314.40625 210.390625 312.554688 211.519531 C 320.78125 218.820312 327.050781 227.355469 332.605469 236.609375 C 332.808594 236.609375 333.015625 236.507812 333.117188 236.40625 C 335.585938 234.347656 336.921875 234.347656 339.289062 236.609375 C 339.699219 237.019531 340.007812 236.917969 340.523438 236.710938 C 344.019531 235.683594 345.253906 236.097656 347.308594 238.976562 C 347.824219 239.695312 348.132812 239.695312 348.953125 239.488281 C 351.421875 238.871094 353.167969 239.695312 354.507812 241.75 C 354.710938 242.164062 354.816406 242.675781 355.328125 242.984375 C 356.972656 242.574219 358.621094 242.265625 360.160156 243.601562 C 361.601562 244.9375 361.601562 246.789062 361.910156 248.539062 C 364.996094 248.125 367.152344 248.949219 368.183594 251.929688 C 368.492188 252.753906 369.109375 252.855469 369.726562 252.855469 C 370.035156 252.136719 369.726562 251.621094 369.726562 251.109375 C 369.726562 249.875 369.929688 248.742188 370.648438 247.816406 C 371.574219 246.480469 372.808594 243.808594 373.015625 242.367188 C 373.015625 241.855469 373.117188 241.238281 373.324219 240.722656 C 373.734375 239.59375 374.453125 238.5625 375.6875 238.359375 C 376.820312 238.253906 377.128906 237.636719 377.4375 236.609375 C 378.054688 234.039062 378.875 233.421875 381.445312 233.214844 C 382.167969 233.214844 382.476562 232.910156 382.476562 232.292969 C 382.476562 231.367188 382.476562 230.441406 382.476562 229.515625 C 382.371094 226.328125 382.679688 223.242188 383.195312 220.15625 C 383.605469 217.585938 383.710938 215.015625 384.019531 212.445312 C 384.121094 211.210938 383.605469 210.800781 382.476562 210.59375 C 380.417969 210.183594 378.464844 210.082031 376.410156 210.59375 C 372.398438 211.625 368.285156 212.34375 364.171875 212.445312 C 355.945312 212.753906 349.671875 207.511719 348.644531 199.386719 C 348.132812 195.480469 348.542969 191.777344 349.570312 187.972656 C 349.980469 186.328125 350.085938 186.328125 348.441406 185.503906 C 346.382812 184.375 344.429688 183.039062 342.679688 181.496094 C 341.242188 180.261719 340.933594 179.4375 341.449219 178.820312 C 342.375 177.894531 343.402344 178.617188 344.222656 179.027344 C 346.898438 180.46875 349.570312 181.90625 352.347656 183.242188 C 356.152344 185.09375 360.160156 186.429688 364.378906 186.84375 C 365.714844 186.945312 366.949219 186.84375 368.285156 186.226562 C 375.996094 182.933594 381.753906 177.175781 386.792969 170.800781 C 387.101562 170.390625 387.410156 169.980469 387.515625 169.566406 C 388.644531 165.761719 390.1875 162.0625 390.394531 158.050781 C 390.597656 155.378906 390.703125 152.703125 390.804688 150.132812 C 390.804688 149.722656 391.113281 149.207031 390.496094 149.003906 C 390.085938 149.003906 389.878906 149.207031 389.777344 149.515625 C 389.160156 150.542969 388.371094 150.648438 387.410156 149.824219 C 386.589844 149.105469 385.664062 149.105469 384.738281 149.824219 C 384.222656 150.339844 383.8125 150.957031 382.679688 150.957031 C 383.914062 148.695312 382.269531 148.179688 380.828125 147.355469 C 380.214844 147.046875 379.699219 147.046875 379.082031 147.253906 C 378.566406 147.460938 377.847656 147.664062 377.640625 146.945312 C 377.332031 146.125 378.15625 146.019531 378.671875 145.710938 C 379.699219 145.09375 380.726562 145.199219 381.859375 145.710938 C 384.019531 146.535156 386.28125 146.84375 388.542969 146.636719 C 391.523438 146.328125 391.316406 146.019531 391.421875 143.757812 C 391.421875 143.242188 391.523438 142.832031 391.625 142.320312 C 392.039062 139.953125 392.347656 137.691406 392.757812 135.328125 C 392.964844 134.402344 392.65625 133.988281 391.625 133.679688 C 389.160156 133.0625 386.691406 133.0625 384.222656 133.785156 C 383.605469 133.988281 382.886719 134.710938 382.476562 133.785156 C 382.0625 132.859375 382.988281 132.445312 383.710938 132.035156 C 384.019531 131.933594 384.324219 131.832031 384.53125 131.726562 C 387.308594 130.492188 390.1875 130.699219 393.273438 131.933594 Z M 367.769531 260.15625 C 365.304688 256.96875 363.042969 254.5 360.367188 252.445312 C 352.964844 246.894531 344.738281 242.984375 335.894531 240.3125 C 335.382812 240.105469 334.765625 239.796875 334.042969 240.3125 C 334.042969 242.675781 333.53125 245.042969 333.117188 247.507812 C 331.988281 253.371094 331.0625 259.230469 330.753906 265.195312 C 330.34375 274.449219 330.445312 283.703125 330.753906 292.855469 C 330.753906 295.425781 331.269531 297.996094 332.605469 300.363281 C 333.734375 302.417969 334.765625 304.578125 335.792969 306.632812 C 336.101562 307.25 336.511719 307.765625 337.128906 308.175781 C 341.140625 310.851562 345.046875 313.523438 349.058594 316.09375 C 353.992188 319.28125 358.722656 322.675781 363.554688 325.964844 C 365.40625 327.199219 366.125 329.050781 366.023438 331.210938 C 366.023438 332.238281 365.613281 333.371094 365.921875 334.5 C 371.164062 334.089844 376.304688 333.574219 381.445312 332.648438 C 391.214844 330.902344 400.574219 327.917969 409.003906 322.367188 C 409.929688 321.75 410.855469 321.234375 411.472656 320.308594 C 410.753906 319.695312 410.03125 319.589844 409.3125 319.386719 C 407.566406 318.769531 405.714844 318.152344 404.070312 317.226562 C 400.777344 315.375 398.617188 312.703125 398.003906 309 C 397.589844 306.738281 397.488281 304.476562 397.695312 302.214844 C 398.105469 295.734375 398.824219 289.257812 400.984375 283.085938 C 401.394531 282.058594 401.804688 280.929688 401.601562 279.488281 C 398.515625 280.824219 395.535156 281.851562 392.242188 281.238281 C 387.71875 280.3125 385.355469 278.972656 384.429688 276.507812 C 386.484375 276.300781 388.335938 276.917969 390.085938 277.433594 C 392.242188 278.050781 394.300781 278.460938 396.5625 277.945312 C 402.421875 276.609375 405.609375 272.496094 407.257812 267.148438 C 408.796875 262.109375 407.257812 257.378906 404.378906 253.164062 C 402.320312 250.183594 400.058594 247.40625 397.898438 244.527344 C 394.917969 240.515625 390.703125 238.460938 385.972656 237.125 C 385.148438 236.917969 384.738281 237.125 384.222656 237.742188 C 379.390625 243.398438 376.71875 250.082031 375.070312 257.277344 C 374.867188 258.304688 374.761719 259.335938 374.558594 260.464844 C 375.484375 260.261719 375.792969 259.539062 376.304688 259.128906 C 378.054688 257.382812 380.007812 255.941406 382.167969 254.808594 C 383.09375 254.296875 384.121094 253.886719 385.25 253.78125 C 386.691406 253.679688 387.925781 253.886719 388.746094 255.117188 C 389.46875 256.25 389.261719 257.484375 388.746094 258.71875 C 387.925781 260.363281 386.691406 261.390625 385.148438 262.316406 C 383.605469 263.34375 381.859375 263.960938 379.90625 264.886719 C 382.167969 265.710938 384.429688 265.503906 386.484375 266.121094 C 385.867188 266.839844 385.148438 267.046875 384.53125 267.148438 C 381.652344 267.664062 378.773438 267.972656 375.894531 267.148438 C 374.867188 266.839844 374.25 266.945312 373.425781 267.664062 C 371.0625 269.617188 368.695312 271.46875 366.230469 273.320312 C 365.304688 274.039062 364.378906 274.757812 363.042969 274.449219 C 363.042969 274.039062 363.042969 273.628906 363.246094 273.421875 C 364.480469 270.851562 366.949219 269.515625 369.109375 267.253906 C 367.257812 267.355469 365.816406 267.5625 364.378906 267.5625 C 362.628906 267.5625 360.882812 267.355469 359.441406 266.429688 C 357.695312 265.296875 357.488281 263.550781 358.722656 262.007812 C 359.546875 260.980469 360.675781 260.464844 361.910156 260.15625 C 363.761719 259.746094 365.613281 259.746094 367.976562 259.953125 Z M 327.875 277.535156 C 327.875 276.402344 327.875 275.167969 327.875 274.039062 C 328.082031 267.867188 327.875 261.699219 328.800781 255.53125 C 329.417969 250.800781 330.238281 246.070312 331.164062 241.441406 C 331.679688 239.179688 331.164062 237.328125 329.929688 235.480469 C 325.507812 228.382812 319.855469 222.316406 313.683594 216.765625 C 312.554688 215.734375 311.21875 214.8125 309.984375 213.886719 C 309.261719 213.269531 308.441406 213.164062 307.617188 213.472656 C 304.121094 214.707031 300.523438 216.042969 297.027344 217.175781 C 293.839844 218.203125 291.886719 220.363281 291.0625 223.550781 C 289.109375 230.75 288.902344 238.050781 291.0625 245.144531 C 294.660156 256.765625 298.980469 268.28125 303.300781 279.695312 C 306.691406 288.742188 310.394531 297.585938 313.171875 306.839844 C 313.789062 309.101562 314.40625 311.363281 315.226562 313.523438 C 317.796875 320.925781 320.265625 328.332031 324.171875 335.117188 C 327.773438 341.285156 331.0625 347.558594 334.25 353.933594 C 335.175781 355.785156 336.101562 357.535156 336.921875 359.382812 C 337.335938 360.308594 337.847656 360.824219 338.980469 360.824219 C 342.683594 360.824219 346.382812 361.03125 349.980469 361.132812 C 351.832031 361.132812 351.832031 361.03125 351.421875 359.28125 C 350.496094 355.785156 349.367188 352.390625 348.644531 348.894531 C 347 340.566406 343.605469 332.753906 340.523438 324.9375 C 337.644531 317.429688 333.632812 310.335938 330.753906 302.828125 C 329.519531 299.640625 327.773438 296.660156 327.773438 293.0625 C 327.773438 292.238281 327.359375 291.417969 327.257812 290.59375 C 326.332031 286.582031 325.613281 282.675781 324.996094 278.5625 C 324.277344 273.011719 323.863281 267.355469 322.628906 261.800781 C 321.910156 258.613281 320.984375 255.425781 320.675781 252.136719 C 320.675781 251.621094 320.574219 251.003906 320.574219 250.492188 C 320.574219 250.183594 320.78125 249.875 321.089844 249.773438 C 321.398438 249.773438 321.707031 249.875 321.808594 250.183594 C 321.910156 250.59375 322.117188 250.902344 322.21875 251.3125 C 323.246094 254.707031 324.378906 258.203125 325.203125 261.699219 C 326.433594 266.839844 326.949219 272.1875 327.976562 277.433594 Z M 513.371094 217.484375 C 512.859375 216.96875 512.34375 216.96875 511.832031 216.765625 C 510.390625 216.351562 509.054688 215.734375 508.953125 214.089844 C 508.953125 212.445312 510.289062 212.035156 511.523438 211.417969 C 515.019531 209.773438 518.410156 208.128906 521.90625 206.480469 C 522.628906 206.171875 523.039062 205.761719 523.246094 205.042969 C 524.167969 202.367188 525.09375 199.695312 526.019531 197.023438 C 527.972656 190.957031 529.824219 184.785156 531.984375 178.71875 C 533.9375 173.371094 535.070312 167.714844 537.023438 162.371094 C 537.125 161.957031 537.230469 161.648438 537.230469 161.238281 C 537.433594 159.386719 537.332031 159.386719 535.6875 158.460938 C 533.734375 157.433594 531.675781 156.816406 529.515625 156.40625 C 519.335938 154.554688 509.15625 154.453125 498.875 154.246094 C 498.667969 154.246094 498.566406 154.246094 498.359375 154.246094 C 497.640625 154.246094 497.433594 154.65625 497.539062 155.378906 C 497.847656 157.023438 498.050781 158.769531 498.464844 160.414062 C 498.875 162.371094 498.976562 162.472656 501.035156 162.265625 C 509.671875 161.546875 518.410156 161.957031 527.046875 161.339844 C 529.515625 161.136719 531.984375 161.339844 534.453125 161.855469 C 534.453125 162.679688 533.835938 162.78125 533.320312 162.988281 C 531.46875 163.808594 529.414062 164.324219 527.460938 164.324219 C 522.730469 164.527344 517.898438 164.941406 513.167969 164.941406 C 502.78125 164.941406 492.5 164.117188 482.214844 164.425781 C 477.179688 164.527344 472.449219 163.707031 467.71875 161.855469 C 467 161.546875 466.175781 161.136719 465.148438 161.339844 C 465.96875 165.558594 466.691406 169.671875 467.617188 173.679688 C 471.214844 188.179688 475.839844 202.265625 482.730469 215.53125 C 484.992188 219.953125 487.667969 224.066406 491.164062 227.5625 C 492.703125 229 494.351562 230.132812 496.304688 230.644531 C 498.976562 231.367188 501.753906 231.878906 504.632812 231.675781 C 506.277344 231.570312 507.820312 231.160156 509.363281 230.542969 C 509.980469 230.234375 510.390625 230.027344 510.082031 229.105469 C 509.570312 227.765625 510.183594 226.738281 511.109375 225.710938 C 511.523438 225.195312 512.140625 224.886719 512.34375 224.269531 C 511.726562 223.550781 510.90625 223.652344 510.289062 223.34375 C 508.539062 222.421875 508.335938 221.1875 509.875 219.953125 C 510.90625 219.027344 512.140625 218.308594 513.269531 217.382812 Z M 242.835938 395.476562 C 242.734375 394.449219 242.117188 393.726562 241.605469 393.007812 C 239.753906 389.921875 237.800781 386.839844 235.949219 383.855469 C 235.226562 382.726562 234.613281 381.59375 234.199219 380.257812 C 233.890625 379.230469 233.480469 378.097656 234.714844 377.585938 C 235.84375 376.96875 236.257812 378.203125 236.875 378.921875 C 240.164062 383.34375 243.453125 387.765625 246.332031 392.289062 C 247.15625 393.625 248.082031 393.933594 249.625 393.726562 C 254.148438 392.90625 258.671875 393.109375 263.09375 394.34375 C 269.878906 396.296875 276.769531 398.253906 283.453125 400.617188 C 291.164062 403.394531 298.980469 405.964844 307.207031 407.09375 C 311.730469 407.710938 316.253906 408.125 320.78125 407.507812 C 321.910156 407.402344 322.425781 406.992188 322.734375 405.863281 C 323.042969 404.214844 323.863281 402.675781 324.6875 401.132812 C 327.667969 395.167969 331.371094 389.613281 335.585938 384.472656 C 336.511719 383.34375 337.4375 382.109375 338.363281 380.976562 C 338.671875 380.464844 339.289062 380.15625 339.082031 379.230469 C 334.25 379.230469 329.3125 378.921875 324.378906 378.820312 C 312.246094 378.511719 300.214844 377.277344 288.183594 375.21875 C 276.257812 373.164062 264.328125 371.105469 252.503906 368.433594 C 241.707031 365.964844 231.117188 362.984375 220.9375 358.5625 C 216.71875 356.710938 212.8125 354.550781 209.625 351.15625 C 209.523438 351.054688 209.316406 350.746094 208.90625 351.261719 C 216.71875 367.816406 225.460938 384.0625 235.949219 399.488281 C 238.109375 397.636719 240.574219 396.605469 242.835938 395.476562 Z M 387.308594 211.828125 C 387.308594 212.035156 387.101562 212.136719 387.101562 212.34375 C 386.074219 219.335938 385.457031 226.328125 385.355469 233.320312 C 385.355469 234.246094 385.765625 234.449219 386.484375 234.65625 C 388.851562 235.273438 391.316406 235.890625 393.476562 237.226562 C 400.574219 241.648438 406.226562 247.304688 409.210938 255.324219 C 412.292969 263.34375 411.574219 270.644531 405.097656 276.917969 C 404.378906 277.535156 404.378906 278.253906 404.582031 278.972656 C 404.789062 279.589844 405.097656 280.105469 405.40625 280.621094 C 409.929688 288.230469 415.480469 295.015625 421.652344 301.183594 C 422.371094 301.90625 423.089844 302.625 423.8125 303.34375 C 424.839844 304.269531 426.074219 304.578125 427.511719 304.269531 C 429.363281 303.859375 431.113281 303.136719 432.757812 302.214844 C 441.703125 296.96875 449.210938 289.976562 455.996094 282.265625 C 460.828125 276.816406 464.734375 270.644531 468.953125 264.679688 C 474.09375 257.484375 478.515625 249.773438 482.011719 241.648438 C 482.421875 240.621094 483.140625 240.003906 483.964844 239.488281 C 485.09375 238.871094 486.226562 238.359375 487.460938 238.050781 C 489.414062 237.636719 491.265625 237.226562 493.21875 236.710938 C 493.628906 236.710938 494.144531 236.710938 494.351562 236.097656 C 494.660156 234.757812 493.835938 232.804688 492.601562 232.1875 C 491.058594 231.46875 489.824219 230.441406 488.695312 229.308594 C 485.609375 226.328125 483.039062 222.832031 481.085938 219.027344 C 480.777344 218.410156 480.675781 217.484375 479.851562 217.175781 C 476.046875 220.878906 475.019531 230.234375 475.738281 234.246094 C 475.945312 235.683594 475.738281 236.816406 474.8125 237.945312 C 473.785156 239.078125 472.859375 240.207031 471.726562 241.132812 C 459.390625 252.445312 446.945312 263.652344 433.683594 273.9375 C 433.167969 274.347656 432.550781 274.859375 431.933594 275.167969 C 430.390625 275.992188 429.054688 275.683594 428.128906 274.140625 C 427.617188 273.214844 427.308594 272.289062 427 271.363281 C 426.484375 269.925781 425.96875 268.589844 425.355469 267.253906 C 420.519531 257.792969 415.894531 248.230469 411.882812 238.359375 C 409.828125 233.214844 406.949219 228.589844 403.761719 224.167969 C 400.46875 219.4375 396.046875 215.941406 391.011719 213.269531 C 389.878906 212.652344 388.746094 211.933594 387.410156 211.828125 Z M 335.175781 361.03125 C 334.042969 358.972656 332.914062 357.429688 332.195312 355.785156 C 328.800781 348.484375 324.894531 341.492188 321.089844 334.398438 C 320.164062 332.753906 319.546875 331.003906 318.824219 329.257812 C 318.3125 327.917969 317.695312 326.6875 317.179688 325.347656 C 316.769531 324.21875 316.152344 323.804688 314.917969 323.910156 C 301.550781 324.421875 288.183594 325.246094 274.917969 326.992188 C 262.992188 328.535156 251.167969 330.796875 239.546875 334.089844 C 236.460938 335.015625 233.378906 335.941406 230.5 337.378906 C 228.03125 338.613281 225.871094 340.15625 224.125 342.417969 C 224.636719 343.242188 225.355469 343.445312 226.078125 343.753906 C 228.234375 344.578125 230.5 345.398438 232.761719 346.015625 C 241.707031 348.484375 250.859375 350.128906 260.007812 351.878906 C 273.992188 354.550781 288.082031 356.503906 302.167969 358.253906 C 310.394531 359.28125 318.722656 359.796875 326.949219 360.414062 C 329.519531 360.617188 332.089844 360.722656 335.074219 361.132812 Z M 315.125 320.515625 C 314.507812 318.5625 313.992188 317.019531 313.480469 315.476562 C 312.65625 313.113281 313.066406 313.421875 310.601562 313.316406 C 297.542969 313.007812 284.480469 313.730469 271.527344 315.785156 C 261.347656 317.429688 251.167969 319.28125 241.398438 322.777344 C 233.6875 325.453125 226.078125 328.125 218.878906 332.03125 C 216.207031 333.472656 213.738281 335.015625 211.679688 337.171875 C 208.289062 340.773438 208.289062 345.503906 211.578125 349.203125 C 212.503906 350.234375 213.53125 351.054688 214.664062 351.773438 C 216.925781 353.316406 219.394531 354.449219 221.964844 355.578125 C 233.6875 360.722656 245.921875 364.21875 258.46875 366.480469 C 268.75 368.332031 279.03125 369.871094 289.316406 371.519531 C 293.941406 372.238281 298.570312 373.164062 303.195312 373.574219 C 312.554688 374.5 321.910156 374.808594 331.269531 375.21875 C 334.148438 375.324219 337.027344 375.425781 339.90625 375.425781 C 341.550781 375.425781 341.960938 374.808594 341.652344 373.265625 C 341.550781 372.75 341.34375 372.238281 341.140625 371.722656 C 340.417969 370.285156 339.597656 368.84375 338.980469 367.300781 C 338.464844 366.171875 337.644531 365.863281 336.613281 365.863281 C 330.855469 365.65625 325.203125 365.140625 319.546875 364.730469 C 306.796875 363.804688 294.25 361.851562 281.601562 359.691406 C 268.339844 357.429688 255.175781 354.449219 241.910156 352.390625 C 236.359375 351.464844 230.910156 350.128906 225.5625 348.074219 C 223.300781 347.25 221.347656 346.015625 219.597656 344.371094 C 218.160156 342.933594 217.335938 341.082031 218.054688 339.023438 C 218.878906 336.761719 220.628906 335.21875 222.785156 334.5 C 223.917969 334.089844 224.636719 335.015625 224.226562 336.144531 C 223.917969 336.96875 223.199219 337.6875 222.785156 338.511719 C 222.375 339.230469 221.65625 339.847656 222.273438 340.875 C 223.09375 340.773438 223.402344 340.054688 223.816406 339.539062 C 225.769531 337.277344 228.03125 335.527344 230.703125 334.398438 C 232.554688 333.574219 234.507812 332.855469 236.359375 332.238281 C 257.335938 325.761719 278.722656 321.957031 300.625 321.03125 C 305.355469 320.824219 309.984375 320.617188 315.019531 320.617188 Z M 463.605469 376.144531 C 463.605469 376.042969 463.605469 375.835938 463.503906 375.734375 C 457.847656 376.144531 452.089844 376.453125 446.433594 376.96875 C 434.917969 378.097656 423.296875 378.40625 411.78125 379.230469 C 402.730469 379.847656 393.683594 380.15625 384.53125 380.257812 C 383.09375 380.257812 382.269531 380.773438 381.550781 382.007812 C 379.390625 385.8125 377.4375 389.71875 375.792969 393.832031 C 375.175781 395.269531 374.867188 396.8125 374.558594 398.355469 C 374.351562 399.488281 374.558594 399.898438 375.792969 400 C 377.949219 400.101562 380.214844 400.308594 382.371094 400.617188 C 391.832031 401.953125 401.191406 403.703125 410.546875 405.65625 C 411.78125 405.964844 413.015625 405.863281 414.25 405.554688 C 420.210938 403.90625 425.867188 401.542969 431.421875 398.664062 C 441.292969 393.523438 450.136719 386.941406 458.773438 380.050781 C 460.417969 378.714844 461.960938 377.378906 463.605469 376.042969 Z M 499.078125 370.179688 C 498.773438 370.179688 498.566406 370.078125 498.464844 370.179688 C 490.957031 372.339844 483.347656 373.367188 475.636719 374.191406 C 473.269531 374.398438 471.214844 375.015625 469.671875 376.863281 C 469.15625 377.480469 468.4375 377.996094 467.71875 378.613281 C 454.453125 390.230469 440.160156 400.207031 424.015625 407.507812 C 423.605469 407.710938 423.089844 407.816406 422.886719 408.433594 C 423.296875 408.535156 423.605469 408.636719 424.015625 408.742188 C 430.804688 410.179688 437.691406 410.488281 444.480469 409.152344 C 450.339844 408.019531 455.996094 406.171875 461.546875 404.011719 C 465.351562 402.570312 469.15625 401.75 473.167969 401.644531 C 474.8125 401.644531 476.664062 402.46875 478 401.644531 C 479.335938 400.824219 479.644531 398.871094 480.570312 397.53125 C 480.984375 396.914062 481.292969 396.296875 481.90625 395.886719 C 482.320312 395.578125 482.730469 395.476562 483.246094 395.683594 C 483.757812 395.886719 483.757812 396.402344 483.757812 396.914062 C 483.757812 397.839844 483.347656 398.765625 483.039062 399.589844 C 482.214844 401.851562 482.96875 403.359375 485.300781 404.113281 C 487.359375 404.730469 487.460938 404.628906 488.078125 402.675781 C 490.855469 394.34375 493.527344 386.015625 496.714844 377.894531 C 497.640625 375.527344 498.566406 373.058594 499.078125 370.386719 Z M 385.558594 376.246094 C 386.484375 376.246094 386.898438 376.246094 387.308594 376.246094 C 398.3125 376.246094 409.210938 375.9375 420.109375 375.21875 C 435.84375 374.191406 451.472656 373.164062 467.101562 371.621094 C 468.539062 371.519531 469.570312 371.003906 470.699219 370.078125 C 473.476562 367.714844 476.253906 365.554688 479.027344 363.1875 C 479.335938 362.984375 479.644531 362.777344 479.542969 362.261719 C 479.335938 362.261719 479.132812 362.261719 478.824219 362.261719 C 470.082031 363.1875 461.238281 364.011719 452.398438 364.628906 C 439.648438 365.554688 427 366.480469 414.25 366.890625 C 407.460938 367.097656 400.675781 367.300781 393.785156 367.300781 C 393.066406 367.300781 392.242188 367.199219 391.625 367.816406 C 389.363281 370.179688 387.617188 372.957031 385.457031 375.9375 Z M 500.003906 294.296875 C 500.726562 294.296875 501.445312 294.296875 502.164062 294.296875 C 506.277344 294.296875 510.492188 294.707031 514.605469 294.296875 C 515.738281 294.191406 516.765625 293.988281 517.792969 293.472656 C 518.824219 292.957031 518.824219 292.445312 518 291.726562 C 517.382812 291.210938 516.664062 290.695312 515.945312 290.183594 C 512.550781 288.125 508.953125 286.480469 505.042969 285.246094 C 501.238281 284.011719 500.929688 283.910156 501.035156 279.898438 C 501.035156 273.832031 501.136719 267.867188 501.546875 261.800781 C 502.0625 253.164062 503.089844 244.527344 504.941406 235.992188 C 505.25 234.449219 505.25 234.347656 503.707031 234.246094 C 501.960938 234.039062 500.3125 233.9375 498.566406 233.730469 C 496.714844 233.523438 496.613281 233.730469 496.816406 235.582031 C 497.332031 241.238281 498.050781 246.789062 498.050781 252.445312 C 498.050781 257.074219 498.050781 261.699219 498.050781 266.328125 C 498.050781 271.058594 498.050781 275.890625 498.15625 280.621094 C 498.15625 283.191406 497.125 284.527344 494.761719 285.246094 C 492.191406 286.070312 489.515625 286.890625 486.945312 287.816406 C 484.683594 288.539062 482.523438 289.359375 480.46875 290.59375 C 479.851562 291.003906 479.335938 291.417969 478.824219 291.828125 C 478.515625 292.035156 478.308594 292.445312 478.410156 292.855469 C 478.515625 293.265625 478.925781 293.371094 479.335938 293.371094 C 480.777344 293.574219 482.320312 293.679688 483.757812 293.882812 C 489.207031 294.5 494.660156 294.296875 500.210938 294.398438 Z M 352.757812 391.773438 C 353.273438 387.867188 352.140625 384.269531 351.421875 380.667969 C 351.320312 379.847656 350.804688 379.742188 350.085938 379.640625 C 348.234375 379.640625 346.28125 379.640625 344.429688 379.433594 C 342.886719 379.230469 342.066406 379.847656 341.34375 381.082031 C 340.523438 382.519531 339.699219 383.855469 338.464844 385.089844 C 333.117188 390.4375 329.109375 396.8125 325.816406 403.597656 C 325.507812 404.214844 325.203125 404.832031 324.996094 405.554688 C 324.585938 406.785156 324.996094 407.09375 326.230469 406.785156 C 333.425781 404.832031 340.726562 403.496094 348.027344 402.46875 C 349.261719 402.261719 349.980469 401.644531 350.496094 400.617188 C 352.039062 397.839844 352.65625 394.757812 352.554688 391.773438 Z M 354.09375 358.046875 C 354.816406 356.917969 355.226562 355.886719 355.636719 354.757812 C 357.28125 349.71875 358.929688 344.679688 360.574219 339.640625 C 361.394531 337.070312 362.21875 334.601562 362.9375 332.03125 C 363.453125 330.386719 363.246094 328.949219 361.601562 327.714844 C 357.386719 324.730469 353.167969 321.851562 348.75 319.078125 C 346.074219 317.328125 343.195312 315.890625 340.625 314.039062 C 340.214844 313.730469 339.800781 313.214844 339.1875 313.730469 C 339.390625 314.039062 339.492188 314.449219 339.699219 314.757812 C 342.066406 318.871094 344.019531 323.292969 345.5625 327.816406 C 348.542969 336.453125 350.90625 345.296875 352.863281 354.242188 C 353.171875 355.476562 353.273438 356.8125 354.199219 358.148438 Z M 492.910156 162.0625 C 492.910156 159.800781 492.089844 157.742188 491.675781 155.582031 C 491.472656 154.65625 490.957031 154.554688 490.132812 154.554688 C 482.320312 154.863281 474.503906 155.070312 466.894531 157.125 C 466.175781 157.332031 465.25 157.332031 464.734375 158.152344 C 467.101562 159.800781 469.464844 160.722656 472.34375 161.238281 C 478.925781 162.371094 485.609375 162.265625 492.191406 162.265625 C 492.394531 162.265625 492.601562 162.164062 492.808594 162.0625 Z M 500.109375 359.382812 C 499.800781 359.382812 499.695312 359.28125 499.59375 359.382812 C 495.070312 360.105469 490.648438 361.03125 486.125 361.542969 C 485.199219 361.644531 484.582031 362.261719 483.964844 362.878906 C 481.90625 365.039062 479.851562 367.097656 477.796875 369.253906 C 477.488281 369.5625 476.871094 369.667969 477.28125 370.285156 C 477.28125 370.285156 477.488281 370.285156 477.488281 370.285156 C 484.582031 369.460938 491.78125 368.636719 498.875 367.917969 C 499.285156 367.917969 499.59375 367.609375 499.59375 367.199219 C 499.800781 364.527344 500.3125 361.953125 500.003906 359.28125 Z M 524.683594 207.820312 C 522.421875 208.230469 512.859375 212.546875 511.625 213.679688 C 512.140625 214.503906 512.960938 214.195312 513.679688 214.296875 C 515.121094 214.398438 516.664062 214.503906 518.101562 214.605469 C 518.71875 214.605469 519.441406 214.8125 519.644531 215.429688 C 519.851562 216.148438 519.132812 216.558594 518.617188 216.867188 C 516.765625 218 514.914062 219.128906 512.859375 220.054688 C 512.449219 220.261719 511.726562 220.261719 511.832031 221.082031 C 513.476562 221.804688 515.429688 221.289062 516.765625 222.832031 C 516.457031 225.503906 513.167969 225.710938 512.449219 228.179688 C 513.785156 228.898438 515.121094 228.589844 516.457031 228.589844 C 517.964844 228.726562 519.0625 228.074219 519.75 226.636719 C 520.054688 226.121094 520.363281 225.503906 520.570312 224.886719 C 522.421875 219.539062 523.757812 214.089844 524.683594 208.539062 C 524.683594 208.230469 524.683594 207.921875 524.582031 207.613281 Z M 341.242188 366.683594 C 341.859375 367.816406 342.578125 368.84375 343.195312 369.871094 C 343.8125 370.902344 344.222656 371.929688 344.429688 373.164062 C 344.429688 373.882812 343.914062 374.808594 344.636719 375.425781 C 345.253906 375.9375 346.179688 375.628906 346.898438 375.734375 C 347.71875 375.734375 348.644531 375.734375 349.46875 375.734375 C 350.496094 375.734375 351.113281 375.527344 351.113281 374.398438 C 351.214844 372.339844 351.421875 370.179688 351.832031 368.125 C 352.039062 367.097656 351.628906 366.683594 350.597656 366.683594 C 347.617188 366.683594 344.53125 366.683594 341.242188 366.683594 Z M 356.253906 393.625 C 356.050781 396.195312 355.125 398.5625 354.507812 401.132812 C 357.179688 400.71875 359.648438 400.410156 362.628906 400 C 360.058594 397.839844 358.105469 395.785156 356.359375 393.625 Z M 340.214844 408.328125 C 338.671875 408.328125 337.539062 408.84375 336.304688 409.050781 C 335.894531 409.050781 335.585938 409.359375 335.484375 409.769531 C 334.867188 412.339844 334.042969 414.808594 335.074219 417.6875 C 337.746094 415.011719 338.773438 411.722656 340.214844 408.328125 Z M 376.203125 262.007812 C 378.257812 262.007812 379.800781 261.699219 381.34375 261.183594 C 383.09375 260.570312 384.632812 259.746094 385.765625 258.203125 C 386.175781 257.6875 386.792969 256.96875 386.382812 256.351562 C 385.972656 255.839844 385.25 256.042969 384.632812 256.148438 C 384.53125 256.148438 384.328125 256.148438 384.222656 256.25 C 381.242188 257.484375 378.671875 259.335938 376.203125 262.007812 Z M 334.25 409.667969 C 333.222656 409.769531 331.988281 409.253906 331.472656 410.488281 C 330.445312 413.058594 330.546875 415.628906 331.371094 418.304688 C 331.472656 418.714844 331.78125 419.125 332.398438 419.023438 C 332.808594 418.921875 332.914062 418.507812 333.015625 418.097656 C 333.015625 415.320312 333.324219 412.546875 334.25 409.667969 Z M 370.445312 264.476562 C 366.949219 263.140625 363.964844 262.417969 360.777344 263.652344 C 360.367188 263.859375 359.855469 263.960938 359.855469 264.578125 C 359.855469 264.988281 360.367188 265.195312 360.675781 265.296875 C 361.191406 265.402344 361.703125 265.605469 362.320312 265.605469 C 364.890625 265.605469 367.460938 265.195312 370.445312 264.578125 Z M 347.101562 405.964844 C 345.5625 406.480469 344.222656 406.480469 343.503906 407.402344 C 342.683594 408.535156 342.167969 409.769531 341.550781 411.105469 C 341.242188 411.824219 341.652344 412.238281 342.476562 412.238281 C 342.988281 412.238281 343.402344 411.929688 343.605469 411.515625 C 344.429688 409.667969 345.871094 408.226562 347.101562 406.066406 Z M 359.648438 248.332031 C 359.957031 246.585938 360.265625 245.042969 358.722656 244.21875 C 357.179688 243.398438 355.945312 244.320312 354.710938 245.554688 C 356.253906 246.585938 357.796875 247.40625 359.648438 248.332031 Z M 491.78125 356.609375 C 494.660156 356.8125 496.816406 356.300781 499.078125 356.195312 C 499.800781 356.195312 500.3125 355.992188 500.210938 355.167969 C 500.210938 354.449219 499.59375 354.449219 498.976562 354.449219 C 496.507812 354.449219 494.246094 355.066406 491.78125 356.710938 Z M 350.804688 241.03125 C 350.597656 241.03125 350.394531 241.03125 350.289062 241.03125 C 349.777344 241.03125 349.160156 241.339844 349.058594 241.957031 C 349.058594 242.574219 349.570312 242.675781 349.980469 242.882812 C 350.804688 243.398438 351.523438 243.808594 352.347656 244.320312 C 352.757812 244.527344 353.167969 245.144531 353.785156 244.628906 C 354.402344 244.011719 354.300781 243.398438 353.890625 242.675781 C 353.167969 241.546875 352.039062 241.03125 350.804688 241.03125 Z M 346.28125 240.722656 C 346.28125 239.285156 345.765625 238.359375 344.636719 237.84375 C 343.296875 237.328125 341.960938 237.328125 340.726562 238.5625 C 342.785156 239.078125 344.328125 240.3125 346.28125 240.722656 Z M 329.3125 416.246094 C 329.417969 416.246094 329.519531 416.246094 329.621094 416.246094 C 329.828125 414.601562 330.035156 412.855469 330.136719 411.207031 C 330.136719 410.796875 330.136719 410.386719 329.726562 410.28125 C 329.210938 410.28125 328.492188 410.28125 328.390625 410.898438 C 328.285156 411.621094 328.183594 412.339844 328.390625 412.957031 C 328.59375 414.085938 329.003906 415.117188 329.3125 416.246094 Z M 374.558594 247.714844 C 373.015625 247.714844 372.398438 248.640625 371.988281 249.566406 C 371.574219 250.695312 371.78125 251.726562 372.914062 252.855469 C 373.53125 251.003906 373.941406 249.359375 374.558594 247.613281 Z M 377.949219 240.722656 C 375.792969 240.722656 374.867188 242.574219 375.996094 244.527344 C 376.71875 243.292969 377.335938 242.058594 377.949219 240.722656 Z M 394.609375 407.199219 C 392.039062 406.375 389.46875 405.863281 386.792969 405.65625 C 389.261719 406.785156 391.933594 407.09375 394.609375 407.199219 Z M 337.953125 237.742188 C 337.027344 235.789062 335.691406 235.683594 334.25 237.535156 C 335.484375 237.742188 336.71875 237.945312 337.953125 237.742188 Z M 370.957031 258.613281 C 370.855469 255.941406 370.035156 255.222656 367.976562 255.53125 C 368.902344 256.558594 369.621094 257.6875 370.957031 258.613281 Z M 365.921875 253.472656 C 365.507812 250.800781 365.199219 250.59375 363.042969 250.800781 C 363.761719 251.828125 364.6875 252.445312 365.921875 253.472656 Z M 382.167969 235.375 C 379.90625 235.992188 379.699219 236.199219 379.800781 238.253906 C 380.523438 237.328125 381.136719 236.609375 382.167969 235.375 Z M 382.167969 235.375 " fill-opacity="1" fill-rule="nonzero"/></g><path fill="#ffffff" d="M 310.394531 699.839844 C 310.496094 699.839844 310.703125 699.738281 310.804688 699.738281 C 318.210938 703.542969 326.230469 705.1875 334.351562 706.523438 C 344.945312 708.273438 355.636719 709.199219 366.332031 708.992188 C 382.0625 708.683594 397.488281 706.832031 412.601562 702 C 414.453125 701.382812 416.304688 700.765625 418.15625 700.148438 C 418.875 699.945312 419.59375 699.636719 420.109375 700.457031 C 420.625 701.28125 420.109375 702 419.390625 702.515625 C 418.257812 703.542969 416.820312 704.058594 415.378906 704.46875 C 409.722656 706.421875 403.964844 707.863281 398.207031 709.097656 C 385.148438 711.667969 371.882812 712.898438 358.515625 712.488281 C 345.664062 712.078125 333.015625 710.019531 320.78125 705.804688 C 317.285156 704.675781 313.890625 703.132812 311.011719 700.765625 C 310.703125 700.5625 310.394531 700.355469 310.292969 699.945312 Z M 310.394531 699.839844 " fill-opacity="1" fill-rule="nonzero"/><path fill="#ffffff" d="M 398.003906 498.714844 C 398.003906 499.742188 397.386719 500.257812 396.972656 500.976562 C 393.582031 506.425781 388.851562 510.539062 383.402344 514.035156 C 378.363281 517.222656 373.117188 517.839844 367.460938 516.398438 C 362.734375 515.164062 358.414062 513.109375 354.609375 509.820312 C 352.246094 507.761719 349.980469 505.707031 348.027344 503.238281 C 347.308594 502.3125 346.589844 501.386719 346.484375 500.152344 C 346.484375 499.640625 346.484375 499.023438 347.207031 498.816406 C 347.71875 498.714844 348.132812 499.125 348.335938 499.535156 C 350.085938 502.414062 352.347656 504.882812 354.816406 507.25 C 356.871094 509.097656 359.03125 510.746094 361.5 511.976562 C 368.078125 515.269531 374.558594 515.578125 381.136719 511.667969 C 386.589844 508.480469 391.320312 504.367188 396.046875 500.359375 C 396.5625 499.949219 397.078125 499.433594 397.695312 499.023438 C 397.695312 499.023438 397.796875 499.023438 398.105469 499.023438 Z M 398.003906 498.714844 " fill-opacity="1" fill-rule="nonzero"/><path fill="#ffffff" d="M 297.644531 423.546875 C 297.644531 428.378906 295.074219 431.566406 290.960938 431.566406 C 286.539062 431.566406 282.941406 427.867188 282.941406 423.445312 C 282.941406 419.949219 286.640625 416.351562 290.34375 416.246094 C 294.351562 416.246094 297.644531 419.433594 297.644531 423.546875 Z M 294.765625 423.960938 C 294.765625 423.546875 294.660156 422.828125 294.457031 422.109375 C 293.941406 420.464844 292.8125 419.433594 291.164062 419.230469 C 289.109375 418.921875 287.566406 419.949219 286.332031 421.492188 C 285.304688 422.828125 285.613281 424.371094 286.332031 425.707031 C 287.054688 427.148438 288.285156 428.070312 289.828125 428.6875 C 291.679688 429.304688 293.429688 428.6875 294.25 426.839844 C 294.660156 426.015625 294.765625 425.191406 294.765625 424.0625 Z M 294.765625 423.960938 " fill-opacity="1" fill-rule="nonzero"/><path fill="#ffffff" d="M 328.902344 458.613281 C 325.203125 458.613281 321.910156 455.9375 322.011719 452.957031 C 322.011719 449.046875 325.507812 445.65625 329.3125 445.550781 C 332.398438 445.550781 335.175781 448.429688 335.175781 451.722656 C 335.175781 455.527344 332.296875 458.613281 328.902344 458.613281 Z M 333.015625 451.621094 C 333.015625 449.664062 330.960938 447.710938 328.902344 447.710938 C 326.433594 447.710938 324.996094 449.046875 324.996094 451.414062 C 324.996094 453.882812 326.742188 456.144531 328.59375 456.144531 C 330.546875 456.144531 333.015625 453.574219 333.015625 451.722656 Z M 333.015625 451.621094 " fill-opacity="1" fill-rule="nonzero"/><path fill="#ffffff" d="M 382.886719 484.007812 C 381.035156 483.804688 378.980469 483.085938 377.4375 481.335938 C 375.792969 479.484375 375.996094 477.632812 377.746094 475.988281 C 378.464844 475.269531 379.289062 474.652344 380.109375 474.035156 C 383.296875 471.980469 387.925781 473.933594 388.644531 477.53125 C 389.261719 480.925781 386.691406 484.007812 382.886719 483.90625 Z M 382.785156 480.71875 C 382.785156 480.71875 383.195312 480.71875 383.503906 480.617188 C 384.53125 480.308594 385.765625 480.203125 385.664062 478.664062 C 385.664062 477.324219 384.632812 476.195312 383.195312 475.988281 C 382.0625 475.785156 381.035156 476.195312 380.109375 476.8125 C 379.183594 477.53125 379.082031 478.558594 379.699219 479.484375 C 380.316406 480.308594 381.136719 480.820312 382.679688 480.71875 Z M 382.785156 480.71875 " fill-opacity="1" fill-rule="nonzero"/><path fill="#ffffff" d="M 433.992188 443.804688 C 430.699219 443.804688 428.027344 441.027344 428.027344 437.738281 C 428.027344 434.753906 430.1875 432.183594 432.757812 432.289062 C 437.179688 432.597656 439.542969 434.960938 439.648438 438.457031 C 439.648438 441.234375 436.972656 443.703125 434.09375 443.703125 Z M 436.871094 438.457031 C 436.871094 436.503906 435.121094 434.652344 433.167969 434.753906 C 431.625 434.753906 430.082031 436.195312 430.082031 437.636719 C 429.980469 439.691406 431.730469 441.746094 433.683594 441.746094 C 435.429688 441.746094 436.871094 440.308594 436.972656 438.457031 Z M 436.871094 438.457031 " fill-opacity="1" fill-rule="nonzero"/><path fill="#ffffff" d="M 309.46875 427.148438 C 313.582031 427.148438 316.152344 429.820312 315.945312 433.214844 C 315.742188 436.503906 312.449219 439.074219 309.058594 438.664062 C 307.722656 438.457031 306.488281 438.046875 305.457031 437.222656 C 302.167969 434.550781 302.269531 432.082031 304.839844 429.304688 C 306.179688 427.867188 307.925781 427.25 309.46875 427.25 Z M 309.878906 436.195312 C 312.039062 436.195312 314.097656 434.140625 314.097656 431.875 C 314.097656 430.230469 311.9375 428.484375 309.984375 428.484375 C 308.027344 428.484375 305.457031 430.4375 305.457031 431.875 C 305.457031 433.933594 307.824219 436.195312 309.984375 436.195312 Z M 309.878906 436.195312 " fill-opacity="1" fill-rule="nonzero"/><path fill="#ffffff" d="M 404.378906 445.757812 C 404.378906 448.125 402.730469 449.871094 400.46875 449.871094 C 398.414062 449.871094 396.046875 447.609375 396.046875 445.757812 C 396.046875 443.90625 398.414062 441.644531 400.160156 441.644531 C 402.527344 441.644531 404.273438 443.496094 404.378906 445.757812 Z M 402.113281 446.167969 C 402.113281 445.039062 401.292969 444.011719 400.46875 444.011719 C 399.648438 444.011719 398.308594 445.242188 398.414062 445.964844 C 398.414062 446.683594 399.75 447.507812 400.574219 447.402344 C 401.394531 447.402344 402.011719 446.992188 402.113281 446.167969 Z M 402.113281 446.167969 " fill-opacity="1" fill-rule="nonzero"/><path fill="#ffffff" d="M 372.089844 172.960938 C 368.902344 172.960938 365.816406 170.390625 365.40625 167.203125 C 365.304688 166.277344 364.996094 165.761719 364.273438 165.351562 C 363.761719 165.042969 363.351562 164.632812 363.65625 164.015625 C 363.964844 163.398438 364.480469 163.808594 364.890625 164.015625 C 365.816406 164.324219 366.539062 164.117188 367.359375 163.808594 C 368.285156 163.398438 369.210938 162.988281 370.136719 162.679688 C 371.472656 162.164062 372.914062 161.445312 374.25 162.78125 C 374.761719 163.296875 375.378906 163.089844 375.996094 162.78125 C 376.820312 162.265625 377.4375 162.472656 378.054688 163.089844 C 378.15625 163.296875 378.363281 163.398438 378.566406 163.5 C 379.597656 164.425781 379.90625 165.761719 379.289062 167.097656 C 379.289062 167.304688 379.183594 167.511719 379.082031 167.820312 C 378.363281 171.625 375.070312 172.960938 371.988281 173.0625 Z M 372.089844 172.960938 " fill-opacity="1" fill-rule="nonzero"/><path fill="#ffffff" d="M 350.90625 139.953125 C 349.980469 138.515625 348.851562 138.101562 347.308594 138.71875 C 347 138.824219 346.691406 138.925781 346.382812 138.925781 C 346.074219 138.925781 345.765625 138.925781 345.664062 138.410156 C 345.664062 138 345.765625 137.898438 346.074219 137.691406 C 347.824219 136.558594 349.46875 136.558594 351.214844 137.898438 C 353.476562 139.644531 355.84375 141.085938 358.515625 141.90625 C 360.367188 142.421875 362.21875 142.421875 364.070312 142.320312 C 365.613281 142.214844 367.050781 142.320312 367.875 143.964844 C 367.769531 144.066406 367.667969 144.167969 367.460938 144.273438 C 366.332031 144.992188 365.097656 144.273438 364.070312 144.582031 C 363.042969 144.890625 363.042969 146.429688 362.011719 147.046875 C 361.191406 147.5625 360.675781 147.355469 360.46875 146.429688 C 360.46875 146.328125 360.46875 146.125 360.46875 145.917969 C 360.367188 145.300781 361.085938 144.273438 359.855469 143.964844 C 358.621094 143.757812 357.386719 142.730469 356.253906 144.273438 C 356.050781 144.582031 355.535156 144.890625 355.125 144.992188 C 354.710938 145.199219 354.199219 145.402344 353.785156 144.992188 C 353.273438 144.582031 353.476562 143.964844 353.785156 143.550781 C 353.785156 143.550781 353.785156 143.449219 353.890625 143.347656 C 354.09375 142.832031 354.917969 142.421875 354.300781 141.703125 C 353.582031 140.878906 352.964844 141.394531 352.140625 141.703125 C 351.523438 141.90625 350.90625 142.113281 350.394531 142.214844 C 349.777344 142.214844 349.058594 142.421875 348.851562 141.597656 C 348.644531 140.980469 349.160156 140.570312 349.671875 140.363281 C 350.085938 140.160156 350.496094 139.953125 350.90625 139.746094 Z M 350.90625 139.953125 " fill-opacity="1" fill-rule="nonzero"/><path fill="#ffffff" d="M 351.421875 126.484375 C 352.964844 124.015625 356.664062 123.191406 361.085938 124.222656 C 364.6875 125.042969 368.386719 126.070312 370.035156 130.597656 C 368.386719 130.390625 367.257812 129.980469 366.230469 129.363281 C 361.703125 126.996094 356.972656 125.558594 351.421875 126.484375 Z M 351.421875 126.484375 " fill-opacity="1" fill-rule="nonzero"/><path fill="#ffffff" d="M 334.96875 150.132812 C 334.042969 146.019531 331.78125 143.859375 328.390625 142.628906 C 327.875 142.421875 327.257812 142.214844 327.464844 141.496094 C 327.667969 140.777344 328.285156 140.671875 328.902344 140.671875 C 332.089844 140.777344 336.101562 145.816406 335.484375 148.898438 C 335.484375 149.207031 335.277344 149.414062 334.96875 150.132812 Z M 334.96875 150.132812 " fill-opacity="1" fill-rule="nonzero"/><path fill="#ffffff" d="M 375.996094 157.433594 C 377.4375 156.199219 379.183594 156.097656 380.417969 154.964844 C 380.832031 154.554688 381.445312 155.070312 381.34375 155.789062 C 381.242188 156.714844 380.625 157.332031 379.800781 157.742188 C 378.566406 158.257812 377.335938 158.667969 375.894531 157.535156 Z M 375.996094 157.433594 " fill-opacity="1" fill-rule="nonzero"/><path fill="#ffffff" d="M 374.042969 273.628906 C 374.558594 275.273438 374.453125 276.816406 374.042969 278.460938 C 371.882812 286.996094 364.171875 292.753906 356.769531 292.957031 C 351.628906 293.0625 346.792969 292.445312 342.167969 290.183594 C 341.34375 289.769531 340.523438 289.359375 339.90625 288.539062 C 339.597656 288.023438 339.390625 287.507812 339.699219 286.996094 C 340.109375 286.480469 340.625 286.6875 341.140625 286.996094 C 341.960938 287.40625 342.785156 287.921875 343.605469 288.230469 C 348.953125 290.695312 354.507812 291.003906 360.058594 289.460938 C 364.996094 288.125 368.183594 284.628906 370.445312 280.3125 C 371.371094 278.664062 371.988281 276.917969 372.707031 275.167969 C 372.914062 274.65625 372.914062 274.140625 373.734375 273.832031 Z M 374.042969 273.628906 " fill-opacity="1" fill-rule="nonzero"/><path fill="#ffffff" d="M 524.167969 173.167969 C 521.804688 174.503906 519.234375 175.015625 516.765625 175.222656 C 509.464844 175.941406 502.164062 176.457031 494.761719 176.148438 C 489.621094 175.941406 484.480469 175.429688 479.441406 174.398438 C 478.308594 174.195312 477.179688 173.785156 476.148438 173.269531 C 475.636719 172.960938 474.914062 172.652344 475.121094 171.933594 C 475.429688 171.109375 476.148438 171.109375 476.871094 171.210938 C 478.410156 171.519531 479.953125 171.828125 481.496094 172.035156 C 491.265625 173.679688 501.136719 173.578125 510.90625 173.0625 C 514.914062 172.859375 518.824219 172.550781 522.832031 172.550781 C 523.246094 172.550781 523.65625 172.550781 524.167969 173.0625 Z M 524.167969 173.167969 " fill-opacity="1" fill-rule="nonzero"/><path fill="#ffffff" d="M 517.074219 202.472656 C 514.710938 203.910156 512.035156 204.21875 509.464844 204.425781 C 503.398438 204.941406 497.332031 204.835938 491.265625 203.707031 C 488.695312 203.191406 486.125 202.984375 483.554688 202.675781 C 482.730469 202.574219 482.011719 202.367188 481.394531 201.855469 C 480.878906 201.445312 480.46875 201.03125 480.777344 200.3125 C 481.085938 199.695312 481.703125 199.796875 482.214844 199.902344 C 485.609375 200.828125 489.207031 200.828125 492.703125 201.238281 C 498.050781 201.855469 503.296875 201.753906 508.644531 201.753906 C 511.417969 201.753906 514.296875 201.753906 517.074219 202.472656 Z M 517.074219 202.472656 " fill-opacity="1" fill-rule="nonzero"/><path fill="#ffffff" d="M 515.121094 194.863281 C 515.738281 190.234375 516.253906 185.09375 517.484375 180.054688 C 517.484375 179.746094 517.589844 179.4375 517.691406 179.128906 C 518 178.511719 518.308594 177.691406 519.132812 177.894531 C 520.054688 178.101562 520.054688 178.925781 519.953125 179.644531 C 519.441406 185.402344 519.027344 191.160156 517.589844 196.714844 C 517.382812 197.640625 517.175781 199.078125 515.945312 198.976562 C 514.503906 198.769531 515.222656 197.332031 515.121094 196.507812 C 515.121094 196.097656 515.121094 195.683594 515.121094 194.863281 Z M 515.121094 194.863281 " fill-opacity="1" fill-rule="nonzero"/><path fill="#ffffff" d="M 484.582031 198.050781 C 483.757812 197.023438 483.65625 195.890625 483.449219 194.863281 C 482.628906 190.132812 482.011719 185.300781 481.804688 180.46875 C 481.804688 179.851562 481.804688 179.234375 481.804688 178.617188 C 481.804688 178.101562 482.113281 177.691406 482.730469 177.691406 C 483.246094 177.691406 483.65625 178 483.757812 178.410156 C 483.863281 178.925781 484.066406 179.4375 484.066406 180.054688 C 484.480469 185.300781 484.789062 190.542969 485.09375 195.683594 C 485.09375 196.40625 485.300781 197.226562 484.582031 198.050781 Z M 484.582031 198.050781 " fill-opacity="1" fill-rule="nonzero"/></svg>