<svg xmlns="http://www.w3.org/2000/svg" xmlns:xlink="http://www.w3.org/1999/xlink" width="1080" zoomAndPan="magnify" viewBox="0 0 810 809.999993" height="1080" preserveAspectRatio="xMidYMid meet" version="1.0"><defs><clipPath id="de7a4a364b"><path d="M 114.097656 141.007812 L 404 141.007812 L 404 668 L 114.097656 668 Z M 114.097656 141.007812 " clip-rule="nonzero"/></clipPath></defs><path fill="#ffffff" d="M 354.941406 181.097656 C 364.984375 183.867188 357.816406 193.800781 359.007812 196.871094 C 360.464844 200.675781 364.773438 192.886719 364.773438 186.445312 C 364.773438 181.679688 363.824219 180.875 356.386719 179.386719 C 326.496094 173.394531 324.390625 153.894531 323.414062 160.453125 C 322.476562 166.746094 336.703125 176.058594 354.941406 181.097656 Z M 354.941406 181.097656 " fill-opacity="1" fill-rule="nonzero"/><path fill="#ffffff" d="M 304.722656 245.554688 C 303.882812 245.554688 303.351562 246.757812 303.742188 247.777344 C 304.121094 248.765625 305.847656 248.722656 306.234375 247.714844 C 306.59375 246.78125 305.730469 245.554688 304.722656 245.554688 Z M 304.722656 245.554688 " fill-opacity="1" fill-rule="nonzero"/><path fill="#ffffff" d="M 304.304688 231.4375 C 307.527344 233.214844 304.714844 235.683594 307.214844 235.683594 C 310.015625 235.683594 309.554688 229.144531 306.65625 227.824219 C 304.007812 226.613281 301.773438 230.042969 304.304688 231.4375 Z M 304.304688 231.4375 " fill-opacity="1" fill-rule="nonzero"/><path fill="#ffffff" d="M 291.125 263.796875 C 293.652344 266.324219 296.699219 265.433594 295.183594 262.609375 C 293.984375 260.359375 297.628906 256.511719 293.601562 256.019531 C 290.132812 255.601562 288.390625 261.0625 291.125 263.796875 Z M 291.125 263.796875 " fill-opacity="1" fill-rule="nonzero"/><path fill="#ffffff" d="M 296.472656 237.128906 C 298.03125 238.351562 298.109375 238.359375 299.507812 237.382812 C 301.4375 236.027344 300.351562 232.722656 297.972656 232.722656 C 295.347656 232.722656 294.398438 235.5 296.472656 237.128906 Z M 296.472656 237.128906 " fill-opacity="1" fill-rule="nonzero"/><path fill="#ffffff" d="M 296.960938 267.707031 C 293.546875 266.148438 292.1875 271.71875 295.914062 271.71875 C 298.242188 271.71875 299.042969 268.65625 296.960938 267.707031 Z M 296.960938 267.707031 " fill-opacity="1" fill-rule="nonzero"/><path fill="#ffffff" d="M 292.425781 463.464844 C 290.03125 466.707031 295.089844 491.570312 294.347656 471.265625 C 294.050781 463.265625 293.683594 461.757812 292.425781 463.464844 Z M 292.425781 463.464844 " fill-opacity="1" fill-rule="nonzero"/><path fill="#ffffff" d="M 467.324219 567.449219 C 463.6875 567.539062 457.578125 566.640625 454.023438 566.167969 C 461.75 557.390625 454.21875 561.449219 450.003906 565.664062 C 448.214844 567.453125 449.585938 570.503906 452.703125 571.6875 C 455.113281 572.605469 460.902344 572.226562 463.550781 570.980469 C 465.675781 569.980469 466.285156 569.78125 469.054688 569.164062 C 471.839844 568.542969 470.652344 567.367188 467.324219 567.449219 Z M 467.324219 567.449219 " fill-opacity="1" fill-rule="nonzero"/><path fill="#ffffff" d="M 459.550781 445.21875 C 459.550781 442.808594 458.980469 441.851562 455.140625 437.824219 C 450.449219 432.90625 443.597656 423.753906 444.609375 423.753906 C 444.867188 423.753906 447.484375 425.875 450.425781 428.464844 C 463.84375 440.277344 466.460938 440.4375 471.84375 429.773438 C 476.476562 420.597656 477.515625 383.277344 473.136719 383.277344 C 471.5 383.277344 473.339844 390.207031 471.523438 389.25 C 462.8125 384.667969 457.351562 394.1875 442.941406 390.226562 C 435.144531 388.082031 427.292969 380.8125 432.773438 380.808594 C 441.519531 380.800781 468.929688 372.511719 468.929688 370 C 468.929688 367.566406 466.769531 367.8125 454.121094 371.660156 C 429.203125 379.246094 407.859375 377.082031 423.871094 368.59375 C 444.546875 357.625 468.929688 367.695312 468.929688 362.589844 C 468.929688 358.347656 426.34375 355.195312 414.769531 370.371094 C 412.714844 373.066406 413.082031 371.5625 413.425781 377.277344 C 414.976562 402.9375 418.925781 421.414062 424.726562 430.140625 C 433.957031 444.023438 459.550781 455.980469 459.550781 445.21875 Z M 457.480469 411.175781 C 458.605469 408.707031 462.511719 410.09375 462.511719 412.960938 C 462.511719 417.671875 456.171875 414.054688 457.480469 411.175781 Z M 449.101562 402.269531 C 449.796875 400.746094 452.539062 400.5625 453.796875 401.953125 C 454.753906 403.007812 454.894531 406.492188 454.023438 407.367188 C 452.730469 408.660156 451.160156 407.992188 451.160156 406.148438 C 451.160156 405.5 450.863281 404.996094 450.480469 404.996094 C 449.191406 404.996094 448.492188 403.605469 449.101562 402.269531 Z M 425.484375 389.203125 C 428.578125 389.203125 430.054688 391.996094 427.957031 393.890625 C 425.757812 395.882812 427.058594 399.328125 429.804688 398.78125 C 432.472656 398.246094 432.488281 400.578125 429.820312 401.507812 C 419.175781 405.222656 417.90625 389.203125 425.484375 389.203125 Z M 435.332031 427.988281 C 432.980469 430.8125 427.90625 423.261719 432.65625 423.261719 C 434.230469 423.261719 436.269531 426.859375 435.332031 427.988281 Z M 441.808594 408.527344 C 439.90625 410.070312 437.8125 408.804688 437.667969 406.027344 C 437.5625 403.976562 438.628906 403.445312 439.300781 405.214844 C 439.703125 406.273438 440.007812 406.445312 441.027344 406.191406 C 442.804688 405.746094 443.324219 407.304688 441.808594 408.527344 Z M 441.808594 408.527344 " fill-opacity="1" fill-rule="nonzero"/><path fill="#ffffff" d="M 467.378906 376.964844 C 465.5625 376.617188 464.195312 379.828125 465.574219 381.203125 C 466.230469 381.859375 468.25 382.007812 468.601562 381.425781 C 469.101562 380.59375 468.148438 377.113281 467.378906 376.964844 Z M 467.378906 376.964844 " fill-opacity="1" fill-rule="nonzero"/><g clip-path="url(#de7a4a364b)"><path fill="#ffffff" d="M 401.796875 229.628906 C 401.796875 223.972656 381.3125 215.160156 365.808594 214.140625 C 363.070312 213.960938 360.824219 213.742188 360.824219 213.652344 C 360.824219 213.566406 362.726562 209.214844 365.050781 203.996094 C 379.992188 170.421875 380.523438 167.128906 372.472656 158.308594 C 363.335938 148.296875 337.234375 138.472656 328.125 141.617188 C 320.96875 144.085938 315.039062 151.921875 295.589844 184.59375 C 266.933594 232.734375 260.023438 263.375 272.375 287.515625 C 277.234375 297.011719 279.65625 304.261719 278.363281 305.460938 C 277.542969 306.21875 263.519531 309.898438 257.421875 310.953125 C 249.675781 312.289062 249.332031 312.425781 244.578125 316.136719 C 240.429688 319.367188 234.761719 321.769531 229.382812 325.636719 C 218.445312 333.5 213.324219 331.207031 208.5 348.378906 C 206.996094 353.722656 200.476562 367.332031 194.941406 388.320312 C 190.871094 403.753906 185.808594 414.945312 175.574219 431.160156 C 150.097656 471.523438 121.394531 519.636719 115.660156 531.597656 C 112.042969 539.148438 115.285156 540.511719 119.488281 533.210938 C 119.527344 533.136719 173.746094 442.683594 174.476562 441.527344 C 205.738281 391.671875 193.441406 387.894531 207.84375 359.027344 C 213.703125 347.292969 212.039062 338.75 223.597656 332.726562 C 228.859375 329.988281 233.46875 326.070312 239.371094 323.019531 C 251.210938 316.910156 244.816406 316.1875 259.667969 313.191406 C 266.273438 311.859375 273.183594 310.269531 276.046875 309.421875 C 277.285156 309.054688 277.152344 309.875 275.15625 314.910156 C 273.039062 320.242188 274.339844 319.050781 269.746094 320.515625 C 258.296875 324.160156 254.121094 331.621094 248.667969 338 C 245.785156 341.378906 245.058594 343.292969 246.667969 343.292969 C 247.140625 343.292969 250.441406 340.382812 254.003906 336.828125 C 260.1875 330.65625 260.617188 330.328125 263.390625 329.679688 C 266.417969 328.964844 269.011719 328.773438 269.011719 329.261719 C 269.011719 330.226562 264.257812 340.332031 263.804688 340.332031 C 262.992188 340.332031 256.960938 346.71875 255.984375 348.613281 C 254.488281 351.511719 256.101562 352.09375 258.875 349.660156 L 260.621094 348.128906 C 260.621094 349.371094 260.414062 350.691406 261.484375 350.722656 C 262.148438 350.738281 252.125 356.128906 251.425781 356.128906 C 251.269531 356.128906 250.320312 352.914062 249.273438 348.847656 C 248.648438 346.417969 246.808594 345.875 245.769531 347.8125 C 245.242188 348.800781 245.457031 355.105469 246.113281 357.863281 C 246.582031 359.828125 243.113281 358.964844 243.429688 361.160156 C 243.925781 364.671875 257.707031 359.023438 278.21875 346.898438 C 289.765625 340.074219 296.132812 338.679688 295.808594 343.050781 C 295.699219 344.539062 290.136719 350.699219 288.90625 350.699219 C 287.035156 350.699219 286.511719 347.691406 287.886719 344.886719 C 288.625 343.394531 287.804688 342.480469 286.40625 343.230469 C 283.703125 344.675781 283.234375 349.484375 285.566406 351.816406 L 286.796875 353.046875 C 256.996094 373.457031 268.488281 383.671875 244.609375 396.976562 C 236.769531 401.34375 235.074219 402.664062 236.316406 403.441406 C 237.039062 403.890625 232.914062 411.667969 224.632812 425.484375 C 204.074219 459.765625 187.140625 505.757812 169.621094 546.992188 C 163.394531 561.636719 161.976562 565.707031 162.8125 566.542969 C 164.09375 567.824219 165.160156 565.929688 172.746094 548.890625 C 210.863281 463.285156 200.53125 474.785156 235.035156 414.859375 C 243.878906 399.488281 242.691406 401.214844 252.390625 397.003906 L 254.40625 398.011719 C 266.53125 404.054688 281.953125 405.878906 285.847656 401.730469 C 290.460938 396.816406 282.828125 385.230469 271.972656 380.683594 C 269.421875 379.613281 268.300781 378.191406 268.992188 376.898438 C 269.5 375.949219 269.652344 375.921875 270.898438 376.570312 C 277.765625 380.121094 283.882812 373.144531 277.628906 368.886719 C 275.746094 367.601562 275.628906 367.351562 276.5625 366.578125 C 277.027344 366.191406 278.019531 366.253906 280.140625 366.808594 C 290.859375 369.609375 298.71875 363.703125 291.371094 358.367188 C 288.730469 356.449219 288.589844 356.84375 293.382812 352.671875 C 301.117188 345.9375 297.445312 346.261719 302.484375 346.246094 C 310.902344 346.214844 314.929688 340.71875 309.882812 336.144531 C 306.507812 333.085938 303.496094 332.214844 282.957031 326.722656 C 283.40625 325.832031 285.644531 321.085938 286.417969 321.070312 C 294.050781 320.957031 302.882812 318.203125 305.992188 314.96875 C 309.320312 311.503906 306.023438 306.308594 300.480469 306.277344 C 297.859375 306.261719 304.054688 302.863281 313.5625 299.097656 C 319.632812 296.691406 319.230469 296.34375 318.144531 303.0625 C 312.894531 335.53125 316.605469 356.359375 330.539062 372.664062 C 340.078125 383.832031 338.78125 388.050781 334.417969 411.070312 C 331.113281 414.199219 327.828125 417.257812 321.398438 423.753906 C 308.46875 436.820312 296.027344 442.117188 292.996094 448.832031 C 292.15625 450.6875 292.039062 450.761719 290.453125 450.40625 C 285.863281 449.367188 280.085938 453.175781 278.769531 458.101562 C 277.582031 462.539062 271.882812 462.632812 269.285156 471.027344 C 268.394531 473.921875 255.550781 482.558594 268.03125 510.878906 C 276.347656 529.765625 272.554688 531.105469 274.171875 542.71875 C 274.707031 546.589844 272.464844 556.089844 270.847656 556.800781 C 270.238281 557.066406 268.984375 558.753906 268.027344 560.597656 C 265.855469 564.777344 265.851562 563.078125 268.160156 567.367188 C 260.945312 587.214844 257.253906 596.890625 252.703125 619.972656 C 247.863281 644.550781 242.871094 658.542969 245.886719 659.113281 C 251.292969 660.140625 258.089844 612.863281 269.109375 578.382812 C 272.882812 566.585938 272.359375 570.027344 275.117188 567.859375 C 276.382812 566.859375 276.414062 566.859375 276.414062 567.796875 C 276.414062 570.648438 285.300781 571.664062 285.300781 569.277344 C 285.300781 569.042969 285.960938 569.339844 286.765625 569.933594 C 288.710938 571.371094 293.191406 571.808594 294.152344 570.648438 C 294.761719 569.914062 294.871094 569.945312 295.378906 570.964844 C 296.566406 573.347656 300.90625 574.492188 303.054688 572.984375 C 305.886719 571 302.402344 575.496094 310.089844 575.496094 C 309.078125 582.867188 307.953125 593.082031 307.269531 599.734375 C 304.082031 630.699219 297.898438 660.554688 300.113281 666.382812 C 302.492188 672.636719 302.421875 656.609375 305.277344 644.160156 C 311.695312 616.136719 312.78125 577.292969 313.972656 574.660156 C 314.550781 573.382812 316.957031 569.722656 315.472656 568.117188 C 315.035156 567.640625 318.140625 544.351562 332.964844 525.214844 C 336.136719 521.132812 336.390625 519.390625 340.96875 512.113281 C 344.515625 506.488281 342.851562 507.5 348.054688 507.132812 C 364.0625 505.996094 366.722656 496.519531 353.65625 487.195312 C 351.898438 485.941406 350.460938 484.789062 350.460938 484.636719 C 350.460938 479.101562 359.335938 455.957031 364.566406 447.839844 C 368.804688 441.265625 369.441406 438.109375 366.929688 436.132812 C 364.066406 433.878906 360.691406 434.90625 352.472656 440.542969 C 337.601562 450.734375 338.027344 468.820312 344.835938 431.929688 C 345.632812 427.605469 345.960938 426.765625 347.585938 424.886719 C 356.722656 414.332031 358.765625 404.996094 351.941406 404.996094 C 349.511719 404.996094 349.480469 404.710938 351.179688 398.050781 C 353.730469 388.027344 356.5 382.875 361.367188 379.097656 C 373.886719 369.378906 383.855469 354.9375 390.363281 337.082031 C 395.03125 324.277344 396.589844 315.28125 399.324219 285.304688 C 399.890625 279.121094 404.796875 233.554688 402.414062 231.167969 C 402.074219 230.828125 401.796875 230.132812 401.796875 229.628906 Z M 272.273438 386.175781 C 280.871094 391.625 284.960938 398.0625 280.761719 399.527344 C 277.351562 400.714844 259.898438 398.128906 255.609375 395.796875 C 255.085938 395.511719 259.609375 391.828125 263.53125 385.835938 C 266.914062 380.664062 265.023438 381.574219 272.273438 386.175781 Z M 274.6875 374.222656 C 270.828125 374.375 270.375 373.925781 272.148438 371.710938 C 273.605469 369.886719 272.871094 370.011719 274.984375 371.246094 C 276.898438 372.363281 277.632812 374.105469 274.6875 374.222656 Z M 279.285156 363.78125 C 283.511719 360.015625 284.300781 359.257812 287 360.289062 C 294.558594 363.171875 288.316406 365.347656 279.285156 363.78125 Z M 382.902344 220.417969 C 417.410156 231.320312 388.300781 240.011719 366.75 234.402344 C 358.269531 232.195312 347.351562 225.640625 348.101562 223.214844 C 350.050781 216.914062 367.394531 215.519531 382.902344 220.417969 Z M 340.007812 146.308594 C 361.914062 151.941406 381.0625 168.054688 370.894531 172.304688 C 359.621094 177.015625 329.242188 161.039062 325.550781 148.460938 C 324.742188 145.691406 332.894531 144.476562 340.007812 146.308594 Z M 268.113281 326.511719 C 264.320312 326.511719 267.964844 325.003906 271.421875 323.558594 C 270.425781 326.421875 270.664062 326.511719 268.113281 326.511719 Z M 285.054688 330.734375 C 290.335938 332.664062 321.558594 340.148438 301.515625 342.964844 C 299.789062 343.207031 299.699219 343.144531 299.398438 341.558594 C 298.320312 335.8125 288.625 335.644531 278.882812 341.203125 C 274.476562 343.714844 273.5625 345.523438 277.851562 336.964844 C 281.640625 329.398438 281.574219 329.457031 285.054688 330.734375 Z M 300.347656 309.992188 C 306.882812 311.695312 304.171875 314.488281 294.433594 316.09375 C 287.3125 317.265625 286.480469 318.46875 292.414062 312.320312 C 295.679688 308.933594 295.96875 308.851562 300.347656 309.992188 Z M 317.351562 292.46875 C 308.285156 297.042969 290.667969 300.46875 280.1875 321.414062 C 266.664062 348.441406 273.9375 344.597656 266.855469 348.535156 C 258.585938 353.128906 264.148438 352.292969 277.300781 321.328125 C 298.019531 272.589844 231.726562 294.398438 315.414062 161.003906 C 322.761719 149.296875 321.214844 150.582031 322.480469 153.105469 C 328.230469 164.546875 352.289062 177.4375 366.796875 176.855469 C 369.488281 176.75 371.683594 176.671875 371.683594 176.679688 C 371.683594 176.691406 365.519531 193.835938 364.5 196.6875 C 362.257812 202.933594 362.546875 202.554688 361.28125 200.945312 C 356.304688 194.617188 328.242188 192.390625 308.054688 196.722656 C 302.421875 197.929688 302.90625 200.609375 308.597656 199.722656 C 322.644531 197.539062 337.136719 198.128906 349.390625 201.382812 C 355.886719 203.109375 356.175781 203.347656 352.910156 204.269531 C 341.632812 207.457031 317.585938 207.710938 304.613281 204.785156 C 300.042969 203.753906 298.191406 206.097656 301.589844 208.613281 C 302.722656 209.449219 303.070312 210.09375 303.070312 211.363281 C 303.070312 218.066406 311.417969 219.132812 314.941406 229.851562 C 316.195312 233.679688 316.304688 232.15625 314.765625 236.460938 C 312.363281 243.199219 310.464844 246.910156 308.488281 255.289062 C 303.820312 275.066406 297.6875 284.203125 291.996094 279.863281 C 289.570312 278.007812 287.597656 277.648438 286.878906 278.929688 C 285.445312 281.488281 284.378906 267.90625 285.246094 258.121094 C 285.808594 251.742188 286.386719 249.0625 291.203125 230.613281 C 296.1875 211.496094 293.285156 203.261719 279.539062 253.949219 C 275.636719 268.335938 277.9375 282.148438 285.625 290.449219 C 292.808594 298.210938 296.636719 298.660156 308.253906 293.105469 C 312.328125 291.160156 316.105469 289.441406 316.652344 289.285156 C 317.492188 289.046875 318.195312 286.914062 321.246094 275.320312 C 327.566406 251.300781 330.640625 248.652344 323.972656 275.792969 C 319.652344 293.375 321.195312 290.527344 317.351562 292.46875 Z M 327.484375 224.054688 C 331.722656 223.804688 333.621094 221.003906 329.972656 220.378906 C 326.703125 219.824219 328.207031 215.9375 331.691406 215.9375 C 336.714844 215.9375 337.871094 223.710938 333.371094 227.25 C 328.601562 231 318.753906 224.582031 327.484375 224.054688 Z M 325.464844 240.089844 C 323.679688 241.492188 322.964844 241.378906 321.824219 239.507812 C 320.199219 236.84375 321.121094 234.695312 323.890625 234.695312 C 326.703125 234.695312 327.753906 238.289062 325.464844 240.089844 Z M 337.660156 229.984375 C 340.972656 227.9375 335.796875 236.746094 332.949219 246.417969 C 332.550781 247.777344 331.207031 247.898438 331.207031 246.574219 C 331.207031 244.242188 336.46875 230.722656 337.660156 229.984375 Z M 316.09375 253.730469 C 314.566406 249.734375 320.945312 251.191406 318.902344 253.660156 C 318.09375 254.636719 316.457031 254.675781 316.09375 253.730469 Z M 317.101562 269.957031 C 314.894531 272.164062 313.273438 267.726562 315.753906 267.367188 C 317.257812 267.152344 318.167969 268.894531 317.101562 269.957031 Z M 318.167969 214.949219 C 319.554688 214.949219 320.375 215.964844 320.039062 217.261719 C 319.554688 219.128906 321.742188 220.761719 320.71875 221.789062 C 317.964844 224.542969 312.804688 214.949219 318.167969 214.949219 Z M 309.242188 284.304688 C 309.242188 285.59375 306.675781 286.011719 306.210938 284.800781 C 305.417969 282.730469 309.242188 282.535156 309.242188 284.304688 Z M 274.679688 563.960938 C 273.609375 566.332031 272.996094 566.578125 271.050781 565.394531 C 269.25 564.300781 269.199219 563.921875 270.476562 561.109375 C 271.675781 558.46875 270.964844 558.738281 273.183594 560.046875 C 275.554688 561.445312 275.671875 561.757812 274.679688 563.960938 Z M 279.128906 566.292969 C 279.753906 563.171875 279.839844 563.066406 281.832031 562.875 C 284.257812 562.644531 283.671875 562.078125 284.085938 565.058594 C 284.9375 571.292969 278.589844 568.964844 279.128906 566.292969 Z M 293.101562 567.277344 C 292.941406 569.828125 291.898438 570.410156 289.371094 569.371094 C 287.613281 568.648438 288.789062 563.964844 290.558594 564.644531 C 292.730469 565.484375 293.324219 563.828125 293.101562 567.277344 Z M 303.027344 569.785156 C 302.285156 571.910156 301.222656 572.410156 299.238281 571.578125 C 297.539062 570.859375 297.339844 570.230469 298.148438 568.109375 C 299.175781 565.398438 303.980469 567.050781 303.027344 569.785156 Z M 312.457031 572.328125 C 311.789062 573.570312 311.734375 573.234375 309.613281 572.964844 C 307.832031 572.746094 307.183594 570.15625 308.757812 569.550781 C 310.636719 568.828125 313.269531 570.804688 312.457031 572.328125 Z M 351.585938 489.476562 C 358.996094 493.261719 361.492188 500.066406 355.875 501.191406 C 342.414062 503.90625 346.089844 506.648438 349.003906 491.265625 C 349.679688 487.703125 348.925781 488.121094 351.585938 489.476562 Z M 341.996094 460.605469 C 347.492188 449.460938 348.777344 447.722656 354.464844 443.738281 C 365.308594 436.140625 369.5625 437.347656 362.703125 446.078125 C 360.507812 448.867188 358.074219 447.011719 360.113281 444.101562 C 361.785156 441.71875 359.128906 441.207031 357.167969 443.539062 C 355.140625 445.949219 355.574219 449.203125 358.097656 450.527344 C 360.863281 451.972656 357.472656 450.289062 352.484375 465.378906 C 340.289062 502.28125 348.289062 499.058594 336.894531 513.347656 C 334.523438 516.320312 333.152344 519.179688 328.664062 524.738281 C 317.515625 538.542969 318.023438 545.289062 314.328125 559.855469 C 312.480469 567.125 313.460938 565.90625 310.28125 565.789062 C 306.546875 565.652344 306.554688 566.722656 305.5 565.667969 C 304.441406 564.613281 300.710938 564.292969 298.796875 563.695312 C 297.5 563.285156 296.765625 564.328125 295.6875 565.402344 C 293.429688 561.179688 288.636719 561.59375 287.652344 563.070312 C 286.703125 564.5 287.136719 564.578125 286.105469 562.59375 C 283.894531 558.308594 279.902344 560.835938 276.824219 558.824219 C 275.207031 557.761719 275.359375 558.691406 276.441406 554.421875 C 279.777344 541.238281 277.246094 543.0625 276.660156 531.707031 C 276.308594 524.847656 275.414062 521.691406 270.285156 509.25 C 265.910156 498.632812 265.117188 478.746094 269.097656 479.417969 C 270.140625 479.59375 270.699219 478.78125 271.726562 475.585938 C 273.898438 468.851562 276.949219 464.546875 278.335938 466.265625 C 281.824219 470.570312 281.105469 456.890625 289.621094 453.972656 C 291.191406 453.433594 291.222656 453.449219 291.222656 454.894531 C 291.222656 458.769531 293.773438 457.246094 296.738281 451.605469 C 299.074219 447.167969 300.636719 444.777344 315.164062 433.472656 C 317.71875 431.484375 332.632812 415.980469 333.378906 416.914062 C 333.457031 417.011719 332.945312 421 332.242188 425.773438 L 330.960938 434.457031 C 322.292969 444.785156 318.882812 450.289062 323.027344 464.121094 C 324.855469 470.226562 325.035156 473.386719 326.363281 476.519531 C 327.191406 478.46875 327.207031 478.773438 326.53125 479.519531 C 323.984375 482.332031 327.585938 489.84375 341.996094 460.605469 Z M 328.503906 451.761719 C 326.753906 463.511719 326.117188 468.808594 325.4375 455.550781 C 325.097656 448.972656 324.597656 451.132812 327.289062 445.964844 C 330.003906 440.753906 330.082031 441.132812 328.503906 451.761719 Z M 350.179688 408.453125 C 356.417969 408.453125 346.546875 421.964844 347.191406 418.820312 C 348.898438 410.496094 348.648438 408.453125 350.179688 408.453125 Z M 391.386719 310.714844 C 385.816406 338.933594 374.007812 363.035156 360.089844 374.59375 C 350.820312 382.289062 349.121094 386.324219 344.816406 410.945312 C 340.980469 432.894531 337.101562 448.082031 335.347656 460.199219 C 334.324219 467.246094 333.867188 469.175781 332.828125 470.839844 C 322.957031 486.597656 334.890625 454.148438 340.410156 395.1875 C 341.664062 381.800781 340.863281 378.53125 334.414062 370.691406 C 326.441406 361 321.875 349.222656 320.847656 335.710938 C 319.421875 316.9375 326.601562 268.371094 344.210938 226.84375 C 358.519531 241.898438 386.957031 243.960938 400.070312 235.171875 C 400.871094 251.074219 394.46875 295.09375 391.386719 310.714844 Z M 391.386719 310.714844 " fill-opacity="1" fill-rule="nonzero"/></g><path fill="#ffffff" d="M 447.210938 324.089844 C 453.480469 322.367188 457.761719 323.050781 458.300781 325.859375 C 458.449219 326.625 459.230469 329.25 460.035156 331.695312 C 461.410156 335.859375 462.574219 344.167969 462.582031 344.1875 C 464.132812 348.378906 464.273438 340.554688 462.761719 334.109375 C 461.265625 327.730469 466.582031 314.273438 446.601562 321.410156 C 439.921875 323.792969 429.203125 324.183594 425.789062 322.164062 C 423.515625 320.820312 422.246094 321.375 423.761719 323.054688 C 426.246094 325.800781 438.960938 326.359375 447.210938 324.089844 Z M 447.210938 324.089844 " fill-opacity="1" fill-rule="nonzero"/><path fill="#ffffff" d="M 390.25 284.5 C 388.632812 277.191406 367.449219 275.238281 343.101562 280.15625 C 339.191406 280.945312 335.8125 281.589844 335.589844 281.589844 C 334.628906 281.589844 341.550781 266.09375 342.65625 257.769531 C 343.492188 251.511719 341.785156 250.34375 339.386719 255.535156 C 333.433594 268.4375 333.101562 269.300781 332.414062 273.53125 C 330.78125 283.597656 332.390625 280.980469 333.972656 283.820312 C 336.496094 288.363281 368.324219 276.738281 384.480469 285.027344 C 386.734375 286.183594 386.660156 285.644531 384.503906 286.972656 C 380.800781 289.25 360.808594 295.125 341.414062 295.152344 C 320.992188 295.179688 333.097656 295.066406 335.035156 313.449219 C 335.574219 318.558594 336.617188 321.132812 338.804688 322.789062 C 340.773438 324.273438 346.121094 326.511719 347.699219 326.511719 C 355.242188 326.511719 351.660156 337.199219 339.859375 349.890625 L 333.457031 356.777344 C 327.371094 342.894531 327.753906 332.9375 327.753906 317.691406 L 329.109375 317.535156 C 330.972656 317.320312 330.972656 315.464844 329.109375 315.246094 C 319.421875 314.128906 323.261719 363.144531 341.292969 371.769531 C 370.988281 385.941406 395.953125 300.714844 391.304688 287.898438 C 390.882812 286.738281 390.410156 285.207031 390.25 284.5 Z M 348.164062 360.976562 C 347.480469 362.066406 345.351562 362.296875 344.578125 361.363281 C 343.679688 360.277344 344.101562 358.371094 345.277344 358.230469 C 346.808594 358.046875 348.808594 359.949219 348.164062 360.976562 Z M 352.460938 309.308594 C 350.886719 310.585938 349.160156 310.464844 348.210938 309.011719 C 346.671875 306.667969 349.199219 303.984375 350.933594 306.125 C 351.363281 306.65625 351.984375 306.996094 352.320312 306.886719 C 353.515625 306.484375 353.628906 308.367188 352.460938 309.308594 Z M 357.769531 354.0625 C 357.546875 356.011719 355.082031 356.269531 354.609375 354.390625 C 353.757812 351 358.085938 351.324219 357.769531 354.0625 Z M 367.589844 303.402344 C 365.316406 303.132812 366.148438 300.347656 368.5 300.347656 C 371.335938 300.347656 371.996094 303.839844 369.660156 306.503906 C 367.429688 309.039062 364.15625 308.96875 367.300781 305.394531 C 369.335938 303.082031 369.320312 303.605469 367.589844 303.402344 Z M 361.722656 337.949219 C 361.542969 339.179688 360.882812 339.519531 359.890625 338.890625 C 357.972656 337.679688 362.078125 335.558594 361.722656 337.949219 Z M 358.359375 319.167969 C 358.359375 317.730469 360.722656 315.15625 362.042969 315.15625 C 364.335938 315.15625 365.128906 318.207031 362.917969 318.523438 C 361.472656 318.730469 361.515625 319.839844 363.023438 321.351562 C 364.558594 322.882812 365.515625 322.878906 366.953125 321.328125 C 369.355469 318.734375 370.164062 320.703125 367.773438 323.09375 C 364.585938 326.28125 358.359375 323.683594 358.359375 319.167969 Z M 369.375 347.164062 C 364.90625 349.539062 362.617188 343.726562 366.304688 344.464844 C 368.710938 344.945312 369.632812 343.554688 368.441406 341.25 C 367.484375 339.398438 367.851562 338.234375 369.328125 338.445312 C 372.484375 338.902344 372.519531 345.488281 369.375 347.164062 Z M 373.425781 331.925781 C 369.972656 335.738281 370.265625 327.871094 372.109375 328.089844 C 373.925781 328.300781 374.691406 330.53125 373.425781 331.925781 Z M 381.449219 308.210938 C 374.902344 310.492188 373.777344 305.226562 376.746094 304.882812 C 378.503906 304.679688 378.566406 303.144531 376.863281 302.027344 C 373.875 300.070312 375.144531 296.398438 378.800781 296.398438 C 384.953125 296.398438 387.15625 306.21875 381.449219 308.210938 Z M 381.449219 308.210938 " fill-opacity="1" fill-rule="nonzero"/><path fill="#ffffff" d="M 330.894531 346.996094 C 331.234375 347.882812 333.726562 347.984375 334.566406 347.144531 C 337.449219 344.253906 329.734375 343.976562 330.894531 346.996094 Z M 330.894531 346.996094 " fill-opacity="1" fill-rule="nonzero"/><path fill="#ffffff" d="M 333.773438 326.601562 C 335.179688 327.683594 336.574219 327.742188 336.960938 326.738281 C 337.355469 325.714844 335.761719 324.042969 334.394531 324.042969 C 332.761719 324.042969 332.402344 325.542969 333.773438 326.601562 Z M 333.773438 326.601562 " fill-opacity="1" fill-rule="nonzero"/><path fill="#ffffff" d="M 339.386719 333.914062 C 337.117188 333.914062 336.339844 337.320312 338.160156 339.277344 C 339.46875 340.679688 343.1875 340.636719 343.457031 339.222656 C 343.585938 338.53125 343.269531 338.359375 341.886719 338.359375 C 339.777344 338.359375 339.214844 337.628906 340.351562 336.371094 C 341.449219 335.160156 340.960938 333.914062 339.386719 333.914062 Z M 339.386719 333.914062 " fill-opacity="1" fill-rule="nonzero"/><path fill="#ffffff" d="M 388.417969 242.671875 C 380.902344 243.609375 361.097656 239.976562 351.792969 235.953125 C 347.832031 234.242188 347.003906 234.152344 347.003906 235.441406 C 347.003906 240.261719 369.363281 246 385.6875 245.367188 C 392.300781 245.113281 393.960938 245.171875 393.773438 245.671875 C 391.199219 252.503906 389.363281 270.75 390.957031 273.726562 C 393.144531 277.820312 395.703125 268.0625 395.1875 257.582031 C 394.96875 253.183594 395.046875 250.644531 395.429688 249.6875 C 398.011719 243.179688 396.5 241.664062 388.417969 242.671875 Z M 388.417969 242.671875 " fill-opacity="1" fill-rule="nonzero"/><path fill="#ffffff" d="M 269.082031 394.90625 C 285.121094 399.304688 275.429688 388.433594 275.429688 392.410156 C 275.429688 393.351562 274.769531 393.335938 269.421875 392.3125 C 262.40625 390.96875 262.140625 393.003906 269.082031 394.90625 Z M 269.082031 394.90625 " fill-opacity="1" fill-rule="nonzero"/><path fill="#ffffff" d="M 453.910156 385.464844 C 455.808594 387.363281 457.332031 385.074219 455.609375 383.675781 C 453.738281 382.164062 452.214844 383.769531 453.910156 385.464844 Z M 453.910156 385.464844 " fill-opacity="1" fill-rule="nonzero"/><path fill="#ffffff" d="M 533.144531 287.972656 C 533.707031 293.953125 533.761719 301.675781 533.84375 306.644531 C 525.734375 318.527344 523.464844 322.457031 507.429688 304.046875 C 496.691406 291.710938 492.667969 286.007812 495.214844 286.722656 C 499.464844 287.910156 499.847656 287.8125 508.667969 283.277344 C 519.457031 277.726562 522.117188 275.957031 524.09375 273.007812 C 529.273438 265.285156 521.261719 256.867188 512.308594 260.636719 C 500.742188 265.503906 478.660156 271.28125 477.199219 269.816406 C 476.589844 269.207031 479.664062 265.386719 482.527344 263.183594 C 489.089844 258.136719 507.082031 251.558594 515.523438 251.117188 C 522.265625 250.761719 524.242188 249.355469 520.988281 247.226562 C 512.308594 241.535156 474.023438 258.285156 472.085938 268.621094 C 471.910156 269.554688 471.242188 270.839844 470.605469 271.476562 C 469.09375 272.988281 469.777344 273.679688 468.160156 268.601562 C 464.84375 258.171875 464.964844 251.582031 463.285156 246.199219 C 458.894531 232.105469 464.734375 233.269531 459.441406 223.238281 C 456.863281 218.355469 457.339844 217.886719 467.679688 215.136719 C 487.910156 209.753906 501.382812 193.355469 479.625 207.628906 C 463.367188 218.300781 442.488281 210.429688 456.613281 232.0625 C 458.992188 235.710938 459.058594 235.910156 459.082031 239.574219 C 459.109375 244.582031 459.359375 241.652344 464.039062 261.085938 C 468.148438 278.160156 468.539062 270.011719 470.089844 277.441406 C 482.136719 335.222656 550.347656 382.40625 536.316406 288.367188 C 534.996094 279.53125 532.3125 279.195312 533.144531 287.972656 Z M 496.882812 271.152344 C 499.777344 267.957031 503.664062 272.625 501.492188 276.6875 C 500.921875 277.75 499.558594 277.980469 499.488281 277.023438 C 499.257812 273.828125 499.582031 273.414062 497.988281 273.578125 C 496.335938 273.746094 495.734375 272.421875 496.882812 271.152344 Z M 476.546875 281.835938 C 476.957031 279.652344 479.332031 277.640625 481.496094 277.640625 C 484.402344 277.640625 485.132812 280.097656 482.515625 281.09375 C 479.824219 282.117188 481.613281 286.292969 484.511719 285.746094 C 486.863281 285.308594 487.410156 286.707031 485.523438 288.332031 C 481.628906 291.679688 475.53125 287.261719 476.546875 281.835938 Z M 489.078125 299.484375 C 488.898438 300.773438 486.375 301.304688 485.339844 300.273438 C 484.445312 299.378906 484.589844 297.492188 485.589844 296.976562 C 486.675781 296.421875 487.6875 296.757812 487.6875 297.675781 C 487.6875 298.890625 489.335938 297.664062 489.078125 299.484375 Z M 502.867188 318.96875 C 499.144531 321.847656 494.644531 316.753906 497.59375 313 C 500.347656 309.503906 504.167969 314.066406 502.003906 315.402344 C 501.210938 315.894531 501.429688 316.503906 502.496094 316.78125 C 503.605469 317.070312 503.800781 318.246094 502.867188 318.96875 Z M 510.371094 325.800781 C 509.519531 326.828125 508.046875 326.671875 507.414062 325.492188 C 506.660156 324.078125 508.039062 321.945312 509.5625 322.160156 C 510.816406 322.339844 511.332031 324.644531 510.371094 325.800781 Z M 516.796875 329.472656 C 515.632812 329.472656 514.957031 328.167969 515.726562 327.398438 C 517.234375 325.890625 518.933594 329.472656 516.796875 329.472656 Z M 516.796875 329.472656 " fill-opacity="1" fill-rule="nonzero"/><path fill="#ffffff" d="M 515.988281 292.871094 C 516.652344 291.808594 514.109375 288.996094 512.484375 288.996094 C 510.78125 288.996094 510.011719 291.050781 511.09375 292.707031 C 512.074219 294.199219 515.09375 294.300781 515.988281 292.871094 Z M 515.988281 292.871094 " fill-opacity="1" fill-rule="nonzero"/><path fill="#ffffff" d="M 518.480469 310.492188 C 518.738281 311.167969 518.933594 311.207031 519.539062 310.703125 C 521.210938 309.316406 517.542969 308.042969 518.480469 310.492188 Z M 518.480469 310.492188 " fill-opacity="1" fill-rule="nonzero"/><path fill="#ffffff" d="M 661.472656 539.757812 C 643.089844 502.585938 631.769531 484.792969 622.710938 442.601562 C 620.722656 433.359375 616.238281 422.199219 614.28125 412.648438 C 610.972656 396.539062 606.507812 396.082031 581.199219 373.898438 C 562.328125 357.359375 567.921875 365.632812 559.0625 357.617188 C 558.152344 356.789062 542.480469 343.945312 542.480469 340.636719 C 542.480469 332.183594 562.972656 302.484375 516.828125 222.847656 C 495.484375 186.019531 497.824219 182.257812 483.699219 182.308594 C 470.457031 182.355469 447.109375 193.804688 443.121094 202.207031 C 439.996094 208.796875 452.316406 256.238281 467.519531 296.152344 C 492.082031 360.632812 512.945312 343.355469 527.53125 362.441406 C 531.515625 367.652344 537.101562 378.339844 535.84375 378.339844 C 534.152344 378.339844 512.863281 382.519531 511.828125 383.054688 C 505.542969 386.304688 514.339844 393.003906 525.566406 393.515625 C 534.953125 393.941406 528.480469 392.449219 535.59375 401.875 C 538.042969 405.125 538.070312 404.964844 534.789062 406.683594 C 524.972656 411.8125 523.167969 419.292969 531.746094 419.3125 C 533.273438 419.3125 533.386719 419.632812 532.34375 421.011719 C 528.566406 426.003906 535.269531 427.761719 545.492188 424.457031 C 551.539062 422.503906 551.050781 422.417969 553.03125 425.761719 C 553.777344 427.015625 553.746094 427.0625 548.730469 431.742188 C 537.351562 442.367188 534.945312 450.472656 542.070312 454.15625 C 546.070312 456.222656 558.503906 455.953125 563.449219 453.6875 C 566.742188 452.179688 565.484375 451.902344 568.957031 455.421875 C 577.039062 463.609375 582.464844 461.9375 582.464844 463.554688 C 582.464844 463.652344 583.277344 463.332031 607.914062 547.65625 C 633.332031 634.644531 640.453125 627.988281 634.027344 611.738281 C 627.542969 595.339844 586.652344 464.636719 586.632812 464.585938 C 586.457031 464.125 586.917969 464.007812 588.375 464.148438 C 593.722656 464.65625 591.019531 461.554688 583.953125 459.078125 C 563.152344 451.773438 571.828125 439.925781 545.136719 407.859375 C 538.347656 399.703125 536.523438 397.011719 538.5 398.066406 C 541.46875 399.660156 546.589844 395.402344 544.742188 392.875 C 544.085938 391.976562 542.972656 392.261719 542.972656 393.332031 C 542.972656 393.675781 542.300781 394.597656 541.480469 395.386719 C 539.484375 397.296875 540.59375 397.453125 536.605469 393.304688 C 531.675781 388.171875 531.292969 384.757812 535.652344 384.757812 C 539.144531 384.757812 542.734375 387.230469 547.230469 392.734375 C 552.226562 398.855469 569.34375 412.882812 573.546875 414.308594 C 576.339844 415.253906 576.582031 414.21875 574.144531 411.734375 C 571.710938 409.253906 571.628906 409.859375 573.265625 408.789062 C 576.566406 406.625 575.230469 404.441406 571.40625 405.742188 C 567.765625 406.980469 564.734375 402.742188 556.503906 384.875 C 553.449219 378.238281 553.496094 378.972656 560.992188 380.589844 C 562.777344 384.273438 571.046875 400.0625 575.140625 400.0625 C 578.59375 400.0625 571.894531 394.492188 565.957031 382.917969 C 563.851562 378.820312 563.292969 378.132812 560.332031 376.03125 C 549.511719 368.34375 541.988281 357.117188 541.988281 348.660156 C 541.988281 345.179688 541.125 345.199219 545.320312 349.265625 C 560.917969 364.378906 573.824219 371.003906 581.328125 378.03125 C 599.152344 394.746094 608.574219 394.464844 613.070312 415.222656 C 616.339844 430.316406 619.738281 432.125 623.203125 455.648438 C 628.796875 493.570312 659.933594 539.027344 678.707031 578.261719 C 695.257812 612.839844 695.53125 613.339844 695.898438 609.5625 C 696.375 604.699219 665.902344 548.714844 661.472656 539.757812 Z M 560.742188 441.277344 C 562.949219 447.351562 564.199219 449.265625 564.199219 449.609375 C 564.199219 449.738281 562.65625 450.1875 560.769531 450.617188 C 542.960938 454.667969 538.3125 448.1875 550.058594 435.679688 C 555.371094 430.027344 555.171875 425.933594 560.742188 441.277344 Z M 546.8125 416.101562 C 549.808594 420.765625 550.402344 420.21875 543.675781 421.96875 C 529.324219 425.695312 532.714844 420.703125 546.8125 416.101562 Z M 542.410156 410.511719 C 544.871094 413.539062 544.945312 413.429688 539.101562 415.339844 C 527.371094 419.171875 524.980469 415.472656 535.617188 409.941406 C 540.328125 407.488281 539.917969 407.453125 542.410156 410.511719 Z M 458.199219 194.851562 C 470.035156 187.855469 491.636719 183.027344 491.636719 187.375 C 491.636719 191.890625 476.027344 202.515625 464.570312 205.800781 C 444.539062 211.542969 440.808594 205.132812 458.199219 194.851562 Z M 535.375 382.382812 C 528.96875 381.976562 529.414062 385.054688 529.566406 390.558594 C 522.890625 391.472656 520.511719 391.871094 515.246094 387.855469 C 512.695312 385.910156 516.175781 384.136719 525.679688 382.539062 C 537.667969 380.527344 537.371094 380.546875 537.980469 381.695312 C 538.421875 382.511719 538.214844 382.5625 535.375 382.382812 Z M 555.554688 376.453125 C 555.84375 376.71875 555.390625 376.84375 554.402344 376.769531 C 552.761719 376.644531 552.335938 376.203125 551.351562 373.613281 C 550.824219 372.230469 551.125 372.433594 555.554688 376.453125 Z M 539.984375 335.972656 C 536.839844 348.453125 539.074219 357.632812 552.25 386.363281 C 554.957031 392.269531 557.121094 397.097656 557.0625 397.097656 C 556.890625 397.097656 550.011719 391.128906 547.304688 388.636719 C 538.246094 380.289062 539.480469 356.078125 513.738281 346.410156 C 490.554688 337.703125 474.109375 310.722656 458.140625 255.183594 C 455.027344 244.34375 447.710938 214.105469 447.703125 212.027344 C 447.703125 211.871094 449.605469 211.8125 451.933594 211.902344 C 465.832031 212.429688 485.167969 203.753906 491.90625 193.96875 C 494.21875 190.613281 493.835938 190.269531 499.289062 200.632812 C 524.933594 249.367188 551.910156 288.625 539.984375 335.972656 Z M 539.984375 335.972656 " fill-opacity="1" fill-rule="nonzero"/><path fill="#ffffff" d="M 511.574219 301.59375 C 509.664062 304.515625 515.332031 306.117188 515.332031 302.648438 C 515.332031 300.234375 512.914062 299.550781 511.574219 301.59375 Z M 511.574219 301.59375 " fill-opacity="1" fill-rule="nonzero"/><path fill="#ffffff" d="M 523.722656 304.789062 C 524.761719 306.730469 527.347656 305.742188 527.09375 303.503906 C 526.757812 300.539062 522.234375 302.007812 523.722656 304.789062 Z M 523.722656 304.789062 " fill-opacity="1" fill-rule="nonzero"/><path fill="#ffffff" d="M 524.234375 280.941406 C 521.230469 284.75 526.683594 283.863281 527.082031 286.332031 C 527.167969 286.84375 527.324219 287.546875 527.4375 287.882812 C 527.765625 288.882812 529.527344 288.59375 530.359375 287.402344 C 533.347656 283.140625 527.421875 276.886719 524.234375 280.941406 Z M 524.234375 280.941406 " fill-opacity="1" fill-rule="nonzero"/><path fill="#ffffff" d="M 529.214844 292.945312 C 525.910156 292.945312 529.558594 297.351562 530.050781 294.015625 C 530.167969 293.21875 529.953125 292.945312 529.214844 292.945312 Z M 529.214844 292.945312 " fill-opacity="1" fill-rule="nonzero"/><path fill="#ffffff" d="M 556.019531 447.996094 C 560.109375 446.558594 560.578125 443.933594 556.550781 445.042969 C 555.097656 445.445312 553.957031 445.425781 552.039062 444.964844 C 544.929688 443.261719 546.714844 451.277344 556.019531 447.996094 Z M 556.019531 447.996094 " fill-opacity="1" fill-rule="nonzero"/><path fill="#ffffff" d="M 540.722656 609.742188 C 544.046875 607.878906 543.390625 603.929688 539.757812 603.929688 C 538.195312 603.929688 538.035156 603.777344 537.519531 601.832031 C 530.175781 574.089844 522.527344 570.746094 523.0625 543.953125 C 523.953125 499.644531 519.816406 511.203125 489.371094 481.902344 C 480.210938 473.085938 479.757812 472.8125 473.007812 472.117188 C 465.273438 471.320312 465.253906 471.3125 465.074219 468.148438 C 463.855469 446.984375 486.636719 441.414062 485.015625 410.265625 C 483.28125 376.886719 467.535156 305.375 466.222656 302.476562 C 460.027344 288.792969 405.980469 297.804688 407.082031 312.34375 C 407.542969 318.375 402.574219 365.976562 408.972656 403.949219 C 417.65625 455.484375 436.246094 443.398438 447.722656 467.441406 C 452.351562 477.128906 452.320312 476.242188 448.070312 476.933594 C 422.578125 481.09375 418.695312 494.917969 442.667969 496.175781 C 449.753906 496.546875 450.804688 497.457031 446.601562 499.582031 C 427.175781 509.398438 422.550781 523.609375 440.050781 519.703125 C 446.085938 518.359375 446.773438 517.539062 442.398438 522.160156 C 434.105469 530.914062 439.832031 536.5 460.449219 526.667969 C 461.03125 530.207031 461.5 532.273438 459.988281 533.632812 C 455.027344 538.097656 455.046875 544.589844 460.019531 544.117188 C 462.539062 543.878906 462.019531 543.433594 462.019531 545.832031 C 462.019531 554.589844 423.164062 571.554688 441.351562 577.007812 C 453.21875 580.5625 481.957031 575.832031 482.003906 575.886719 C 484.183594 578.371094 491.417969 601.164062 490.660156 603.160156 C 489.804688 605.410156 490.070312 606.90625 491.570312 608.308594 C 495.25 611.746094 500.195312 660.09375 502.824219 666.683594 C 504.464844 670.777344 505.890625 669.042969 504.953125 664.097656 C 503.453125 656.210938 499.964844 627.632812 496.753906 611.460938 C 501.003906 613.234375 510.136719 613.742188 513.117188 613.789062 C 514.917969 613.816406 513.992188 615.917969 516.636719 616.171875 C 518.929688 616.394531 519.863281 620.21875 517.628906 620.21875 C 512.632812 620.21875 513.867188 625.992188 519.214844 627.644531 C 523.144531 628.859375 522.25 628.949219 523.402344 627.527344 C 527.714844 622.210938 527.390625 617.820312 522.777344 619.046875 C 519.28125 619.980469 521.386719 618.035156 519.660156 615.90625 C 519.007812 615.09375 519.589844 614.9375 524.566406 614.574219 C 537.421875 613.632812 535.359375 608.445312 538.054688 616.609375 C 544.101562 634.914062 555.992188 663.660156 557.519531 663.660156 C 559.695312 663.660156 559.046875 661.28125 552.050781 643.578125 C 544.664062 624.875 539.773438 610.273438 540.722656 609.742188 Z M 441.421875 492.371094 C 434.769531 492.371094 430.300781 489.527344 431.792969 486.25 C 432.511719 484.675781 443.007812 479.535156 445.5 479.535156 C 446.285156 479.535156 442.757812 482 445.511719 491.257812 C 445.839844 492.351562 445.777344 492.371094 441.421875 492.371094 Z M 448.027344 300.964844 C 465.101562 301.503906 464 306.34375 445.730469 311.050781 C 435.34375 313.726562 412.164062 312.425781 412.164062 309.167969 C 412.164062 305.550781 434.132812 300.527344 448.027344 300.964844 Z M 411.375 383.277344 C 409.597656 365.90625 410.15625 314.605469 412.113281 315.449219 C 422.597656 319.96875 450.304688 317.648438 460.164062 311.421875 C 465.039062 308.34375 461.929688 308.734375 471.140625 350.945312 C 474.214844 365.023438 474.570312 366.960938 477.28125 384.265625 C 481.9375 413.96875 482.109375 419.308594 478.75 429.402344 C 471.355469 451.589844 457.355469 449.015625 463.023438 480.496094 C 464.519531 488.8125 464.378906 489.074219 460.675781 484.804688 C 458.386719 482.164062 457.597656 480.882812 457.589844 479.769531 C 457.574219 477.929688 453.519531 465.066406 451.679688 461.023438 C 442.59375 441.042969 418.628906 454.09375 411.375 383.277344 Z M 433.632812 515.566406 C 432.632812 513.945312 440.496094 506.769531 451.632812 501.589844 C 452.453125 502.511719 458.070312 508.699219 458.070312 509.753906 C 458.070312 510.65625 434.832031 517.511719 433.632812 515.566406 Z M 456.28125 524.617188 C 438.878906 530.304688 441.582031 528.671875 446.347656 523.644531 C 453.640625 515.945312 459.550781 512.300781 459.550781 515.496094 C 459.550781 524.957031 462.363281 522.628906 456.28125 524.617188 Z M 460.527344 541.238281 C 459.042969 541.238281 459.039062 541.226562 459.753906 539.84375 C 461.148438 537.148438 462.019531 536.902344 462.019531 539.203125 C 462.019531 541.140625 461.945312 541.238281 460.527344 541.238281 Z M 440.300781 572.40625 C 440.300781 571.628906 446.382812 566.226562 452.5625 561.515625 C 465.34375 551.777344 465.996094 550.128906 464.207031 532.167969 C 463.78125 527.898438 463.511719 524.171875 463.605469 523.886719 C 464.027344 522.632812 466.957031 532.890625 466.964844 535.640625 C 467.03125 558.210938 474.960938 555.890625 480.644531 572.808594 C 454.832031 576.816406 440.300781 574.554688 440.300781 572.40625 Z M 516.769531 611.828125 C 512.925781 611.828125 518.292969 609.1875 518.292969 611.054688 C 518.292969 611.589844 517.824219 611.828125 516.769531 611.828125 Z M 524.828125 621.101562 C 521.890625 626.503906 522.285156 626.621094 519.15625 625.324219 C 516.886719 624.382812 516.691406 623.179688 518.804688 623.179688 C 520.945312 623.179688 521.109375 622.21875 524.828125 621.101562 Z M 535.417969 609.171875 C 535.363281 609.21875 521.308594 614.417969 520.484375 611.140625 C 519.757812 608.253906 516.574219 607.546875 514.347656 609.773438 L 512.941406 611.175781 C 485.703125 607.527344 502.535156 613.1875 483.199219 570.617188 C 484.761719 572.132812 487.664062 575.25 488.492188 573.085938 C 489.746094 569.816406 473.972656 558.488281 471.875 538.894531 C 469.902344 520.441406 460.851562 511.476562 452.496094 496.398438 C 450.65625 493.074219 450.550781 493.511719 452.554688 494.546875 C 455.246094 495.941406 458.105469 495.164062 458.703125 492.878906 C 459.082031 491.4375 458.019531 491.023438 457.179688 492.285156 C 455.125 495.378906 449.03125 489.523438 449.953125 485.339844 C 451.226562 479.527344 459.46875 486.433594 473.367188 504.957031 C 489.792969 526.851562 490.183594 519.179688 487.195312 517.050781 C 486.261719 516.386719 485.714844 515.5625 485.714844 514.824219 C 485.714844 507.046875 476.121094 490.320312 470.621094 488.507812 C 466.234375 487.058594 467.316406 488.613281 466.289062 481.160156 C 465.816406 477.757812 465.5 474.925781 465.578125 474.875 C 470.246094 471.816406 479.605469 476.449219 490.832031 487.371094 C 519.140625 514.90625 519.0625 501.066406 519.300781 542.472656 C 519.414062 562.691406 520.4375 554.816406 524.703125 572.832031 C 527.164062 583.214844 535.910156 608.742188 535.417969 609.171875 Z M 469.875 492.222656 C 473.445312 493.621094 476.472656 498.148438 479.480469 506.5625 C 481.167969 511.292969 481.261719 511.378906 474.308594 501.871094 C 467.359375 492.371094 466.722656 490.980469 469.875 492.222656 Z M 469.875 492.222656 " fill-opacity="1" fill-rule="nonzero"/><path fill="#ff66c4" d="M 639.449219 481.367188 C 639.449219 474.511719 626.964844 473.894531 633.09375 480.871094 C 636.367188 484.597656 633.882812 488.410156 621.652344 498.429688 C 605.273438 511.851562 592.390625 514.382812 596.820312 503.308594 C 598.460938 499.207031 594.308594 497.953125 591.734375 501.769531 C 587.914062 507.441406 589.765625 513.757812 595.863281 515.867188 C 598.242188 516.695312 597.820312 516.871094 597.308594 521.617188 C 596.597656 528.132812 597.847656 530.714844 602.675781 532.734375 C 609.191406 535.460938 612.324219 534.144531 620.339844 525.324219 C 650.585938 492.035156 639.449219 484.625 639.449219 481.367188 Z M 635.769531 499.617188 C 632.363281 505.679688 614.058594 527.234375 610.582031 529.273438 C 607.96875 530.804688 606.742188 530.734375 603.101562 528.851562 C 600.683594 527.601562 600.949219 527.1875 600.949219 517.304688 L 604.828125 517.003906 C 615.574219 516.175781 629.109375 504.65625 636.199219 490.292969 C 638.941406 484.746094 638.269531 485.160156 638.710938 488.128906 C 639.148438 491.054688 637.957031 495.722656 635.769531 499.617188 Z M 635.769531 499.617188 " fill-opacity="1" fill-rule="nonzero"/><path fill="#ff66c4" d="M 523.117188 619.070312 C 522.179688 620.136719 521.855469 620.226562 520.402344 619.804688 C 516.140625 618.566406 512.625 622.035156 514.234375 625.886719 C 514.808594 627.253906 515.742188 627.988281 519.316406 629.851562 C 525.636719 633.15625 526.484375 632.902344 528.558594 627.058594 C 531.308594 619.308594 527.644531 613.929688 523.117188 619.070312 Z M 523.117188 619.070312 " fill-opacity="1" fill-rule="nonzero"/><path fill="#ff66c4" d="M 491.363281 607.609375 C 491.363281 603.582031 475.675781 615.816406 470.148438 624.160156 C 466.417969 629.796875 470.488281 633.15625 477.90625 630.558594 C 480.539062 629.632812 480.222656 628.785156 478.261719 637.75 C 477.027344 643.375 470.75 665.152344 474.6875 663.640625 C 475.722656 663.242188 479.769531 642.796875 479.988281 644.761719 C 480.128906 646.070312 480.800781 663.296875 481.28125 665.617188 C 481.6875 667.589844 482.960938 667.777344 482.984375 665.863281 C 483.398438 636.65625 481.933594 639.078125 484.164062 641.3125 C 486.59375 643.742188 490.867188 641.90625 492.636719 637.679688 C 494.820312 632.445312 494.738281 611.253906 492.523438 609.195312 C 491.882812 608.605469 491.363281 607.890625 491.363281 607.609375 Z M 482.261719 622.394531 C 481.027344 625.824219 479.789062 627.117188 476.929688 627.96875 C 467.933594 630.640625 472 622.398438 484.15625 613.316406 C 493.878906 606.046875 486.675781 610.167969 482.261719 622.394531 Z M 489.183594 638.015625 C 488.414062 639.507812 486.65625 640.140625 485.769531 639.25 C 484.699219 638.183594 486.917969 627.546875 490.070312 618.597656 C 491.671875 614.058594 491.28125 612.839844 491.308594 622.054688 C 491.328125 629.367188 490.519531 635.425781 489.183594 638.015625 Z M 489.183594 638.015625 " fill-opacity="1" fill-rule="nonzero"/><path fill="#ff66c4" d="M 227 439.144531 C 224.121094 436.441406 228.234375 435.800781 221.140625 435.441406 C 210.949219 434.925781 192.222656 422.585938 192.222656 416.382812 C 192.222656 410.71875 178.382812 409.878906 184.546875 422.199219 C 188.652344 430.402344 192.460938 432.605469 208.511719 436.042969 C 209.46875 436.246094 208.910156 436.527344 206.050781 437.277344 C 188.464844 441.894531 176.378906 462.089844 186.238281 470.382812 C 191.378906 474.707031 196.003906 472 202.644531 460.773438 C 205.78125 455.472656 213.652344 446.074219 214.960938 446.074219 C 215.078125 446.074219 205.378906 466.347656 186.644531 487.148438 C 153.4375 524.023438 155.804688 542.1875 168.324219 523.9375 C 176.832031 511.546875 206.203125 472.703125 208.578125 469.207031 C 214.472656 460.535156 213.140625 459.398438 209.773438 487.539062 C 208.402344 498.949219 198.273438 533.878906 202.207031 536.628906 C 205.5625 538.980469 206.035156 538.109375 211.71875 519.027344 C 220.933594 488.066406 215.324219 486.722656 218.632812 465.367188 C 238.144531 478.492188 241.148438 452.433594 227 439.144531 Z M 218.140625 440.957031 C 214.90625 443.714844 206.457031 451.527344 202.648438 454.183594 C 191.1875 462.167969 187.8125 466.085938 188.386719 459.089844 C 189.296875 448.042969 202.058594 439.554688 217.585938 439.675781 C 220.148438 439.695312 220.085938 439.292969 218.140625 440.957031 Z M 229.511719 464.613281 C 224.914062 466.53125 219.730469 461.722656 220.578125 456.3125 C 220.980469 453.734375 225.363281 443 226.019531 442.980469 C 231.078125 442.832031 234.269531 462.625 229.511719 464.613281 Z M 229.511719 464.613281 " fill-opacity="1" fill-rule="nonzero"/></svg>